<?xml version="1.0" encoding="utf-8"?>
<!-- Generator: Adobe Illustrator 22.0.0, SVG Export Plug-In . SVG Version: 6.00 Build 0)  -->
<svg version="1.1" id="Capa_1" xmlns="http://www.w3.org/2000/svg" xmlns:xlink="http://www.w3.org/1999/xlink" x="0px" y="0px"
	 viewBox="0 0 363.6 329.9" style="enable-background:new 0 0 363.6 329.9;" xml:space="preserve">
<style type="text/css">
	.st0{fill:#289548;}
</style>
<g>
	<path class="st0" d="M46.1,264.6h25c-21.3-25.9-34.2-59.2-34.2-95.6c0-82.2,65.6-148.7,146.4-148.7c80.8,0,146.4,66.6,146.4,148.7
		c0,36.4-12.9,69.7-34.2,95.6h25c6.3-9.3,11.6-19.3,16.1-29.8c8.7-20.8,13.1-43,13.1-65.8c0-22.8-4.4-44.9-13.1-65.7
		C328,83.1,316.1,65,300.8,49.5c-15.2-15.5-33-27.7-52.8-36.2C227.4,4.5,205.7,0,183.2,0c-22.5,0-44.2,4.5-64.7,13.3
		C98.7,21.8,81,34,65.7,49.5C50.4,65,38.4,83.1,30,103.2C21.4,124.1,17,146.2,17,169c0,22.8,4.4,45,13.1,65.8
		C34.4,245.3,39.8,255.3,46.1,264.6z"/>
	<path class="st0" d="M136.9,75.1c-3,1.1-7.1,3.6-9.5,3.1c0-0.1-0.1-0.5-0.2-0.5c0-7.8,0-29.8,0.1-32.1c-0.1,0-0.3,0-0.4,0
		C67.1,64.2,25,148,57.1,221.3c0,0.1,0.1,0.1,0.1,0.1l30.8-0.1c0,0-14.3-34.5-11.2-44.6c0-0.1,0.1-0.2,0.1-0.2l30.9,0.1l-0.1,88
		h32.1L140,75C140,75,138.5,74.5,136.9,75.1z M107.8,150.6H77.4c0,0-0.4-20.2,9.6-37.2c10-16.8,21-22.8,21-22.8L107.8,150.6z"/>
	<path class="st0" d="M218.6,64.8c9.1,2.4,20.5,8,20.5,8L239,44.3c0,0-20.8-10.4-55.5-10.3c-32.7,0.1-52.8,10.4-52.8,10.4v27.5
		c0,0,13.1-6.4,17.2-7.7c12.7-3.9,20.4-2.3,20.4-2.3v202.7h31.8l0.5-201.9C200.6,62.7,211,62.8,218.6,64.8z"/>
	<path class="st0" d="M281.1,222.5c0,0-4.2,8.2-9.3,14.8c-8.5,11.2-11.9,9.6-11.9,9.6l-0.1-63.8l36.1,0.6l-0.1-27H260l-0.1-61.8
		c0,0,0.6-1,1.7-0.8c6.3,0.9,18.8,23.9,18.8,23.9L309,118c0,0,0,0-0.1-0.2c-1.3-11-26-53.6-66.8-71.1c-0.6,6.6,0,27.6-0.1,31.8
		c-0.4-0.1-1-0.1-1.3-0.1c-1.4-0.2-4.1-0.5-6.4-2.3c-2.7-2.1-5.3-1.1-5.3-1.1l-0.3,189.6h53.9c20.6-21.2,25.3-41.9,25.3-41.9
		L281.1,222.5z"/>
	<rect x="268.6" y="300.9" class="st0" width="10.7" height="27.7"/>
	<path class="st0" d="M158.3,301.1c-4.5,0-8.1,1.4-10.9,4.1c-2.8,2.8-4.2,6.2-4.2,10.4c0,3.8,1.3,7.2,4,10c2.7,2.9,6.3,4.3,10.8,4.3
		c4.6,0,8.2-1.4,11-4.2c2.7-2.7,4.1-6.2,4.1-10.3c0-4.1-1.4-7.5-4.1-10.2C166.5,302.4,162.8,301.1,158.3,301.1z M161.3,320.6
		c-0.4,1.8-1.4,2.6-3,2.6c-1.2,0-2.1-0.5-2.7-1.5c-0.6-1-0.9-3.2-0.9-6.3c0-2.7,0.3-4.7,0.9-5.8c0.5-1.2,1.4-1.8,2.7-1.8
		c1.3,0,2.3,0.6,2.8,1.7c0.5,1.1,0.8,3,0.8,5.6C161.9,317.1,161.7,318.9,161.3,320.6z"/>
	<path class="st0" d="M197.1,312c-1.6-0.5-4.7-1-9.1-1.6c-1.7-0.2-2.6-0.7-2.6-1.7c0-0.3,0.3-0.6,0.8-0.9c0.5-0.4,1.4-0.5,2.6-0.5
		c2.4,0,4,0.8,4.8,2.4l8.1-1.6c-1.9-4.9-6.1-7.3-12.7-7.3c-3.8,0-6.8,0.9-9.1,2.6c-2.3,1.7-3.5,4.1-3.5,6.9c0,2,0.7,3.9,2.1,5.6
		c1.4,1.6,4.8,2.9,10.4,3.6c2,0.3,3.3,0.5,3.8,0.8c0.5,0.3,0.8,0.7,0.8,1.1c0,1.1-1.4,1.6-4.1,1.6c-3.3,0-5.3-1-5.8-3l-8.4,1.2
		c1.7,5.6,6.3,8.4,13.7,8.4c4.4,0,7.8-0.9,10.3-2.7c2.5-1.8,3.7-4.2,3.7-7.2c0-2-0.5-3.6-1.7-5.1C200,313.5,198.6,312.6,197.1,312z"
		/>
	<path class="st0" d="M179.6,291.1c1.7,0,2.9-0.7,3.6-2.1v1.8h5v-18.5H183v5.8c-0.9-1-2-1.5-3.3-1.5c-1.6,0-2.9,0.7-3.9,2
		c-1,1.3-1.5,3-1.5,5.3c0,2.4,0.5,4.2,1.5,5.4C176.7,290.4,178,291.1,179.6,291.1z M180.1,281.2c0.2-0.8,0.7-1.2,1.4-1.2
		c1,0,1.6,0.6,1.6,1.9v3.4c0,0.7-0.2,1.3-0.5,1.6c-0.3,0.4-0.7,0.5-1.1,0.5c-1.1,0-1.7-1.1-1.7-3.3C179.8,283,179.9,282,180.1,281.2
		z"/>
	<path class="st0" d="M136,287.3c-0.6,0-1.1-0.3-1.3-0.8c-0.3-0.5-0.4-1.4-0.4-2.5c0-1.3,0.1-2.2,0.4-2.7c0.2-0.5,0.7-0.8,1.2-0.8
		c0.9,0,1.4,0.7,1.7,2.2l4.7-0.4c-0.2-1.6-0.8-2.9-2-3.9c-1.1-1.1-2.6-1.6-4.5-1.6c-2.1,0-3.8,0.7-5,2c-1.3,1.4-2,3.2-2,5.3
		c0,2.1,0.7,3.8,2,5.1c1.3,1.3,3,2,5.1,2c1.9,0,3.3-0.5,4.5-1.6c1.1-1,1.7-2.3,2-3.9l-4.5-0.4C137.6,286.5,137,287.3,136,287.3z"/>
	<rect x="105.3" y="271.7" class="st0" width="5.4" height="4.3"/>
	<path class="st0" d="M135.3,302.2c-1.4-0.8-3.1-1.2-5.1-1.2c-3.8,0-6.4,1.5-7.9,4.5v-3.9h-9.9v27.7h10.7v-16.6c0-2.8,1-4.2,2.9-4.2
		c0.7,0,1.3,0.2,1.7,0.6c0.4,0.4,0.7,1.3,0.7,2.7v17.4h10.7v-17.7c0-3-0.3-5.1-0.9-6.4C137.6,304,136.7,303,135.3,302.2z"/>
	<path class="st0" d="M319.4,300.3c-4.5,0-8.1,1.4-10.8,4.2c-2.7,2.9-4.1,6.3-4.1,10.5c0,4,1.3,7.3,4.1,10c2.7,2.7,6.4,4,11,4
		c4.1,0,7.4-1,9.9-2.9c2.4-1.9,3.9-4.2,4.5-6.9l-10-0.7c-0.4,2.3-1.8,3.4-4.1,3.4c-1.7,0-2.7-0.4-3.3-1.3c-0.6-0.8-0.9-2.1-1-3.9
		H334c0-0.7,0-1.2,0-1.5c0-4.7-1.3-8.3-4-11C327.3,301.7,323.7,300.3,319.4,300.3z M315.7,311.4c0-3.2,1.3-4.7,3.8-4.7
		c1,0,2,0.3,2.6,1c0.8,0.7,1.1,1.9,1.1,3.8H315.7z"/>
	<path class="st0" d="M361.9,314.2c-1.1-1.4-2.4-2.4-4.1-2.9c-1.6-0.5-4.6-1.1-9.1-1.6c-1.7-0.2-2.6-0.8-2.6-1.7
		c0-0.3,0.3-0.7,0.9-1c0.5-0.3,1.4-0.5,2.6-0.5c2.4,0,3.9,0.8,4.7,2.4l8.1-1.6c-1.9-4.8-6-7.2-12.7-7.2c-3.8,0-6.9,0.8-9.2,2.6
		c-2.3,1.7-3.5,4-3.5,6.9c0,2,0.7,3.9,2.1,5.5c1.4,1.7,4.9,2.9,10.5,3.7c2,0.2,3.2,0.5,3.8,0.8c0.5,0.2,0.8,0.7,0.8,1.1
		c0,1.1-1.4,1.6-4.2,1.6c-3.3,0-5.3-1-5.7-3l-8.5,1.2c1.7,5.6,6.3,8.4,13.7,8.4c4.4,0,7.8-0.9,10.3-2.6c2.5-1.8,3.8-4.2,3.8-7.2
		C363.6,317.3,363,315.6,361.9,314.2z"/>
	<rect x="105.3" y="277" class="st0" width="5.4" height="13.8"/>
	<path class="st0" d="M293.9,306.6v-5.7h-9v27.7h10.3v-12.7c0-4,1.8-6,5.3-6c0.6,0,1.3,0.1,2,0.2v-9.7c-0.7-0.1-1.2-0.1-1.6-0.1
		C297.3,300.4,294.9,302.4,293.9,306.6z"/>
	<path class="st0" d="M197.8,276.7c-2.3,0-4.1,0.7-5.4,2.1c-1.4,1.4-2,3.2-2,5.3c0,2,0.7,3.6,2,5c1.4,1.3,3.2,2,5.5,2
		c2.1,0,3.7-0.5,4.9-1.5c1.3-1,2-2.1,2.3-3.4l-5-0.4c-0.2,1.1-0.9,1.7-2.1,1.7c-0.8,0-1.3-0.2-1.6-0.7c-0.3-0.4-0.4-1-0.5-1.9h9.1
		c0-0.3,0-0.6,0-0.8c0-2.3-0.7-4.1-2-5.5C201.7,277.4,200,276.7,197.8,276.7z M195.9,282.2c0-1.6,0.7-2.4,1.9-2.4
		c0.5,0,1,0.2,1.3,0.5c0.4,0.4,0.5,1,0.6,1.9H195.9z"/>
	<rect x="268.6" y="290.2" class="st0" width="10.7" height="8.6"/>
	<path class="st0" d="M232.7,276.5l-15.8,52.1h12.8l3.1-10.3h13.7l2.9,10.3h16.1l-16.1-52.1H232.7z M235.4,307l4.1-15.1l4.2,15.1
		H235.4z"/>
	<path class="st0" d="M126.7,290.8V282c0-1.5-0.1-2.6-0.4-3.2c-0.3-0.7-0.8-1.1-1.4-1.5c-0.7-0.4-1.6-0.6-2.6-0.6
		c-1.9,0-3.2,0.7-3.9,2.2V277h-5v13.8h5.3v-8.3c0-1.4,0.5-2.1,1.5-2.1c0.3,0,0.6,0.1,0.8,0.3c0.2,0.2,0.4,0.7,0.4,1.4v8.7H126.7z"/>
	<path class="st0" d="M98,283.6c-0.1,0.2-0.2,0.5-0.2,0.7c-0.1-0.5-0.2-1-0.4-1.4l-2-5.9h-5.5l5.1,13.8h4l5-13.8h-3.8l-2,6.1
		C98,283.4,98,283.6,98,283.6z"/>
	<path class="st0" d="M93.6,301.1c-4.5,0-8.1,1.4-10.8,4.3c-2.7,2.8-4.1,6.3-4.1,10.5c0,4,1.4,7.3,4.1,10c2.7,2.7,6.4,4.1,11,4.1
		c4.1,0,7.5-1,9.9-2.9c2.4-1.9,3.9-4.2,4.5-7l-10-0.7c-0.4,2.3-1.8,3.4-4.1,3.4c-1.6,0-2.7-0.4-3.3-1.3c-0.6-0.9-0.9-2.2-1-3.9h18.3
		c0.1-0.7,0.1-1.2,0.1-1.6c0-4.6-1.4-8.3-4.1-10.9C101.5,302.4,97.9,301.1,93.6,301.1z M89.9,312.2c0-3.2,1.3-4.7,3.8-4.7
		c1.1,0,2,0.3,2.7,1c0.7,0.7,1.1,1.9,1.1,3.8H89.9z"/>
	<path class="st0" d="M153.3,283.4c-1.3,1-2,2.1-2,3.5c0,1.1,0.4,2,1.2,2.9c0.8,0.8,2,1.3,3.6,1.3c2,0,3.4-0.8,4.4-2.3
		c0,0.7,0.1,1.4,0.2,2h5.1c-0.3-0.8-0.4-1.7-0.4-2.7v-5.5c0-1.5-0.1-2.6-0.2-3c-0.2-0.5-0.6-1-1.1-1.5c-0.5-0.5-1.3-0.8-2.1-1
		c-0.9-0.2-1.9-0.4-3-0.4c-4.1,0-6.4,1.4-7.1,4.3l4.9,0.5c0.1-1,0.8-1.5,2-1.5c0.5,0,1,0.1,1.2,0.3c0.3,0.2,0.4,0.6,0.4,1.2v0.3
		C156.9,282,154.6,282.5,153.3,283.4z M160.2,285c0,1.1-0.2,1.9-0.6,2.3c-0.4,0.3-0.9,0.5-1.4,0.5c-0.9,0-1.4-0.4-1.4-1.3
		c0-1.2,1.1-1.9,3.4-2.2V285z"/>
	<rect x="143.9" y="277" class="st0" width="5.3" height="13.8"/>
	<path class="st0" d="M87.7,289c1.4-1.4,2-3.1,2-5.2c0-2-0.7-3.7-2-5.1c-1.4-1.4-3.2-2-5.4-2c-2.3,0-4.1,0.7-5.4,2.1
		c-1.4,1.4-2.1,3-2.1,5.1c0,1.9,0.7,3.6,2,5c1.3,1.4,3.1,2.1,5.4,2.1C84.5,291.1,86.3,290.4,87.7,289z M80.5,283.9
		c0-1.4,0.1-2.3,0.4-2.9c0.2-0.5,0.7-0.8,1.3-0.8c0.7,0,1.1,0.2,1.4,0.8c0.2,0.6,0.4,1.5,0.4,2.8c0,1-0.1,1.8-0.3,2.7
		c-0.1,0.8-0.7,1.3-1.5,1.3c-0.6,0-1-0.2-1.3-0.7C80.7,286.5,80.5,285.4,80.5,283.9z"/>
	<path class="st0" d="M63.9,318.2c0,1.3-0.3,2.2-0.8,2.8c-0.6,0.7-1.3,1-2.3,1c-0.8,0-1.4-0.2-1.7-0.7c-0.3-0.5-0.4-1.2-0.4-2.3
		v-17.4H47.9v19.8c0,2.7,0.7,4.8,2.1,6.3c1.4,1.4,3.5,2.2,6,2.2c4.2,0,7-1.7,8.5-5.1v4.5h9.9v-27.7H63.9V318.2z"/>
	<rect x="143.9" y="271.7" class="st0" width="5.3" height="4.3"/>
	<path class="st0" d="M33.1,302.2c2.9-0.8,5-2.2,6.4-4.3c1.4-2.1,2.1-4.4,2.1-7c0-3.6-1.3-6.7-3.7-9.5c-2.5-2.7-6.4-4.2-11.9-4.2H0
		v52.1h24.5c7.7,0,12.7-1.5,15-4.5c2.3-3,3.5-6.5,3.5-10.4C43.1,307.9,39.7,303.9,33.1,302.2z M14.6,288.4h7c3.5,0,5.3,1.5,5.3,4.4
		c0,1.1-0.4,2.1-1.1,3c-0.8,1-2,1.4-3.9,1.4h-7.3V288.4z M26.5,316.3c-0.9,1-2.3,1.4-4.2,1.4h-7.6v-9.4h7.1c2.3,0,3.9,0.5,4.8,1.5
		c0.9,1,1.3,2.1,1.3,3.3C27.8,314.3,27.3,315.3,26.5,316.3z"/>
	<path class="st0" d="M65.1,277v13.8h5.1v-6.3c0-2,0.9-3,2.6-3c0.3,0,0.7,0.1,1,0.2v-4.8c-0.3,0-0.6-0.1-0.8-0.1
		c-1.9,0-3,1.1-3.5,3.1V277H65.1z"/>
	<path class="st0" d="M53.3,284h3.2c2,0,3.7-0.5,4.9-1.6c1.2-1.1,1.8-2.5,1.8-4.3c0-1.1-0.3-2.2-0.9-3.1c-0.6-1-1.4-1.6-2.4-2.1
		c-1-0.5-2.5-0.7-4.4-0.7h-7.8v18.5h5.7V284z M53.3,276.5h2.1c1.5,0,2.3,0.6,2.3,1.7c0,1.3-0.8,1.8-2.5,1.8h-1.9V276.5z"/>
</g>
<g>
</g>
<g>
</g>
<g>
</g>
<g>
</g>
<g>
</g>
<g>
</g>
</svg>
