<?xml version="1.0" encoding="utf-8"?>
<!-- Generator: Adobe Illustrator 22.0.0, SVG Export Plug-In . SVG Version: 6.00 Build 0)  -->
<svg version="1.1" id="Capa_1" xmlns="http://www.w3.org/2000/svg" xmlns:xlink="http://www.w3.org/1999/xlink" x="0px" y="0px"
	 viewBox="0 0 545.8 144.1" style="enable-background:new 0 0 545.8 144.1;" xml:space="preserve">
<style type="text/css">
	.st0{fill:#282E51;}
	.st1{fill:#673721;}
	.st2{fill:#D69733;}
</style>
<g>
	<g>
		<path d="M443.2,32.2c0,0.4,0,0.9-0.1,1.5c-0.1,0.5-0.2,1.1-0.4,1.7c-0.2,0.6-0.4,1.1-0.7,1.6c-0.3,0.5-0.6,1-1,1.4
			c-0.4,0.4-0.9,0.7-1.4,1c-0.5,0.3-1.1,0.4-1.8,0.4c-0.3,0-0.6,0-0.9-0.1c-0.3-0.1-0.5-0.2-0.8-0.3c-0.2-0.1-0.5-0.3-0.6-0.4
			c-0.2-0.2-0.4-0.4-0.5-0.5l-1,4.9c0,0.1,0,0.1-0.1,0.2c0,0-0.1,0.1-0.2,0.1c-0.1,0-0.2,0.1-0.3,0.1c-0.1,0-0.3,0-0.5,0
			c-0.2,0-0.3,0-0.4,0c-0.1,0-0.2,0-0.3-0.1c-0.1,0-0.1-0.1-0.1-0.1c0,0,0-0.1,0-0.2L435,29c0-0.1,0.1-0.2,0.2-0.3
			c0.1-0.1,0.4-0.1,0.7-0.1c0.2,0,0.3,0,0.4,0c0.1,0,0.2,0,0.2,0c0.1,0,0.1,0.1,0.1,0.1c0,0.1,0,0.1,0,0.2l-0.4,1.9
			c0.1-0.2,0.3-0.5,0.5-0.8c0.2-0.3,0.6-0.5,0.9-0.8c0.3-0.2,0.7-0.4,1.2-0.6c0.4-0.2,0.9-0.2,1.3-0.2c0.6,0,1.1,0.1,1.4,0.3
			c0.4,0.2,0.7,0.5,0.9,0.8c0.2,0.3,0.4,0.7,0.5,1.2C443.2,31.2,443.2,31.6,443.2,32.2L443.2,32.2z M441.3,32.3c0-0.3,0-0.6-0.1-0.9
			c-0.1-0.3-0.2-0.5-0.3-0.7c-0.1-0.2-0.3-0.3-0.5-0.5c-0.2-0.1-0.5-0.2-0.7-0.2c-0.4,0-0.8,0.1-1.2,0.3c-0.4,0.2-0.8,0.5-1.2,0.9
			c-0.4,0.4-0.7,0.9-1,1.4c-0.3,0.6-0.5,1.2-0.6,1.8l-0.4,1.9c0.4,0.5,0.7,0.9,1.1,1.2c0.4,0.3,0.9,0.4,1.4,0.4
			c0.4,0,0.8-0.1,1.1-0.3c0.3-0.2,0.6-0.4,0.9-0.8c0.2-0.3,0.5-0.7,0.6-1.1c0.2-0.4,0.3-0.8,0.5-1.2c0.1-0.4,0.2-0.8,0.3-1.3
			C441.3,33,441.3,32.6,441.3,32.3L441.3,32.3z M452.6,29c0,0,0,0.1,0,0.2c0,0.1,0,0.2,0,0.3c0,0.1,0,0.2-0.1,0.3
			c0,0.1-0.1,0.2-0.1,0.3c0,0.1-0.1,0.2-0.1,0.3c-0.1,0.1-0.1,0.1-0.2,0.1c-0.1,0-0.1,0-0.2,0c-0.1,0-0.2-0.1-0.2-0.1
			c-0.1,0-0.2-0.1-0.3-0.1c-0.1,0-0.2,0-0.4,0c-0.3,0-0.5,0.1-0.9,0.3c-0.3,0.2-0.7,0.5-1,0.9c-0.3,0.4-0.6,0.9-0.9,1.4
			c-0.3,0.5-0.5,1.1-0.6,1.7l-0.9,4.5c0,0.1,0,0.1-0.1,0.1c0,0-0.1,0.1-0.2,0.1c-0.1,0-0.2,0.1-0.3,0.1c-0.1,0-0.3,0-0.5,0
			c-0.2,0-0.3,0-0.5,0c-0.1,0-0.2,0-0.3-0.1c-0.1,0-0.1-0.1-0.1-0.1c0,0,0-0.1,0-0.1l2-10.2c0,0,0-0.1,0.1-0.1c0,0,0.1-0.1,0.2-0.1
			c0.1,0,0.2,0,0.3-0.1c0.1,0,0.2,0,0.4,0c0.2,0,0.3,0,0.4,0c0.1,0,0.2,0,0.2,0.1c0,0,0.1,0.1,0.1,0.1c0,0,0,0.1,0,0.1l-0.4,1.9
			c0.2-0.3,0.4-0.6,0.6-0.9c0.2-0.3,0.5-0.5,0.8-0.8c0.3-0.2,0.6-0.4,0.9-0.5c0.3-0.1,0.6-0.2,0.9-0.2c0.1,0,0.3,0,0.4,0
			c0.1,0,0.3,0,0.4,0.1c0.1,0,0.2,0.1,0.3,0.1c0.1,0,0.2,0.1,0.2,0.1C452.6,28.8,452.6,28.9,452.6,29L452.6,29z M463.1,32.3
			c0,0.6,0,1.1-0.2,1.7c-0.1,0.6-0.3,1.1-0.5,1.7c-0.2,0.5-0.5,1-0.8,1.5c-0.3,0.5-0.7,0.9-1.2,1.3c-0.4,0.4-1,0.6-1.5,0.8
			c-0.6,0.2-1.2,0.3-1.9,0.3c-0.7,0-1.3-0.1-1.9-0.3c-0.5-0.2-0.9-0.4-1.3-0.8c-0.3-0.3-0.6-0.7-0.7-1.2c-0.2-0.5-0.2-1-0.2-1.7
			c0-0.5,0.1-1.1,0.2-1.7c0.1-0.6,0.3-1.1,0.5-1.7c0.2-0.5,0.5-1,0.8-1.5c0.3-0.5,0.7-0.9,1.2-1.3c0.4-0.4,1-0.6,1.5-0.8
			c0.6-0.2,1.2-0.3,1.9-0.3c0.7,0,1.3,0.1,1.9,0.3c0.5,0.2,0.9,0.4,1.3,0.8c0.3,0.3,0.6,0.7,0.7,1.2C463,31.2,463.1,31.7,463.1,32.3
			L463.1,32.3z M461.1,32.5c0-0.4,0-0.7-0.1-1c-0.1-0.3-0.2-0.6-0.4-0.8c-0.2-0.2-0.4-0.4-0.7-0.5c-0.3-0.1-0.7-0.2-1.1-0.2
			c-0.5,0-0.9,0.1-1.2,0.2c-0.4,0.2-0.7,0.4-1,0.7c-0.3,0.3-0.5,0.6-0.8,1c-0.2,0.4-0.4,0.8-0.5,1.2c-0.1,0.4-0.2,0.8-0.3,1.3
			c-0.1,0.4-0.1,0.9-0.1,1.3c0,0.4,0,0.7,0.1,1c0.1,0.3,0.2,0.6,0.4,0.8c0.2,0.2,0.4,0.4,0.7,0.5c0.3,0.1,0.7,0.2,1.1,0.2
			c0.5,0,0.9-0.1,1.2-0.2c0.4-0.2,0.7-0.4,1-0.7c0.3-0.3,0.5-0.6,0.8-1c0.2-0.4,0.4-0.8,0.5-1.2c0.1-0.4,0.2-0.9,0.3-1.3
			C461.1,33.3,461.1,32.9,461.1,32.5L461.1,32.5z M474.4,28.9c0,0.1,0,0.2,0,0.2c0,0.1-0.1,0.2-0.1,0.2c-0.3,0.8-0.6,1.7-0.9,2.5
			c-0.3,0.8-0.7,1.7-1.2,2.5c-0.4,0.8-0.9,1.6-1.4,2.4c-0.5,0.8-1.1,1.6-1.7,2.3c-0.1,0.1-0.1,0.1-0.2,0.2c-0.1,0-0.1,0.1-0.2,0.1
			c-0.1,0-0.2,0-0.3,0.1c-0.1,0-0.3,0-0.4,0c-0.2,0-0.4,0-0.6,0c-0.1,0-0.3,0-0.3-0.1c-0.1,0-0.1-0.1-0.2-0.1c0,0-0.1-0.1-0.1-0.2
			l-1.5-9.6c0-0.1,0-0.2,0-0.2c0-0.1,0-0.1,0-0.2c0-0.1,0-0.2,0.1-0.2c0,0,0.1-0.1,0.1-0.1c0.1,0,0.2,0,0.3-0.1c0.1,0,0.3,0,0.5,0
			c0.2,0,0.4,0,0.5,0c0.1,0,0.2,0,0.3,0c0.1,0,0.1,0.1,0.1,0.1c0,0,0,0.1,0,0.2l1.2,8.4v0.1l0.1-0.1c0.4-0.7,0.8-1.3,1.2-1.9
			c0.4-0.6,0.7-1.3,1-1.9c0.3-0.7,0.6-1.4,0.9-2.1c0.3-0.7,0.6-1.6,0.9-2.4c0-0.1,0-0.1,0.1-0.2c0,0,0.1-0.1,0.2-0.1
			c0.1,0,0.2,0,0.3,0c0.1,0,0.3,0,0.5,0c0.2,0,0.3,0,0.4,0c0.1,0,0.2,0,0.3,0c0.1,0,0.1,0,0.1,0.1C474.3,28.8,474.4,28.8,474.4,28.9
			L474.4,28.9z M479.7,25.5c0,0.2-0.1,0.4-0.2,0.5c-0.1,0.1-0.1,0.3-0.3,0.4c-0.1,0.1-0.2,0.1-0.4,0.2c-0.2,0-0.4,0.1-0.6,0.1
			c-0.2,0-0.4,0-0.5-0.1c-0.1,0-0.2-0.1-0.3-0.2c-0.1-0.1-0.1-0.2-0.1-0.4c0-0.1,0-0.3,0-0.5c0-0.2,0.1-0.4,0.2-0.5
			c0.1-0.1,0.2-0.3,0.3-0.3c0.1-0.1,0.2-0.2,0.4-0.2c0.2,0,0.4,0,0.6,0c0.2,0,0.4,0,0.5,0c0.1,0,0.3,0.1,0.3,0.2
			c0.1,0.1,0.1,0.2,0.1,0.3C479.7,25.2,479.7,25.3,479.7,25.5L479.7,25.5z M476.7,39.2c0,0.1,0,0.1-0.1,0.1c0,0-0.1,0.1-0.2,0.1
			c-0.1,0-0.2,0.1-0.3,0.1c-0.1,0-0.3,0-0.5,0c-0.2,0-0.3,0-0.5,0c-0.1,0-0.2,0-0.3-0.1c-0.1,0-0.1-0.1-0.1-0.1c0,0,0-0.1,0-0.1
			l2-10.2c0-0.1,0-0.1,0.1-0.2c0,0,0.1-0.1,0.2-0.1c0.1,0,0.2-0.1,0.3-0.1c0.1,0,0.3,0,0.5,0c0.2,0,0.3,0,0.4,0c0.1,0,0.2,0,0.3,0.1
			c0.1,0,0.1,0.1,0.1,0.1c0,0,0,0.1,0,0.2L476.7,39.2L476.7,39.2z M490.1,31.2c0,0.3,0,0.5,0,0.8c0,0.3-0.1,0.5-0.1,0.8l-1.3,6.4
			c0,0.1,0,0.1-0.1,0.1c0,0-0.1,0.1-0.2,0.1c-0.1,0-0.2,0.1-0.3,0.1c-0.1,0-0.3,0-0.5,0c-0.2,0-0.3,0-0.5,0c-0.1,0-0.2,0-0.3-0.1
			c-0.1,0-0.1-0.1-0.1-0.1c0,0,0-0.1,0-0.1l1.2-6.3c0.1-0.2,0.1-0.5,0.1-0.7c0-0.2,0-0.4,0-0.6c0-0.5-0.1-0.8-0.3-1.1
			c-0.2-0.3-0.5-0.4-1-0.4c-0.4,0-0.8,0.1-1.2,0.3c-0.4,0.2-0.8,0.5-1.2,1c-0.4,0.4-0.7,0.9-1,1.4c-0.3,0.6-0.5,1.2-0.6,1.8
			l-0.9,4.5c0,0.1,0,0.1-0.1,0.1c0,0-0.1,0.1-0.2,0.1c-0.1,0-0.2,0.1-0.3,0.1c-0.1,0-0.3,0-0.5,0c-0.2,0-0.3,0-0.5,0
			c-0.1,0-0.2,0-0.3-0.1c-0.1,0-0.1-0.1-0.1-0.1c0,0,0-0.1,0-0.1l2-10.2c0,0,0-0.1,0.1-0.1c0,0,0.1-0.1,0.2-0.1c0.1,0,0.2,0,0.3-0.1
			c0.1,0,0.2,0,0.4,0c0.2,0,0.3,0,0.4,0c0.1,0,0.2,0,0.2,0.1c0.1,0,0.1,0.1,0.1,0.1c0,0,0,0.1,0,0.1l-0.4,1.9
			c0.1-0.2,0.3-0.5,0.5-0.8c0.3-0.3,0.6-0.5,0.9-0.8c0.4-0.2,0.7-0.4,1.2-0.6c0.4-0.2,0.9-0.2,1.3-0.2c0.5,0,0.9,0.1,1.3,0.2
			c0.3,0.2,0.6,0.4,0.8,0.6c0.2,0.3,0.4,0.6,0.5,0.9C490.1,30.5,490.1,30.9,490.1,31.2L490.1,31.2z M501,29.9c0,0.1,0,0.3-0.1,0.4
			c0,0.1-0.1,0.3-0.1,0.4c0,0.1-0.1,0.2-0.2,0.3c-0.1,0.1-0.2,0.1-0.2,0.1c-0.1,0-0.2-0.1-0.3-0.2c-0.1-0.1-0.3-0.2-0.4-0.4
			c-0.2-0.1-0.4-0.3-0.7-0.4c-0.3-0.1-0.6-0.2-1.1-0.2c-0.5,0-0.9,0.1-1.3,0.3c-0.4,0.2-0.7,0.5-1,0.8c-0.3,0.3-0.5,0.7-0.7,1.1
			c-0.2,0.4-0.3,0.8-0.4,1.2c-0.1,0.4-0.2,0.8-0.2,1.2c0,0.4-0.1,0.7-0.1,1c0,0.8,0.2,1.4,0.5,1.8c0.3,0.4,0.8,0.6,1.5,0.6
			c0.5,0,0.9-0.1,1.3-0.2c0.4-0.1,0.7-0.3,0.9-0.4c0.3-0.2,0.5-0.3,0.6-0.4c0.2-0.1,0.3-0.2,0.4-0.2c0.1,0,0.1,0,0.1,0.1
			c0,0.1,0.1,0.1,0.1,0.2c0,0.1,0,0.2,0,0.3c0,0.1,0,0.3-0.1,0.4c0,0.1-0.1,0.3-0.1,0.4c-0.1,0.1-0.1,0.2-0.2,0.3
			c-0.1,0.1-0.3,0.2-0.5,0.3c-0.2,0.1-0.5,0.3-0.8,0.4c-0.3,0.1-0.6,0.2-1,0.3c-0.3,0.1-0.7,0.1-1.1,0.1c-1.2,0-2.1-0.3-2.7-0.9
			c-0.6-0.6-0.9-1.5-0.9-2.8c0-0.5,0-1,0.1-1.5c0.1-0.5,0.2-1.1,0.4-1.6c0.2-0.5,0.4-1.1,0.7-1.6c0.3-0.5,0.7-1,1.1-1.4
			c0.4-0.4,0.9-0.7,1.5-1c0.6-0.2,1.2-0.4,1.9-0.4c0.3,0,0.6,0,0.9,0.1c0.3,0,0.5,0.1,0.8,0.2c0.2,0.1,0.5,0.2,0.7,0.3
			c0.2,0.1,0.4,0.2,0.5,0.3c0.1,0.1,0.2,0.2,0.2,0.3C501,29.7,501,29.8,501,29.9L501,29.9z M506.5,25.5c0,0.2-0.1,0.4-0.2,0.5
			c-0.1,0.1-0.1,0.3-0.3,0.4c-0.1,0.1-0.2,0.1-0.4,0.2c-0.2,0-0.3,0.1-0.6,0.1c-0.2,0-0.4,0-0.5-0.1c-0.1,0-0.2-0.1-0.3-0.2
			c-0.1-0.1-0.1-0.2-0.1-0.4c0-0.1,0-0.3,0.1-0.5c0-0.2,0.1-0.4,0.2-0.5c0.1-0.1,0.2-0.3,0.3-0.3c0.1-0.1,0.2-0.2,0.4-0.2
			c0.2,0,0.4,0,0.6,0c0.2,0,0.4,0,0.5,0c0.1,0,0.2,0.1,0.3,0.2c0.1,0.1,0.1,0.2,0.1,0.3C506.6,25.2,506.6,25.3,506.5,25.5
			L506.5,25.5z M503.6,39.2c0,0.1,0,0.1-0.1,0.1c0,0-0.1,0.1-0.2,0.1c-0.1,0-0.2,0.1-0.3,0.1c-0.1,0-0.3,0-0.5,0c-0.2,0-0.3,0-0.5,0
			c-0.1,0-0.2,0-0.3-0.1c-0.1,0-0.1-0.1-0.1-0.1c0,0,0-0.1,0-0.1l2-10.2c0-0.1,0-0.1,0.1-0.2c0,0,0.1-0.1,0.2-0.1
			c0.1,0,0.2-0.1,0.3-0.1c0.1,0,0.3,0,0.5,0c0.2,0,0.3,0,0.4,0c0.1,0,0.2,0,0.3,0.1c0.1,0,0.1,0.1,0.1,0.1c0,0,0,0.1,0,0.2
			L503.6,39.2L503.6,39.2z M515.5,39.2c0,0.1-0.1,0.2-0.2,0.3c-0.1,0.1-0.4,0.1-0.7,0.1c-0.2,0-0.3,0-0.4,0c-0.1,0-0.2,0-0.2-0.1
			c-0.1,0-0.1-0.1-0.1-0.1c0,0,0-0.1,0-0.2l0.4-1.9c-0.1,0.2-0.3,0.5-0.5,0.8c-0.3,0.3-0.6,0.5-0.9,0.8c-0.3,0.2-0.7,0.4-1.2,0.6
			c-0.4,0.2-0.9,0.2-1.3,0.2c-0.6,0-1.1-0.1-1.5-0.3c-0.4-0.2-0.7-0.5-0.9-0.8c-0.2-0.3-0.4-0.7-0.5-1.2c-0.1-0.4-0.1-0.9-0.1-1.3
			c0-0.4,0-0.9,0.1-1.4c0.1-0.5,0.2-1.1,0.4-1.6c0.2-0.6,0.4-1.1,0.7-1.6c0.3-0.5,0.6-1,1-1.4c0.4-0.4,0.9-0.7,1.4-1
			c0.5-0.2,1.1-0.4,1.8-0.4c0.7,0,1.2,0.1,1.7,0.4c0.5,0.3,0.9,0.6,1.3,1.1l0.2-1c0-0.1,0.1-0.2,0.3-0.3c0.1-0.1,0.4-0.1,0.7-0.1
			c0.2,0,0.3,0,0.4,0c0.1,0,0.2,0,0.3,0.1c0.1,0,0.1,0.1,0.1,0.1c0,0,0,0.1,0,0.1L515.5,39.2L515.5,39.2z M515.1,31.6
			c-0.4-0.5-0.7-0.9-1.1-1.2c-0.4-0.3-0.9-0.4-1.4-0.4c-0.4,0-0.8,0.1-1.1,0.3c-0.3,0.2-0.6,0.4-0.9,0.8c-0.3,0.3-0.5,0.7-0.7,1.1
			c-0.2,0.4-0.3,0.8-0.4,1.2c-0.1,0.4-0.2,0.9-0.3,1.3c-0.1,0.4-0.1,0.8-0.1,1.1c0,0.3,0,0.5,0.1,0.8c0,0.3,0.1,0.5,0.2,0.7
			c0.1,0.2,0.3,0.4,0.5,0.5c0.2,0.1,0.5,0.2,0.8,0.2c0.4,0,0.8-0.1,1.2-0.3c0.4-0.2,0.8-0.5,1.2-1c0.4-0.4,0.7-0.9,1-1.4
			c0.3-0.5,0.5-1.2,0.6-1.8L515.1,31.6L515.1,31.6z M532.6,39.2c0,0.1-0.1,0.2-0.2,0.3c-0.1,0.1-0.4,0.1-0.7,0.1c-0.2,0-0.3,0-0.4,0
			c-0.1,0-0.2,0-0.2-0.1c-0.1,0-0.1-0.1-0.1-0.1c0,0,0-0.1,0-0.2l0.4-1.9c-0.1,0.3-0.3,0.5-0.5,0.8c-0.3,0.3-0.6,0.5-0.9,0.8
			c-0.4,0.2-0.7,0.4-1.2,0.6c-0.4,0.2-0.9,0.2-1.3,0.2c-0.4,0-0.8,0-1.2-0.2c-0.3-0.1-0.6-0.3-0.8-0.5c-0.2-0.2-0.4-0.4-0.5-0.7
			c-0.1-0.3-0.3-0.5-0.3-0.8c-0.1-0.3-0.1-0.5-0.2-0.8c0-0.3,0-0.5,0-0.8c0-0.4,0-0.9,0.1-1.5c0.1-0.5,0.2-1.1,0.4-1.6
			c0.2-0.6,0.4-1.1,0.7-1.6c0.3-0.5,0.6-1,1-1.4c0.4-0.4,0.9-0.7,1.4-1c0.5-0.3,1.1-0.4,1.8-0.4c0.3,0,0.6,0,0.9,0.1
			c0.3,0.1,0.5,0.2,0.8,0.3c0.2,0.1,0.5,0.3,0.6,0.5c0.2,0.2,0.4,0.3,0.5,0.5l1.2-5.8c0,0,0-0.1,0.1-0.1c0,0,0.1-0.1,0.2-0.1
			c0.1,0,0.2,0,0.3-0.1c0.1,0,0.3,0,0.5,0c0.2,0,0.3,0,0.4,0c0.1,0,0.2,0,0.3,0.1c0.1,0,0.1,0.1,0.1,0.1c0,0,0,0.1,0,0.1L532.6,39.2
			L532.6,39.2z M532.3,31.7c-0.3-0.5-0.7-0.9-1.1-1.2c-0.4-0.3-0.9-0.4-1.4-0.4c-0.4,0-0.8,0.1-1.1,0.3c-0.3,0.2-0.6,0.4-0.9,0.7
			c-0.3,0.3-0.5,0.7-0.7,1.1c-0.2,0.4-0.3,0.8-0.4,1.2c-0.1,0.4-0.2,0.8-0.3,1.3c-0.1,0.4-0.1,0.8-0.1,1.1c0,0.7,0.1,1.3,0.4,1.7
			c0.2,0.4,0.6,0.6,1.2,0.6c0.4,0,0.8-0.1,1.2-0.3c0.4-0.2,0.8-0.5,1.2-0.9c0.4-0.4,0.7-0.9,1-1.4c0.3-0.6,0.5-1.1,0.6-1.8
			L532.3,31.7L532.3,31.7z M545.8,31.1c0,0.5-0.1,1-0.4,1.4c-0.2,0.4-0.6,0.8-1.1,1.1c-0.5,0.3-1.2,0.5-2,0.7
			c-0.8,0.1-1.8,0.2-2.9,0.2h-1.2c-0.1,0.3-0.1,0.5-0.1,0.7c0,0.2,0,0.5,0,0.6c0,0.8,0.2,1.3,0.6,1.7c0.4,0.4,1,0.6,1.8,0.6
			c0.5,0,0.9,0,1.3-0.1c0.4-0.1,0.7-0.1,1-0.2c0.3-0.1,0.5-0.2,0.7-0.2c0.2-0.1,0.3-0.1,0.4-0.1c0.1,0,0.1,0,0.2,0.1
			c0,0,0.1,0.1,0.1,0.2c0,0.1,0,0.2,0,0.3c0,0.1,0,0.2-0.1,0.3c0,0.1-0.1,0.2-0.1,0.3c-0.1,0.1-0.1,0.2-0.2,0.2
			c-0.1,0.1-0.2,0.2-0.5,0.3c-0.2,0.1-0.5,0.2-0.8,0.2c-0.3,0.1-0.7,0.1-1,0.2c-0.4,0-0.8,0.1-1.1,0.1c-0.7,0-1.3-0.1-1.8-0.2
			c-0.5-0.1-0.9-0.4-1.3-0.7c-0.3-0.3-0.6-0.7-0.8-1.2c-0.2-0.5-0.2-1-0.2-1.7c0-0.5,0-1,0.1-1.6c0.1-0.6,0.2-1.1,0.4-1.7
			c0.2-0.5,0.5-1.1,0.8-1.6c0.3-0.5,0.7-1,1.2-1.3c0.5-0.4,1-0.7,1.6-0.9c0.6-0.2,1.3-0.4,2-0.4c0.6,0,1.2,0.1,1.6,0.2
			c0.4,0.2,0.8,0.4,1.1,0.6c0.3,0.2,0.5,0.5,0.6,0.8C545.7,30.5,545.8,30.8,545.8,31.1L545.8,31.1z M543.9,31.2
			c0-0.4-0.2-0.7-0.5-0.9c-0.3-0.2-0.7-0.4-1.3-0.4c-0.5,0-0.9,0.1-1.3,0.3c-0.4,0.2-0.7,0.4-1,0.7c-0.3,0.3-0.5,0.6-0.8,1
			c-0.2,0.4-0.4,0.8-0.5,1.2h1.2c0.8,0,1.5,0,2-0.1c0.5-0.1,1-0.2,1.3-0.4c0.3-0.2,0.5-0.4,0.7-0.6
			C543.8,31.7,543.9,31.5,543.9,31.2L543.9,31.2z"/>
		<path d="M447.3,51.2c0,0.8-0.1,1.5-0.3,2.2c-0.2,0.7-0.5,1.3-0.9,1.9c-0.4,0.5-0.9,1-1.5,1.5c-0.6,0.4-1.2,0.8-1.9,1
			c0.6,0.1,1.1,0.3,1.6,0.6c0.5,0.2,0.9,0.6,1.2,1c0.4,0.4,0.6,0.9,0.8,1.4c0.2,0.5,0.3,1.2,0.3,1.9c0,0.6-0.1,1.3-0.3,1.9
			c-0.2,0.7-0.4,1.3-0.8,2c-0.4,0.7-0.8,1.2-1.4,1.8c-0.6,0.6-1.3,1.1-2.1,1.5c-0.8,0.4-1.8,0.8-2.8,1c-1.1,0.2-2.3,0.4-3.7,0.4h-7
			c-0.5,0-0.9-0.1-1.2-0.4c-0.2-0.3-0.3-0.7-0.2-1.2l4.4-21.9c0.1-0.6,0.3-1,0.7-1.2c0.4-0.3,0.8-0.4,1.2-0.4h6
			c1.3,0,2.5,0.1,3.5,0.3c1,0.2,1.8,0.5,2.5,1c0.7,0.4,1.1,0.9,1.5,1.6C447.1,49.6,447.3,50.4,447.3,51.2L447.3,51.2z M442,52.2
			c0-0.4-0.1-0.7-0.2-1c-0.1-0.3-0.3-0.5-0.6-0.7c-0.3-0.2-0.6-0.4-1-0.5c-0.4-0.1-0.9-0.2-1.5-0.2H436l-1.3,6.5h2.9
			c0.8,0,1.5-0.1,2.1-0.4c0.6-0.3,1-0.6,1.4-1c0.4-0.4,0.6-0.9,0.8-1.4C441.9,53.1,442,52.7,442,52.2L442,52.2z M441.2,62.9
			c0-0.8-0.3-1.5-0.9-2c-0.6-0.5-1.6-0.7-2.9-0.7h-3.4l-1.4,7.2h3.6c0.9,0,1.7-0.1,2.3-0.4c0.6-0.3,1.1-0.6,1.6-1
			c0.4-0.4,0.7-0.9,0.9-1.4C441.1,64,441.2,63.4,441.2,62.9L441.2,62.9z M464.9,70.6c0,0.1-0.1,0.3-0.2,0.3
			c-0.1,0.1-0.2,0.2-0.4,0.2c-0.2,0.1-0.4,0.1-0.7,0.1c-0.3,0-0.6,0-1,0c-0.4,0-0.7,0-1,0c-0.2,0-0.5-0.1-0.6-0.1
			c-0.2-0.1-0.2-0.1-0.3-0.2c0-0.1,0-0.2,0-0.3l0.5-2.8c-0.3,0.5-0.6,0.9-1.1,1.4c-0.5,0.5-1,0.9-1.6,1.3c-0.6,0.4-1.2,0.7-1.9,0.9
			c-0.7,0.2-1.4,0.3-2.1,0.3c-0.9,0-1.7-0.1-2.3-0.4c-0.6-0.3-1.1-0.6-1.5-1c-0.4-0.4-0.7-0.9-0.8-1.6c-0.2-0.6-0.3-1.3-0.3-2
			c0-0.4,0-0.9,0.1-1.3c0.1-0.4,0.1-0.9,0.2-1.4l2.1-10.8c0-0.1,0.1-0.2,0.2-0.3c0.1-0.1,0.2-0.2,0.4-0.2c0.2-0.1,0.5-0.1,0.8-0.1
			c0.3,0,0.7-0.1,1.2-0.1c0.5,0,0.9,0,1.2,0.1c0.3,0,0.5,0.1,0.7,0.1c0.2,0.1,0.3,0.1,0.3,0.2c0.1,0.1,0.1,0.2,0,0.3L455,63.6
			c-0.1,0.3-0.1,0.6-0.1,0.9c0,0.3,0,0.6,0,0.9c0,0.3,0,0.6,0.1,0.8c0.1,0.2,0.2,0.5,0.3,0.6c0.1,0.2,0.3,0.3,0.5,0.4
			c0.2,0.1,0.4,0.1,0.7,0.1c0.5,0,1.1-0.2,1.7-0.5c0.6-0.3,1.1-0.8,1.6-1.4c0.5-0.6,1-1.3,1.4-2.1c0.4-0.8,0.7-1.7,0.9-2.7l1.5-7.5
			c0-0.1,0.1-0.2,0.2-0.3c0.1-0.1,0.2-0.2,0.4-0.2c0.2-0.1,0.5-0.1,0.8-0.1c0.3,0,0.7-0.1,1.2-0.1c0.5,0,0.9,0,1.2,0.1
			c0.3,0,0.5,0.1,0.7,0.1c0.2,0.1,0.3,0.1,0.3,0.2c0,0.1,0,0.2,0,0.3L464.9,70.6L464.9,70.6z M487.9,57.1c0,0.9-0.2,1.8-0.6,2.5
			c-0.4,0.7-1.1,1.4-2,1.9c-0.9,0.5-2,0.9-3.4,1.2c-1.4,0.3-3,0.4-4.9,0.4h-1.8c-0.1,0.3-0.1,0.6-0.1,0.9c0,0.3-0.1,0.6-0.1,0.8
			c0,1,0.3,1.8,0.8,2.4c0.5,0.5,1.4,0.8,2.6,0.8c0.9,0,1.6-0.1,2.3-0.2c0.7-0.1,1.3-0.3,1.8-0.4c0.5-0.1,0.9-0.3,1.3-0.4
			c0.3-0.1,0.6-0.2,0.7-0.2c0.2,0,0.3,0.1,0.3,0.1c0.1,0.1,0.1,0.2,0.1,0.4c0,0.2,0,0.5-0.1,0.8c0,0.3-0.1,0.6-0.2,0.8
			c-0.1,0.3-0.2,0.5-0.3,0.8c-0.1,0.2-0.2,0.4-0.4,0.6c-0.2,0.2-0.4,0.3-0.9,0.5c-0.4,0.2-0.9,0.3-1.5,0.4c-0.6,0.1-1.2,0.2-2,0.3
			c-0.7,0.1-1.5,0.1-2.2,0.1c-1.2,0-2.3-0.1-3.3-0.4c-0.9-0.3-1.7-0.7-2.3-1.2c-0.6-0.5-1.1-1.2-1.4-2c-0.3-0.8-0.5-1.8-0.5-2.9
			c0-0.8,0.1-1.8,0.2-2.8c0.2-1,0.4-2,0.8-2.9c0.4-1,0.8-1.9,1.4-2.8c0.6-0.9,1.3-1.7,2.1-2.3c0.8-0.7,1.7-1.2,2.8-1.6
			c1.1-0.4,2.3-0.6,3.6-0.6c1.2,0,2.2,0.1,3,0.4c0.9,0.3,1.5,0.6,2.1,1.1c0.5,0.5,1,1,1.2,1.6C487.7,55.8,487.9,56.5,487.9,57.1
			L487.9,57.1z M483.1,57.4c0-0.5-0.2-0.9-0.6-1.3c-0.4-0.3-1-0.5-1.8-0.5c-0.6,0-1.2,0.1-1.7,0.3c-0.5,0.2-1,0.5-1.4,0.9
			c-0.4,0.4-0.7,0.9-1,1.4c-0.3,0.5-0.5,1.1-0.7,1.7h1.6c1,0,1.9-0.1,2.6-0.2c0.7-0.1,1.3-0.3,1.7-0.6c0.4-0.2,0.7-0.5,0.9-0.8
			C483,58.1,483.1,57.8,483.1,57.4L483.1,57.4z M508,57.1c0,0.5,0,0.9-0.1,1.4c-0.1,0.5-0.1,0.9-0.2,1.4l-2.2,10.7
			c0,0.1-0.1,0.3-0.2,0.4c-0.1,0.1-0.2,0.2-0.5,0.2c-0.2,0.1-0.5,0.1-0.8,0.1c-0.3,0-0.7,0-1.2,0c-0.5,0-0.9,0-1.2,0
			c-0.3,0-0.6-0.1-0.7-0.1c-0.2-0.1-0.3-0.2-0.3-0.2c-0.1-0.1-0.1-0.2-0.1-0.4l2.1-10.4c0.1-0.3,0.1-0.6,0.1-1c0-0.3,0-0.6,0-0.8
			c0-0.6-0.1-1.1-0.4-1.4c-0.2-0.4-0.7-0.6-1.2-0.6c-0.5,0-1.1,0.2-1.7,0.5c-0.6,0.3-1.1,0.8-1.6,1.4c-0.5,0.6-1,1.3-1.4,2
			c-0.4,0.7-0.7,1.6-0.9,2.4l-1.6,7.8c0,0.1-0.1,0.3-0.2,0.4c-0.1,0.1-0.3,0.2-0.5,0.2c-0.2,0.1-0.5,0.1-0.8,0.1c-0.3,0-0.7,0-1.2,0
			c-0.5,0-0.9,0-1.2,0c-0.3,0-0.5-0.1-0.7-0.1c-0.2-0.1-0.3-0.2-0.3-0.2c0-0.1-0.1-0.2,0-0.4l3.5-17.3c0-0.1,0.1-0.2,0.2-0.3
			c0.1-0.1,0.2-0.2,0.4-0.2c0.2-0.1,0.4-0.1,0.7-0.1c0.3,0,0.6-0.1,1-0.1c0.4,0,0.7,0,1,0.1c0.3,0,0.5,0.1,0.6,0.1
			c0.1,0.1,0.2,0.1,0.3,0.2c0,0.1,0.1,0.2,0,0.3l-0.6,2.9c0.3-0.5,0.6-0.9,1.1-1.4c0.5-0.5,1-0.9,1.6-1.3c0.6-0.4,1.2-0.7,1.9-0.9
			c0.7-0.2,1.4-0.3,2.2-0.3c0.9,0,1.7,0.1,2.3,0.4c0.6,0.3,1.1,0.6,1.5,1.1c0.4,0.4,0.7,1,0.8,1.6C507.9,55.8,508,56.5,508,57.1
			L508,57.1z M529.4,59.1c0,0.9-0.1,1.9-0.3,2.9c-0.2,1-0.5,1.9-0.8,2.9c-0.4,0.9-0.9,1.8-1.5,2.6c-0.6,0.8-1.3,1.5-2.1,2.2
			c-0.8,0.6-1.8,1.1-2.8,1.5c-1.1,0.4-2.3,0.5-3.6,0.5c-1.3,0-2.4-0.1-3.4-0.4c-1-0.3-1.7-0.8-2.4-1.3c-0.6-0.6-1.1-1.3-1.4-2.2
			c-0.3-0.9-0.5-1.9-0.5-3c0-0.9,0.1-1.9,0.3-2.9c0.2-1,0.4-1.9,0.8-2.9c0.4-0.9,0.9-1.8,1.4-2.7c0.6-0.8,1.3-1.6,2.1-2.2
			c0.8-0.6,1.8-1.1,2.8-1.5c1.1-0.4,2.3-0.5,3.6-0.5c1.3,0,2.4,0.1,3.4,0.4c0.9,0.3,1.7,0.7,2.4,1.3c0.6,0.6,1.1,1.3,1.4,2.2
			C529.3,57,529.4,58,529.4,59.1L529.4,59.1z M524.4,59.4c0-0.5,0-1-0.2-1.5c-0.1-0.4-0.3-0.8-0.5-1.1c-0.2-0.3-0.6-0.5-1-0.7
			c-0.4-0.2-0.9-0.3-1.5-0.3c-0.6,0-1.2,0.1-1.7,0.4c-0.5,0.2-1,0.6-1.4,1c-0.4,0.4-0.8,0.9-1.1,1.5c-0.3,0.6-0.5,1.2-0.7,1.8
			c-0.2,0.6-0.3,1.3-0.4,1.9c-0.1,0.6-0.1,1.2-0.1,1.8c0,0.6,0,1,0.2,1.5c0.1,0.4,0.3,0.8,0.5,1.1c0.3,0.3,0.6,0.5,1,0.7
			c0.4,0.2,0.9,0.2,1.4,0.2c0.6,0,1.2-0.1,1.8-0.4c0.5-0.3,1-0.6,1.4-1c0.4-0.4,0.8-0.9,1.1-1.5c0.3-0.6,0.5-1.1,0.7-1.8
			c0.2-0.6,0.3-1.3,0.4-1.9C524.3,60.6,524.4,60,524.4,59.4L524.4,59.4z M545.6,54c0,0.2,0,0.4-0.1,0.7c0,0.3-0.1,0.6-0.2,0.9
			c-0.1,0.3-0.2,0.6-0.3,0.8c-0.1,0.2-0.3,0.3-0.4,0.3c-0.2,0-0.4-0.1-0.6-0.2c-0.2-0.1-0.5-0.3-0.8-0.4c-0.3-0.1-0.7-0.3-1.1-0.4
			c-0.4-0.1-0.9-0.2-1.5-0.2c-0.5,0-0.9,0-1.2,0.2c-0.4,0.1-0.6,0.3-0.9,0.5c-0.2,0.2-0.4,0.5-0.5,0.7c-0.1,0.3-0.2,0.5-0.2,0.9
			c0,0.4,0.2,0.7,0.5,1c0.3,0.3,0.7,0.5,1.2,0.8c0.5,0.2,1,0.5,1.6,0.7c0.6,0.3,1.1,0.6,1.6,1c0.5,0.4,0.9,0.9,1.2,1.4
			c0.3,0.6,0.5,1.3,0.5,2.1c0,1-0.2,1.9-0.6,2.7c-0.4,0.8-0.9,1.6-1.6,2.2c-0.7,0.6-1.6,1.1-2.6,1.4c-1,0.3-2.2,0.5-3.5,0.5
			c-0.6,0-1.2,0-1.8-0.1c-0.6-0.1-1.1-0.2-1.5-0.3c-0.4-0.1-0.8-0.3-1.1-0.4c-0.3-0.2-0.5-0.3-0.7-0.5c-0.1-0.1-0.2-0.2-0.2-0.3
			c0-0.1-0.1-0.3-0.1-0.5c0-0.1,0-0.3,0-0.4c0-0.2,0.1-0.4,0.1-0.6c0-0.2,0.1-0.5,0.2-0.7c0.1-0.2,0.1-0.4,0.2-0.6
			c0.1-0.2,0.2-0.3,0.3-0.4c0.1-0.1,0.2-0.2,0.3-0.2c0.2,0,0.4,0.1,0.6,0.2c0.2,0.2,0.5,0.3,0.9,0.5c0.4,0.2,0.8,0.3,1.3,0.5
			c0.5,0.2,1.2,0.2,1.9,0.2c0.5,0,1,0,1.4-0.2c0.4-0.1,0.7-0.3,1-0.5c0.3-0.2,0.4-0.5,0.6-0.8c0.1-0.3,0.2-0.6,0.2-0.9
			c0-0.4-0.1-0.8-0.5-1.1c-0.3-0.3-0.7-0.6-1.2-0.8c-0.5-0.2-1-0.5-1.6-0.8c-0.6-0.3-1.1-0.6-1.6-1c-0.5-0.4-0.9-0.8-1.2-1.4
			c-0.3-0.6-0.5-1.3-0.5-2.1c0-0.9,0.2-1.8,0.5-2.6c0.4-0.8,0.9-1.5,1.5-2.1c0.7-0.6,1.5-1,2.4-1.4c1-0.3,2.1-0.5,3.3-0.5
			c0.5,0,1.1,0,1.6,0.1c0.5,0.1,1,0.2,1.4,0.3c0.4,0.1,0.8,0.3,1.1,0.4c0.3,0.1,0.5,0.3,0.7,0.4C545.5,53.5,545.6,53.7,545.6,54
			L545.6,54z M443.3,99.5c0.1,0.5,0.1,0.8,0.1,1.1c0,0.3-0.1,0.5-0.3,0.6c-0.2,0.2-0.5,0.2-0.9,0.3c-0.4,0-0.9,0-1.7,0
			c-0.5,0-0.9,0-1.2,0c-0.3,0-0.5,0-0.7-0.1c-0.2,0-0.3-0.1-0.4-0.2c-0.1-0.1-0.1-0.3-0.1-0.4l-0.7-5.1h-9.4l-2.6,4.9
			c-0.1,0.2-0.2,0.3-0.3,0.5c-0.1,0.1-0.3,0.2-0.5,0.3c-0.2,0.1-0.5,0.1-0.9,0.1c-0.4,0-0.8,0-1.4,0c-0.6,0-1.1,0-1.4-0.1
			c-0.3,0-0.6-0.1-0.7-0.3c-0.1-0.1-0.1-0.4,0-0.6c0.1-0.3,0.3-0.6,0.5-1.1L433,77.2c0.1-0.2,0.3-0.4,0.4-0.5
			c0.1-0.1,0.3-0.2,0.5-0.3c0.2-0.1,0.6-0.1,1-0.1c0.4,0,0.9,0,1.6,0c0.8,0,1.4,0,1.8,0c0.5,0,0.8,0.1,1,0.1
			c0.2,0.1,0.4,0.2,0.5,0.3c0.1,0.1,0.1,0.3,0.2,0.6L443.3,99.5L443.3,99.5z M435.7,81.1L435.7,81.1L430,91.8h7.1L435.7,81.1
			L435.7,81.1z M456.2,77.6c-0.1,0.5-0.2,0.9-0.4,1.2c-0.2,0.3-0.4,0.6-0.6,0.8c-0.3,0.2-0.6,0.4-1,0.4c-0.4,0.1-0.8,0.1-1.4,0.1
			c-0.6,0-1,0-1.3-0.1c-0.3-0.1-0.6-0.2-0.8-0.4c-0.2-0.2-0.3-0.5-0.3-0.8c0-0.3,0-0.7,0.1-1.2c0.1-0.5,0.2-0.9,0.4-1.2
			c0.2-0.3,0.4-0.6,0.6-0.8c0.3-0.2,0.6-0.4,1-0.4c0.4-0.1,0.8-0.1,1.4-0.1c0.5,0,1,0,1.3,0.1c0.3,0.1,0.6,0.2,0.8,0.4
			c0.2,0.2,0.3,0.5,0.3,0.8C456.3,76.8,456.3,77.2,456.2,77.6L456.2,77.6z M451.2,100.8c0,0.1-0.1,0.3-0.2,0.4
			c-0.1,0.1-0.2,0.2-0.5,0.2c-0.2,0.1-0.5,0.1-0.8,0.1c-0.3,0-0.7,0-1.2,0c-0.5,0-0.9,0-1.2,0c-0.3,0-0.5-0.1-0.7-0.1
			c-0.2-0.1-0.3-0.2-0.4-0.2c0-0.1-0.1-0.2,0-0.4l3.4-17.3c0-0.1,0.1-0.3,0.2-0.3c0.1-0.1,0.2-0.2,0.4-0.3c0.2-0.1,0.5-0.1,0.8-0.2
			c0.3-0.1,0.7-0.1,1.2-0.1c0.5,0,0.9,0,1.2,0.1c0.3,0,0.6,0.1,0.7,0.2c0.2,0.1,0.3,0.2,0.3,0.3c0.1,0.1,0.1,0.2,0,0.3L451.2,100.8
			L451.2,100.8z M470.5,83.2c0,0.1,0,0.3,0,0.5c0,0.2-0.1,0.5-0.1,0.8c0,0.3-0.1,0.6-0.2,1c-0.1,0.3-0.2,0.6-0.3,0.9
			c-0.1,0.3-0.2,0.5-0.3,0.7c-0.1,0.2-0.3,0.3-0.4,0.3c-0.1,0-0.2,0-0.3-0.1c-0.1,0-0.2-0.1-0.4-0.1c-0.1,0-0.3-0.1-0.5-0.1
			c-0.2-0.1-0.4-0.1-0.6-0.1c-0.4,0-0.9,0.2-1.4,0.5c-0.5,0.3-1,0.8-1.4,1.3c-0.5,0.6-0.9,1.2-1.2,1.9c-0.4,0.7-0.6,1.5-0.8,2.3
			l-1.6,7.8c0,0.1-0.1,0.3-0.2,0.4c-0.1,0.1-0.2,0.2-0.5,0.2c-0.2,0.1-0.5,0.1-0.8,0.1c-0.3,0-0.7,0-1.2,0c-0.5,0-0.9,0-1.2,0
			c-0.3,0-0.5-0.1-0.7-0.1c-0.2-0.1-0.3-0.2-0.3-0.2c-0.1-0.1-0.1-0.2,0-0.4l3.5-17.3c0-0.1,0.1-0.2,0.2-0.3
			c0.1-0.1,0.2-0.2,0.4-0.2c0.2-0.1,0.4-0.1,0.7-0.1c0.3,0,0.6-0.1,1-0.1c0.4,0,0.7,0,1,0.1c0.3,0,0.4,0.1,0.6,0.1
			c0.1,0.1,0.2,0.1,0.3,0.2c0,0.1,0.1,0.2,0,0.3l-0.5,2.8c0.3-0.6,0.7-1.1,1.1-1.5c0.4-0.4,0.8-0.9,1.3-1.2c0.5-0.3,0.9-0.6,1.4-0.8
			c0.5-0.2,1-0.3,1.5-0.3c0.2,0,0.4,0,0.6,0c0.2,0,0.4,0,0.6,0.1c0.2,0,0.3,0.1,0.5,0.1c0.1,0,0.3,0.1,0.3,0.2
			C470.4,82.9,470.5,83,470.5,83.2L470.5,83.2z M488.1,87.2c0,0.9-0.2,1.8-0.6,2.5c-0.4,0.7-1.1,1.4-2,1.9c-0.9,0.5-2,0.9-3.4,1.2
			c-1.4,0.3-3,0.4-4.9,0.4h-1.8c0,0.3-0.1,0.6-0.1,0.9c0,0.3,0,0.6,0,0.8c0,1,0.3,1.8,0.8,2.4c0.6,0.5,1.4,0.8,2.6,0.8
			c0.9,0,1.6-0.1,2.3-0.2c0.7-0.1,1.3-0.3,1.8-0.4c0.5-0.1,0.9-0.3,1.3-0.4c0.3-0.1,0.6-0.2,0.7-0.2c0.2,0,0.3,0.1,0.3,0.1
			c0.1,0.1,0.1,0.2,0.1,0.4c0,0.2,0,0.5,0,0.8c0,0.3-0.1,0.6-0.2,0.8c-0.1,0.3-0.2,0.5-0.3,0.8c-0.1,0.2-0.2,0.4-0.4,0.6
			c-0.2,0.2-0.4,0.3-0.9,0.5c-0.4,0.2-0.9,0.3-1.5,0.4c-0.6,0.1-1.2,0.2-2,0.3c-0.7,0.1-1.5,0.1-2.2,0.1c-1.2,0-2.3-0.1-3.3-0.4
			c-0.9-0.3-1.7-0.7-2.3-1.2c-0.6-0.5-1.1-1.2-1.4-2c-0.3-0.8-0.5-1.8-0.5-2.9c0-0.8,0.1-1.8,0.2-2.8c0.2-1,0.4-2,0.8-2.9
			c0.4-1,0.8-1.9,1.4-2.8c0.6-0.9,1.3-1.7,2.1-2.3c0.8-0.7,1.7-1.2,2.8-1.6c1.1-0.4,2.3-0.6,3.6-0.6c1.2,0,2.2,0.1,3,0.4
			c0.9,0.3,1.5,0.6,2.1,1.1c0.5,0.5,0.9,1,1.2,1.6C488,86,488.1,86.6,488.1,87.2L488.1,87.2z M483.3,87.6c0-0.5-0.2-0.9-0.6-1.3
			c-0.4-0.3-1-0.5-1.8-0.5c-0.7,0-1.2,0.1-1.7,0.3c-0.5,0.2-1,0.5-1.4,0.9c-0.4,0.4-0.7,0.9-1,1.4c-0.3,0.5-0.5,1.1-0.7,1.7h1.6
			c1,0,1.9-0.1,2.6-0.2c0.7-0.1,1.3-0.3,1.7-0.6c0.4-0.2,0.7-0.5,0.9-0.8C483.2,88.3,483.3,88,483.3,87.6L483.3,87.6z M503.9,84.2
			c0,0.2,0,0.4-0.1,0.7c0,0.3-0.1,0.6-0.2,0.9c-0.1,0.3-0.2,0.6-0.3,0.8c-0.1,0.2-0.3,0.3-0.4,0.3c-0.2,0-0.4-0.1-0.6-0.2
			c-0.2-0.1-0.5-0.3-0.8-0.4c-0.3-0.1-0.7-0.3-1.1-0.4c-0.4-0.1-0.9-0.2-1.5-0.2c-0.5,0-0.9,0-1.2,0.2c-0.4,0.1-0.6,0.3-0.9,0.5
			c-0.2,0.2-0.4,0.5-0.5,0.7c-0.1,0.3-0.2,0.5-0.2,0.9c0,0.4,0.2,0.7,0.5,1c0.3,0.3,0.7,0.5,1.2,0.8c0.5,0.2,1,0.5,1.6,0.7
			c0.6,0.3,1.1,0.6,1.6,1c0.5,0.4,0.9,0.9,1.2,1.4c0.3,0.6,0.5,1.3,0.5,2.1c0,1-0.2,1.9-0.6,2.7c-0.4,0.8-0.9,1.6-1.7,2.2
			c-0.7,0.6-1.6,1.1-2.6,1.4c-1,0.3-2.2,0.5-3.5,0.5c-0.6,0-1.2,0-1.8-0.1c-0.6-0.1-1.1-0.2-1.5-0.3c-0.5-0.1-0.8-0.3-1.1-0.4
			c-0.3-0.2-0.5-0.3-0.7-0.5c-0.1-0.1-0.2-0.2-0.2-0.3c0-0.1-0.1-0.3-0.1-0.5c0-0.1,0-0.3,0-0.4c0-0.2,0.1-0.4,0.1-0.6
			c0-0.2,0.1-0.5,0.2-0.7c0.1-0.2,0.1-0.4,0.2-0.6c0.1-0.2,0.2-0.3,0.3-0.4c0.1-0.1,0.2-0.2,0.3-0.2c0.2,0,0.4,0.1,0.6,0.2
			c0.2,0.2,0.5,0.3,0.9,0.5c0.4,0.2,0.8,0.3,1.3,0.5c0.5,0.2,1.1,0.2,1.9,0.2c0.5,0,1,0,1.4-0.2c0.4-0.1,0.7-0.3,1-0.5
			c0.3-0.2,0.4-0.5,0.6-0.8c0.1-0.3,0.2-0.6,0.2-0.9c0-0.4-0.2-0.8-0.5-1.1c-0.3-0.3-0.7-0.6-1.2-0.8c-0.5-0.2-1-0.5-1.6-0.8
			c-0.6-0.3-1.1-0.6-1.6-1c-0.5-0.4-0.9-0.8-1.2-1.4c-0.3-0.6-0.5-1.3-0.5-2.1c0-0.9,0.2-1.8,0.5-2.6c0.4-0.8,0.9-1.5,1.5-2.1
			c0.7-0.6,1.5-1,2.5-1.4c1-0.3,2.1-0.5,3.3-0.5c0.5,0,1.1,0,1.6,0.1c0.5,0.1,1,0.2,1.4,0.3c0.4,0.1,0.8,0.3,1.1,0.4
			c0.3,0.1,0.5,0.3,0.6,0.4C503.8,83.7,503.9,83.9,503.9,84.2L503.9,84.2z"/>
	</g>
	<g>
		<path class="st0" d="M283.7,18.2c-17.6,2.8-34.9,8.6-47.6,17.3c0,0.2,11.1-18.7,11.1-18.7H135.8l-19.6,33.9h28.5l-26.9,48.1h57.8
			L200,51.1h22.5l-24,47.6h55.3l5.9-10.1h19.8l-4.8,10.1h9h51c0,0,22.6-48.5,22.4-48.7v-0.1V38.6C351.8,19,317.2,12.9,283.7,18.2z
			 M297.3,51.8c0,0.2-8,13.4-8,13.4h-5.7h-13.9l7.7-13.6c0.7-2.2,3.1-3.6,6.2-4.5C290.3,45.2,299.7,46.8,297.3,51.8z"/>
		<path class="st0" d="M110.8,98.7l19-33.1H51.7c-5.6,0-5.6-4.5-5.6-7.7c0-3.3,4.3-7,7.6-7l54.6,0.1l20-34.2H51.4
			c-48,3.1-74.3,77.6-25.2,82H110.8z"/>
	</g>
	<path class="st1" d="M353.4,11.4c0,0-1.4-2.9-3.5-2.8c-2,0-1.7,0.7-1.7,1c-0.1,0.3,0.9,2.4,1,3.4c0.2,1,0.7,2.8,0.8,3.7
		c0.1,0.9,0.9,4.1,3.4,8c2.5,3.9,3.6,5.8,3.4,7.4c-0.5-0.4-1.6-1.9-2.2-2.7c-0.6-0.6-4.5-5.1-6.2-7.4c-1.7-2.2-4.7-5.8-5.6-7.1
		c-1-1.2-2.3-3.4-4.5-3.3c-0.6,0.6-0.6,1.1,1.1,3.9c1.7,2.7,7.4,10.4,8.2,11.6c0.8,1.1,3.7,5.1,3.5,5.1c-0.2,0.1-1-0.6-1.6-1.2
		c-0.6-0.5-4.2-2.1-5.5-3.7c-1.3-1.6-2.2-2.7-2.8-3.5c-0.6-0.8-2.1-3.9-3.5-4.7c-1.4-0.8-2.9-0.9-2.3,1.9c0.6,2.7,2,4.9,2.4,5.9
		c0.4,1,1.9,4.6,5.9,6.7c3.2,2.2,5.8,4.9,5.8,5.5c-1-0.5-9.9-5-12.6-6.9c-2.8-1.9-3.8-2.1-6.8-3.9c-3.1-1.8-3.8-2.3-5.7-2.7
		c-1.9-0.3-3.5,0.7-2.6,1.8c1,1,7.9,5.3,9.3,6.3c1.4,0.9,7.1,4.6,8.6,5.5c1.6,0.8,3.5,2.3,3.5,2.3s-3.6-0.1-6.5-1.2
		c-3-1.1-8.1-3.4-8.8-3.8c-0.6-0.4-2.1-1.8-4.6-1c-0.6,1.1-0.5,1.8,0,2.2c0.4,0.3,5.9,3.4,7.3,4.8c1.3,1.4,1.6,2.6,6.9,3.3
		c2.7-0.1,4.7,0.5,6.3,1.8c-1.4,0.2-5.7-0.2-7.1-0.4c-1.4-0.2-7.6-0.5-8.8-0.6c-1.3,0-6.7-0.4-8-0.6c-1.3-0.2-3.8-0.5-4.3,0.2
		c-0.5,0.7-0.8,1.7-0.4,1.9c0.4,0.2,3.1,1.4,4.4,1.4c1.1,0.1,7.1,1,8.4,1.2c1.3,0.2,3.9,0.9,6.2,0.7c2.1,0.2,4.9,0.6,5.1,0.9
		c0.2,0.2-3.7,1-4.4,1c-0.7-0.1-2-0.2-4.3,0.6c-1.5-0.2-2.6-0.5-4.6-0.4c-2,0-3.6,0-5.8,0.8c-2.2,0.9-2.2,1-2.3,2.5
		c0.4,0.6,1.4,1.4,3.1,1.4c1.6,0.1,5-0.5,7.6,0.4c2.7,0.9,5.6,0.9,8.5,0.2c2.9-0.6,5.9-1.4,6.1-0.7c0.2,0.6-1,0.3-3.1,1.2
		c-2.2,0.8-7.3,3-9.6,3.7c-2.3,0.7-7.2,2.5-9,3.1c-1.7,0.6-5.5,0.7-5.3,3.3c0.2,1.8,1.6,1.3,2.4,1.1c0.8-0.2,3-0.6,6.9-1.8
		c3.9-1.1,13.3-4.2,14.5-4.3c-0.3,0.6-1.6,2.3-2.7,2.8c-1,0.6-4.2,2.2-4.9,2.4c-0.7,0.3-3.9,2.4-5.5,3.4c-1.8,1-4.1,2.5-4,3.5
		c0,1,0.3,2.3,1,2.4c0.7,0,2.9-1.4,3.5-1.8c0.6-0.6,6.9-2.5,8-2.7c1-0.2,3.9-1.1,6.8-3.9c1-1,2-1.9,3.1-1.8c-0.7,0.8-6.6,6-7.9,7.2
		c-1.3,1.2-2.9,3.1-3.7,3.7c-0.8,0.6-2.9,2.7-3.5,3.1c-0.6,0.5-1.8,1.4-2.7,1.9c-0.8,0.6-2.7,1.8-1.9,2.7c0.8,0.8,0.8,1.2,2.9,0.6
		c2.2-0.7,5.9-4,7.3-5.1c1.4-1,6.3-4.9,6.9-5.5c0.6-0.5,2.6-1.9,3-1.8c-0.2,0.6-2.8,5.1-4.3,6.4c-1.5,1.3-5.5,6.8-6.3,8.7
		c-0.6,1.9-0.7,2.6-0.1,3c0.6,0.4,1.6,0.6,2.4-0.7c0.7-1.4,3.4-3.9,4.4-4.7c1-0.6,5-3.1,7.5-6.9c1.2-2,2.3-3.6,2.7-3.5
		c-0.2,0.5-2.5,4.7-3,5.6c-0.6,0.8-1.7,3.2-2.3,4.5c-0.6,1.3-1.5,3-1.9,4.1c-0.4,1-1.1,3.4-1.4,3.8c-0.3,0.5-2.2,4.6-2.5,5.3
		c-0.2,0.7-0.3,1.4,0.3,1.8c0.7,0.3,1.6-0.2,1.8-0.4c0.2-0.2,5.5-8.3,5.9-9.1c0.3-0.8,2-2.7,2.6-3.9c0.6-1.3,3.4-6.3,3.9-6.8
		c0,0.9-0.4,3.4-0.6,4.1c-0.2,0.6-1.1,3.1-1.4,3.9c-0.2,0.7-2.3,4.4-2.5,5.1c-0.2,0.7-0.6,3.2,0.6,4.4c1.2,1.2,2,1,2.7-0.6
		c0.6-1.5,2.9-5,3.6-5.8c0.7-0.8,2.9-4.9,3.5-7.6c0.6-2.7,0.9-4.9,1.3-4.8c0.5,0,0.4,1,0.3,1.7c-0.1,0.6-0.6,5.1-0.6,6.3
		c-0.1,1.4-0.4,6.4-0.6,7.3c-0.2,0.9-0.6,6.1-0.8,6.9c-0.2,0.8-0.2,3.1-0.4,3.6c-0.1,0.6-0.3,1.3,0.2,1.8c0.4,0.5,1.1,1.7,2.9,0.1
		c1-2.2,1.8-5.9,1.8-7.3c0.1-1.3,1-8.1,1.3-9.7c0.3-1.6,1-5.6,1-5.6s1,1.8,1,3.1c0,1.2-0.2,5.2-0.2,6c0,0.7-0.2,4.9,0.6,6.3
		c0.7,1.4,2.2,3.8,3.1,3.9c1,0.1,1.8-0.2,1.4-1.8c-0.4-1.6-1-3.3-0.8-4.3c0.1-1,1.4-3.5,1.4-5.3c0.1-1.7-0.2-5.9-0.7-8
		c-0.6-2.2-1.4-5.4-0.6-6.4c0.2,0.4,2.1,6.1,2.6,7.6c0.4,1.5,1.8,5.1,2.1,6c0.4,1,1.9,4.9,2.2,5.7c0.2,0.8,0.7,2.6,0.4,3.5
		c0.2,1,1.4,6.2,1.8,6.3c0.6,0.2,1.5,0.4,1.9,0.4c0.4,0,0.9-1.9,0.9-2.4c-0.1-0.6-1.9-7.3-2.1-8.8c-0.2-1.4-1.3-5.8-1.5-6.7
		c-0.3-1-1.3-3.8-1.3-4.7c-0.1-0.9-0.1-1.5,0.2-1.6c0.2,0,1.4,2.3,1.7,2.8c0.3,0.6,1.8,4.1,2.4,6c0.6,2,1.8,3.9,3.1,5.2
		c1.4,1.3,2.6,2.7,3.8,2.8c1.2,0.2,1.2-1.1-0.6-4.6c-1.2-2.7-2.3-7.2-2.3-8.3c-0.1-1.2,0.2-2.2-1.7-4.7c-1.8-2.7-3.9-5.1-4-7.4
		c0.3,0.1,1.5,1.2,4.6,5.5c2.1,2.8,4.8,5.8,5.3,6.5c0.5,0.7,3.5,4.6,3.9,5.4c0.4,0.8,1.8,4.2,2.6,4.8c0.6,0.6,1.8,2,3.2,1.6
		c1.4-0.5,0.8-3.5,0.2-4.5c-0.7-1-5.2-7.9-5.9-9.2c-0.7-1.4-3.2-4.7-3.8-5.4c-0.6-0.7-2.1-2.7-2.3-3.4c0.6,0.4,4.3,2.3,4.9,3.1
		c0.6,0.7,3.6,5.1,4.8,6.2c1.1,1,4.3,4,5.5,4c1.4,0,3.5-0.7,2.1-2.5c-1.4-1.7-2.1-2.1-2.8-2.6c-0.7-0.5-2.7-2.2-3.6-5.7
		c-0.9-1.8-2.2-2.8-3.3-3.5c-1-0.7-3.4-2.6-3.4-2.6S391,72,390.5,71c-0.5-1-0.2-0.6-0.2-0.6s6.8,3.9,7.7,4.4
		c0.9,0.6,5.2,3.4,6.4,4.3c1.1,0.9,8,4.9,8.8,5.5c0.8,0.6,2.8,2.3,3.8,1c1-1.4-0.1-1.7-0.4-2.3c-0.4-0.6-2.3-1.9-2.7-2.3
		c-0.4-0.5-2.9-1.7-3.8-3.1c-1.2-1.2-4.5-2.8-5.1-3.4c-0.7-0.5-5.4-4.1-6.3-4.6c-1-0.5-1.9-0.8-1.9-1.2c0.8,0.2,4.7,0.2,5.5,0.6
		c0.8,0.3,6,3.1,7.2,3.7c1,0.5,4.8,1.8,6,1.4c1.2-0.4,2.6-1.3,0.8-2.4c-1.7-1-4.6-2.4-5.4-2.9c-0.9-0.5-3-3.9-9.6-5.2
		c-4.5-0.9-5.5-1.4-5.9-1.6c-0.4-0.2-0.5-0.5-0.5-0.5s2.6,0.2,3.3,0.3c0.8,0.1,5.3,0.3,6.3,0.5c0.9,0.2,7.1,1.2,8,1.4
		c0.9,0.2,1.6,0.4,2.8,0.5c1.1,0.2,0.9,0,2.3,0.2c1.4,0.3,3.1,0.2,3.4-0.1c0.3-0.2,1.5-1.4,0-2c-1.5-0.6-5.5-2.1-6.8-2.3
		c-1.4-0.3-5.9-1.1-6.8-1.3c-1-0.2-4.7-1.4-5.3-1.5c-0.6-0.2-1.5-1-2.1-1.1c1-0.3,3.5-1,4.7-0.7c1.2,0.2,1.8,0.8,2.8,0.6
		c1-0.2,4,0.2,5.2,1c1.2,0.5,3.7-0.3,4.5-0.6c0.9-0.2,2.7-0.7,2.7-2c0-1.3-0.2-1.7-1.7-1.8c-1.4-0.2-6.2-1.5-8-1.8
		c-1.8-0.3-4.1-0.7-5.9-0.6c-1.9,0.2-3.1,0.9-4.3,1.1c-1,0.2-1.2,0.1-1.2,0.1s3.9-1.2,4.5-1.4c0.7-0.2,7.4-2,8.4-2.3
		c1-0.2,5.2-1.4,6.1-1.7c0.9-0.3,3.2-1.4,3.2-1.9c0-0.6-0.2-1.8-1.6-1.8c-1.3,0.1-4.1,0.5-5.6,0.7c-1.5,0.2-6.1,1.2-7,1.4
		c-1,0.2-4.3,0.2-5.1,0.6c-0.8,0.2-1.6,0.6-1.6,0.6s1.4-1.6,3.1-2.4c1.7-0.9,5.8-2.3,6.8-2.6c1-0.3,4.8-1.2,5.9-3.5
		c-0.1-0.9,0.1-2-1.4-2.3c-1.2,0.2-4.2,1.1-6.2,1.3c-2.1,0.2-4.5,0.3-6.2,1c-1.6,0.8-3.2,2.1-5.7,4c-1.6,0.4-2.3,0.5-2.3,0.5
		s2.7-2,3.9-3.2c1.3-1.1,4.3-3.5,5.5-4.3c1.2-0.8,2.3-1.9,3.2-2.7c0.9-0.8,3.9-2.6,4.6-3.1c0.6-0.6,2.1-1.7,2.1-2.3
		c0-0.5,0.2-2.6-0.9-2.3c-1.1,0.2-1.3,0.2-5.1,3.1c-4,2.2-3.4,1.7-4.8,2.7c-1.4,1-2.6,2-3.7,2.7c-1.1,0.7-3.1,2.1-4,2.5
		c-0.9,0.5-1.4,0.6-1.4,0.6s1.4-2.2,2.2-3.8c0.9-1.6,2.3-3.4,3.1-4.2c0.7-0.8,1.5-1.8,2-2.3c0.5-0.3,0.9-0.3,1.9-0.9
		c1-0.6,2.7-2.2,2.8-3.4c0.2-1.2,0.4-1,0.2-1.3c-0.2-0.2-0.8-0.7-1.2-0.6c-0.5,0-1.1,0.6-1.8,1c-0.7,0.5-5.3,2.8-6.8,3.6
		c-1.4,0.8-3,2.4-3.8,3.3c-0.8,0.8-2.1,3.1-3.3,5c-1.3,1.8-2.1,2.3-2.7,2.4c-0.2-0.1,0-0.2,0.4-0.6c0.3-0.4,2.4-3.5,3-4.9
		c0.6-1.3,5.3-9.6,5.5-10c0.2-0.5,3.9-6.2,4.2-6.7c0.2-0.4,1.6-2.2,1.1-4.6c0-0.6-0.6-0.6-0.8-0.8c-0.2-0.2-0.4-0.4-1,0.4
		c-0.6,0.8-2.6,4.3-3.7,5.6c-1.1,1.3-3.1,3.5-4.6,5.5c-1.5,1.9-3.3,5-3.8,5.5c-0.4,0.5-2.5,3.7-2.8,4.3c-0.4,0.6-0.6,0.8-0.6,0.8
		s0.4-1.8,0.6-2.9c0.3-1,1.8-5.8,2.3-7.1c0.5-1.3,1-2.2,1.4-3.2c0.5-1,2.6-5.9,2.6-6.9c0-1,0-2-1.6-2.6c-0.3-0.2-0.5,0.6-0.9,1.4
		c-0.3,0.8-0.6,1.6-1,2.5c-0.4,0.9-1.8,3.6-4,5.6c-2.3,2-2.5,4.3-2.9,5.3c-0.3,1-0.7,3.1-1,4.2c-0.2,1-1.5,4.5-2.1,4.9
		c0-0.8,0.6-3.5,0.6-4.3c0-0.9,0.6-6.6,0.9-7.8c0.2-1.2,0.9-5.7,1.1-7.2c0.3-1.4,1.2-5.5,1.3-6.6c0.1-1,0.5-2.8,0-3.3
		c-0.5-0.5-1.5-1.5-2.3,0c-0.8,1.5-1,2.3-1.2,3.2c-0.2,0.9-0.6,4.3-0.8,5.4c-0.1,1.2-0.7,4.3-1.1,5.5c-0.4,1.2-1.2,4.7-1.4,5.5
		c-0.1,0.7-0.7,4.9-1.1,4.8c-0.4-0.1-0.4-1.5-0.5-2.1c-0.1-0.6-0.3-2.9-0.8-4.3c-0.1-1.4,0.6-7.2,0.7-8.8c0.2-1.7,0-3.9-0.5-4.8
		c-0.5-1-1-2.7-2.3-2.7c-1.3,0-1,1.3-1,2c0.1,0.7-0.2,4.5-0.6,5.8c-0.3,1.4-1.9,5-1.8,6.7c0,1.8,0.8,4.3,0.8,5.3
		c0,1-0.2,5.2-0.3,5.7c-0.3-0.6-1.7-5.1-2-6c-0.2-0.9-1.8-7.4-2.1-8.7c-0.4-1.3-2-7.2-2.2-7.8c-0.2-0.5-0.5-2.3-1.4-2.8
		c-0.8-0.5-0.6-0.7-1.7-0.4c-1,0.3-0.5,1.2-0.5,1.6c0.1,0.4,1.2,4.9,1.4,5.9c0.2,1,0.9,4.4,1,5.4c0.2,0.9,0.4,1.5,0.4,2.2
		c-0.1,0.6,0.2,2.5,0.7,3.9c0.5,1.4,0.9,2.7,0.9,3.3c-0.1,0.6-0.1,0.9-0.1,0.9s-1-0.8-1.4-1.7c-0.4-0.8-1.7-2.4-2-3
		c-0.4-0.6-2.4-5.1-2.8-6.4C354.2,13.3,353.4,11.4,353.4,11.4z"/>
	<path class="st2" d="M378.8,4.2c0.4,0.1,0.8,0.4,0.9,0.8c-0.5,0.6-0.6,3.4-0.8,4.2c0,0.2,0,0.3,0,0.5c-0.5,3-0.9,6-1.4,9.1
		c-0.8,3.1-1,6.2-1.3,9.5c-0.2,0.9-0.2,1.8-0.4,2.7c-0.1,0.6-0.2,1.3-0.3,1.9l0,0c0.1,0,0.1,0.1,0.2,0.1v-0.1c0,0,0.1-0.1,0.2-0.2
		c0.4,0.2,0.8,0.3,1.2,0.4c0.1,0,0.1,0,0.1,0c0.1,0,0.1,0,0.1,0c0.1,0,0.2,0,0.3,0c1-1,3.9-4.7,3.9-5.9c0,0,0-0.1,0-0.2
		c0-0.6,0.1-1.1,0.2-1.7c0.6-2.5,1-4.9,2.2-7.1c0.4-0.8,1-1.4,1.6-2.2c1.4-1.8,2.7-3.8,3.2-5.9c0.1-0.1,0.1-0.2,0.2-0.4
		c0.1,0,0.2-0.1,0.3-0.2c0,0.1,0,0.1,0,0.1c0,0.1,0,0.2,0.1,0.2l0,0c0-0.2-0.1-0.5-0.2-0.6c0.1,0,0.1,0,0.2,0l0,0
		c0.5,0.6,0.4,1.8,0.2,2.5c-0.5,3.3-3.1,6-4.3,9.1c-1.4,3.5-1.6,7.6-3.7,10.8c-0.3,0.6-0.7,1.3-1,1.9c-0.1,0.1-0.2,0.2-0.2,0.2
		c0.3,0.3,1.7,1.1,2.2,0.7c0.3-0.4,0.6-0.8,0.9-1.2c3.5-5,6.9-10,10.4-14.9c0.1-0.1,0.1-0.2,0.1-0.2c0.6-0.9,1.2-1.8,1.8-2.7
		c0.2-0.4,1.7-2.5,2.1-2.5l0,0c0.2-0.2,0.3-0.5,0.2-0.8c0.2-0.2,0.3-0.5,0.5-0.7c0.2-0.1,0.2-0.2,0.2-0.4c0.1,0,0.2,0,0.2,0
		c0-0.1,0-0.2,0-0.2c0.2-0.1,0.5-0.2,0.8-0.2c0,0,0,0-0.1-0.1c0.1,0,0.1,0,0.2,0l0,0l0,0l0,0c0.1,0,0.1,0,0.1,0
		c-0.2,0.6-0.6,1.9-1.4,1.9c0,0.1,0,0.1,0,0.1c0.1,0.8-2,3.2-2.6,4c0,0.1-0.1,0.1-0.2,0.2c-2.5,4.2-5,8.3-7.5,12.5
		c-1.4,2.1-3,4.1-3.9,6.4c-0.3,0.7,0.7,1.4,1.4,1.7c0.1,0,0.2,0,0.2,0c0.6-0.3,3.4-2.5,3.4-3c0.1,0,0.2,0.1,0.2,0.1
		c0.6-0.7,1.3-1.5,1.8-2.3c0.9-1.3,1.4-2.7,2.7-3.9c1.9-1.7,4.3-2.6,6.3-4.2c0.5-0.3,1-0.7,1.4-1c0.3-0.2,0.6-0.2,0.8-0.4
		c0.2-0.2,0.5-0.5,0.7-0.7c0-0.1,0-0.1,0-0.1c0.2-0.1,1.2-1.3,1.2-1.3c0,0.1,0,0.1,0,0.1s0.1,0,0.1-0.1c-0.1,0.3-0.2,0.6-0.3,0.9
		c0,0.1,0.1,0.2,0.1,0.2c-0.2,0.3-0.5,0.7-0.8,1.1c-0.9,1-1.8,2.2-2.8,3.2c-0.6,0.5-1.3,0.7-2,1c-1.1,0.6-2.1,1.5-2.9,2.6
		c-1.2,1.5-2,3.2-3.1,4.8c-1.2,1.8-2.9,3.3-4.7,4.5c0,0-0.1,0-0.1,0.1c0,0,0,0,0,0.1c1.5,1.8,2.4,0.6,4.2-0.2
		c0.2-0.2,0.5-0.3,0.7-0.5h0.1c0.3-0.2,0.6-0.5,1-0.7c0.1,0,0.1,0,0.1,0c0.5-0.2,3.7-2.7,3.8-2.7c1.2-0.6,2.7-2,4-2.8
		c0.2-0.1,0.4-0.2,0.6-0.4v0.1c1.1-0.7,2.3-1.4,3.5-2.2c0,0,0,0,0,0.1c1.8-1,3.4-2.2,5.1-3.3c0.4-0.2,1.1-0.7,1.7-0.8h-0.1
		c0.2-0.1,0.9-0.6,1-0.1c-1,1.1-2.3,1.9-3.5,2.8c-1.8,1.2-3.5,2.5-5.3,3.8c-1.1,0.9-2.3,1.8-3.4,2.7c-1.5,1.3-3.3,2.3-4.8,3.4
		c-0.7,0.6-1.4,1.3-2.3,1.9c-0.1,0.1-0.2,0.2-0.3,0.3c-1,0.7-1.9,1.4-2.8,2.2c0.3,0.6,0.7,1.3,1,1.9c0.2,0,1-0.1,1-0.1
		c0.1,0,0.1,0,0.2,0c0.2-0.1,0.6-0.2,0.9-0.3c0.5-0.2,0.9-0.3,1.4-0.6c0.1,0,0.1,0,0.1,0c0-0.1,0-0.1,0-0.2h0.1c0.1,0,0.2,0,0.3,0
		c0.8-0.6,1.8-1,2.7-1.5c0.1-0.1,0.2-0.1,0.2-0.2h0.1c0.8-0.6,1.6-1.2,2.4-1.8h0.1c0.9-0.5,2.3-1.7,3.4-1.8c0.5-0.1,1-0.2,1.4-0.3
		c0.1-0.1,0.2-0.1,0.2-0.1c0.1,0,0.1,0,0.1,0s0,0,0-0.1c0.2,0,0.4,0.1,0.6,0.1c0.4,0,0.9-0.1,1.3-0.1l0,0c0.6-0.1,1-0.2,1.6-0.2
		c0.4-0.1,0.7-0.2,1.1-0.2c0.3-0.1,0.6-0.1,0.9-0.2c0.1-0.1,0.2-0.1,0.3-0.1c0.3-0.1,0.6-0.2,1-0.2c0.1-0.1,0.1-0.2,0.1-0.2
		c0.1,0,0.2,0,0.2,0c0,0.1,0.1,0.2,0.1,0.2c0.2-0.1,0.4-0.1,0.6-0.1c0.1,0,0.1,0,0.1,0c-0.1,0.2-0.2,0.4-0.2,0.6c0.1,0,0.2,0,0.2,0
		c0,0.1,0,0.1,0,0.1h-0.1c-2.7,1.7-6.5,1.9-9.6,3c-2.4,0.9-4.3,3.2-6.5,4.6c-1.4,1-3.3,1.4-4.8,2.3c0,0.1-0.1,0.1-0.2,0.2
		c-0.3,0.4,0.4,1,0.4,1.4l0.1-0.1c0.2-0.1,0.3-0.2,0.5-0.2c0.4-0.1,0.8-0.2,1.2-0.2c0.1,0,0.2-0.1,0.2-0.1c0.6-0.1,1.2-0.2,1.8-0.2
		c0.2-0.1,0.4-0.1,0.6-0.1c0-0.1,0-0.1,0-0.1c0.2,0,0.6,0,0.9,0c0.2-0.1,0.5-0.2,0.7-0.2h0.1l0.1,0.1c0.1-0.1,0.2-0.2,0.3-0.2
		c0.2,0,0.3,0,0.4,0c0.2-0.1,0.2-0.1,0.3-0.2c0.1,0,0.2,0,0.3,0c0.2-0.1,0.4-0.1,0.6-0.2c0.4-0.1,0.8-0.1,1.1-0.2
		c0.2-0.1,0.4-0.1,0.6-0.2c0.3-0.1,0.6-0.2,0.9-0.2c0,0,0,0,0,0.1c0.6-0.1,1.2-0.2,1.8-0.2c0.2-0.1,0.4-0.1,0.6-0.1
		c0.2-0.1,0.4-0.1,0.6-0.2c0,0,0,0,0.1,0c0,0,0,0,0.1,0c0.5-0.1,1-0.2,1.5-0.2c0.2-0.1,0.3-0.2,0.5-0.2c0-0.1,0.1-0.1,0.2-0.1
		c0.2-0.1,0.3-0.2,0.5-0.2c0.2,0.1,0.4,0.1,0.6,0.1c0.4-0.1,0.9-0.2,1.3-0.3c0.2-0.1,0.4-0.1,0.6-0.2c0.3-0.1,0.6-0.1,1-0.2
		c0.2-0.1,0.3-0.1,0.5-0.1c0.2-0.1,0.4-0.2,0.6-0.2c0.2,0,0.3,0,0.5,0c0.3-0.1,0.6-0.2,0.8-0.3c0.1,0,0.1,0,0.1,0l0,0
		c0.9-0.2,1.5-0.2,2.5-0.3c0.2,0,0.5,0.1,0.7,0.1c0,0,0,0.1,0,0.2c-0.1,0-0.1,0-0.1,0c-1.1,0.5-2.6,1.1-3.9,1.1c0,0.1,0,0.1,0,0.1
		c0,0.1-0.1,0.2-0.2,0.3c-0.1-0.2-0.2-0.2-0.2-0.3c-0.1,0-0.1,0-0.1,0s-0.1,0-0.1,0.1l0,0c-0.1,0-0.1,0.1-0.1,0.1
		c-0.8,0.2-1.5,0.3-2.3,0.6c-1.1,0.3-3.4,1.6-4.6,1.6c-1.1,0.3-2.3,0.6-3.4,0.8c-2.3,0.6-4.7,1-6.8,1.8c-1.3,0.4-2.5,0.8-3.7,1.2
		c0,0.5,0.1,1.4,0.4,1.8c0.4,0.5,2.9,1,3.6,1v-0.1c0.7,0.1,1.3,0,2,0c0.1-0.1,0.2-0.1,0.2-0.2l0,0c0.1,0,0.2,0.1,0.2,0.1
		c0,0,0,0,0-0.1c0.1,0,0.2-0.1,0.3-0.2c0.2,0,0.6,0,0.8,0c0.1-0.1,0.2-0.2,0.2-0.2c0.1,0,0.1,0,0.1,0c0.2,0,0.2,0,0.4,0
		c0.2-0.1,0.4-0.2,0.6-0.2v0.1c0.1,0,0.1,0,0.2,0v-0.1c0.1,0,0.2,0.1,0.2,0.1c0.2-0.1,0.2-0.1,0.3-0.2c0.1,0,0.2-0.1,0.3-0.1
		c0.1,0,0.1,0,0.1,0v-0.1c0,0,0,0,0.1,0l0,0c0,0,0,0,0.1,0c0.2,0,0.4-0.1,0.6-0.1c0.2,0,0.3-0.1,0.5-0.1c0.2-0.1,0.4-0.2,0.6-0.2
		c0.5,0,1,0,1.5,0c1.6-0.2,2.9,0.6,4.3,0.8c0.2,0.1,0.3,0.1,0.5,0.1c0.1,0,0.1,0,0.2,0v-0.1c0.2,0.1,0.4,0.2,0.6,0.2v-0.1
		c0.8,0.2,1.5,0.5,2.3,0.6l0,0c0.1,0,0.2,0,0.2,0c0.1,0,0.1,0,0.1,0c0.4,0,1.6,0,1.4,0.6c-0.2,0.6-1.4,0.8-2.1,0.9
		c-1.2,0.2-2.2-0.3-3.2-0.5c-1.8-0.2-3.5-0.2-5.3-0.4c-1.8,0.6-3.6,1.2-5.4,1.8c-1.3,0.4-2.3,0.2-3.6,0.3c-0.9-0.3-1.8-0.6-2.6-1
		v0.1c-0.1,0.4-0.1,0.7-0.2,1.1c1,0.5,2.2,0.6,3.4,0.8c1.7,0.4,3.4,0.8,5,1.2c0.3,0.1,0.6,0.2,0.9,0.2c1.2,0,2.4,0.5,3.5,0.7
		c2.1,0.5,4.3,0.6,6.3,1.3c0.2,0.1,0.3,0.2,0.3,0.5h0.1l0,0l0,0c0.1,0,0.1,0,0.1,0c0-0.1,0-0.2,0-0.2c0.5,0,1,0.1,1.4,0.1
		c0,0.1,0,0.2,0,0.2c0,0.1,0,0.1,0,0.1c-0.1,0-0.2,0-0.3,0l0,0c0,0,0,0,0.1,0v0.1c0.2,0,0.3,0,0.6,0.1c0.8,0.1,1.5,0,2.4,0.2
		c0.7,0.2,1.3,0.6,2.1,0.6c0.2,0.1,0.4,0.1,0.6,0.2c0.2,0,0.3,0.1,0.4,0.1c0.1,0.2,0.1,0.6,0.1,0.9l0,0c-1.2-0.2-2.4-0.5-3.6-0.7
		c-2.5-0.4-5.1-0.9-7.8-1c-0.6-0.1-1.3-0.2-1.9-0.2c-0.9-0.2-1.9-0.2-2.7-0.4c-1.6-0.2-3.2-0.7-5-0.6c-0.6-0.2-1.3-0.3-2-0.4
		c0,0-0.1,0.1-0.1,0.2c-0.6-0.3-3.3-0.5-4-0.5c0,0,0,0,0,0.1c-1.4,1-0.6,3.1,1,3c1,0.4,3.4,1.6,4.6,1.6c0,0,0,0,0-0.1l0,0
		c1.2,0.2,2.4,0.4,3.5,0.6c0.5,0.1,0.9,0.2,1.4,0.4c1,0.5,9.2,5.6,9.2,6.2c0,0,0,0-0.1,0c-0.1,0-0.1,0-0.2,0.1c0,0,0,0.1,0.1,0.2
		c-0.2,0-0.2,0-0.3,0c-0.1-0.1-0.2-0.1-0.2-0.1c-0.1,0-0.2-0.1-0.3-0.1c-0.1,0-0.2-0.1-0.2-0.1c-0.2,0-0.2-0.1-0.3-0.1
		c-2.2-0.8-4-2.3-6-3.3c-2-1-4-1.3-6.1-2c-0.6-0.1-1-0.2-1.6-0.3c-0.4-0.2-1-0.4-1.6-0.4c-1.4-0.4-2.8-0.9-4.3-1.3
		c-0.1-0.1-0.2-0.1-0.4-0.2c-0.3,0.6-1,1-1,1.8c1.9,1,3.6,2.4,5.5,3.7c3.2,2.3,6.7,4.4,10,6.8c0.6,0.4,1.3,0.9,1.9,1.3l0,0h0.1
		c0.1,0.1,0.2,0.2,0.2,0.2c0.2,0.2,0.5,0.4,0.6,0.6c0.3,0.1,1,0.8,1,0.8c0.1,0,0.1,0.1,0.1,0.1c0.1,0,0.2-0.1,0.3-0.1
		c0.6,0.6,2.3,2.3,3.2,2.6c0.1,0,0.2,0.1,0.2,0.1c0.1,0,0.1,0,0.1,0s0,0,0,0.1c0,0,0,0-0.1,0c-0.1,0.1-0.2,0.2-0.3,0.2
		c-2.5-1.9-5.2-3.6-7.8-5.3c-1-0.6-2-1.2-3-1.8c0,0,0-0.1-0.1-0.1c-1.6-0.5-3.1-1.8-4.6-2.7c-2.2-1.3-4.4-2.3-6.5-3.4
		c-0.8-0.4-1.8-1.1-2.7-1.1c-0.2,0.4-1.1,1.2-1,1.6c0.3,0.4,0.6,0.9,1,1.3c1.9,2.7,4.7,4.4,7.5,6.2c0.4,0.2,0.8,0.6,1.1,0.8
		c0.3,0.5,0.6,1,1,1.5c0.5,1,3.5,7.3,4.8,7.2c0.2,0.3,0.5,0.6,0.8,0.9c-0.1,0-0.1,0-0.1,0l-0.1,0.1c0,0.1,0,0.2,0.1,0.2
		c-0.2,0-0.2,0.1-0.3,0.1c0-0.1,0-0.1,0-0.2c-0.1,0-0.2,0-0.2,0c0-0.1,0-0.2,0-0.2c-0.1-0.1-0.2-0.1-0.2-0.2c-0.8-0.6-1.8-1-2.5-1.8
		c-1.9-1.9-2.9-4.4-4.7-6.3c-1.9-1.9-4.5-2.7-6.6-4.3c-0.6-0.6-2.9-3-3.5-3.1c-0.5-0.2-1.6,0.5-1.6,1h0.1c1.4,0.6,3.1,4.8,4.3,6.1
		l0,0c0,0.1,0,0.2,0,0.2c2.7,4.7,5.5,9.2,8.4,13.7c0.8,1.3,3.1,4,3.1,5.5c-0.4,0-0.6-0.1-0.9-0.3c-1.3-1.3-2.3-3.8-3.2-5.4
		c-2.3-3.7-4.9-7.6-7.6-11c-0.1-0.2-0.2-0.3-0.3-0.4c-0.1-0.1-0.2-0.2-0.2-0.2c-0.2-0.4-0.4-0.7-0.6-1c-0.6-0.7-3.7-5.8-4.1-5.7
		c-0.1-0.1-0.1-0.2-0.1-0.2c-0.8-0.6-1.7,0.4-2.4,0.4c0,0.1,0,0.1,0,0.1c0.2,3.1,1,5.5,2.2,8.1c0.5,0.8,1,1.7,1.4,2.5
		c0,0.1,0.1,0.2,0.2,0.2c0.4,1,1.1,2,1.3,3.1c0.3,1.8-0.1,3.6,0.4,5.3c0.3,0.7,0.6,1.4,1,2.2c0.3,0.4,0.6,0.8,0.8,1.2
		c0.4,0.3,2.7,2.9,1.4,2.9c-0.6,0-0.9-0.7-1.2-1c-1.6-1.8-2.7-3.3-3.4-5.6c-0.1-0.5-0.2-1-0.4-1.5c0.5-3.1-2.9-7.5-3.9-10.2
		c-0.4-1.1-0.8-2.3-1.2-3.4c-0.2-0.8-0.5-1.6-0.7-2.5c0,0,0,0,0-0.1c-0.1,0-0.1,0-0.1,0c-0.3,0-0.6,0.1-0.8,0.1
		c-1.7,0.5-0.3,4.4,0,5.5c0.2,1,0.4,1.8,0.6,2.8c0.2,1,0.4,1.9,0.6,2.8c0.2,0.3,0.3,0.6,0.4,1c0.2,0.8,0.2,1.5,0.3,2.3
		c0.4,2.3,0.6,4.5,1.3,6.6c0.1,0.2,0.2,0.6,0.2,0.8c0.2,0.8,0.2,1.5,0.4,2.3c0.3,2,0.7,4,1.1,6c0,0.3-0.1,0.7-0.4,0.8
		c-0.8,0.2-0.9-1.4-1-1.8c-0.7-3.1-1.4-6.2-2-9.3c-0.1-0.7-0.2-1.4-0.3-2.1c-0.4-1.4-0.6-3-0.9-4.3c-0.2-0.6-0.4-1.1-0.6-1.7
		c-0.4-1.5-0.9-3.1-1.4-4.6c0-0.1-0.1-0.2-0.2-0.3c-0.1-1-1.2-4.9-1.7-5.6c-0.1-0.1-0.2-0.2-0.2-0.2c0,0.1,0.1,0.2,0.1,0.2
		c-0.3-0.1-2.2-0.2-2.2,0.2c-0.1,0-0.1-0.1-0.2-0.1c-0.2,1.7-0.3,3.5-0.2,5.2c0.2,2.5,1,4.7,1.2,7.2c0.2,2.9-1.4,5.1-1.4,8
		c-0.1,1.5,0.2,3.1,0.6,4.5c0.2,0.7,0.5,1.5,0.6,2.2l0,0l0,0c-1.8-0.2-2.6-5.9-2.6-7.6c-0.1-0.1-0.2-0.1-0.2-0.2
		c0.4-1.1,0.3-2.6,0.4-3.9c0-1.4,0-2.8,0.1-4.2c-0.2-0.9-0.5-1.7-0.7-2.6c-0.2-1.3-0.5-2.7-0.7-4c0-0.6,0-1.3,0-1.9
		c0-0.1,0-0.2,0-0.2c0.1-0.2,0.2-0.2,0.2-0.4c0-0.1,0-0.1,0-0.2c0.2-0.6,0.1-1.4,0.1-2.1c-0.2,0-1-0.1-1,0.2c0,0.1,0.1,0.1,0.2,0.2
		c-0.2,0.3-0.3,0.6-0.5,1c0,0.1-0.1,0.2-0.1,0.2c0,0.9-0.6,1.7-0.6,2.6c0,0.2,0,0.2,0,0.3c-0.5,0.6-1,4.2-1.2,5.1c0,0.2,0,0.4,0,0.6
		c-0.2,1.4-0.4,2.7-0.6,3.9c-0.4,2.7-1,5.2-1.3,8c-0.1,0.5-0.2,0.9-0.2,1.4c0.1,0.9-0.3,1.7-0.6,2.5c-0.2,1.4-0.5,3-0.8,4.5
		c-0.3,0-0.6-0.1-0.7-0.5c-0.2-0.9,0.2-2,0.4-2.8c0.3-2.1,0.6-4.3,1-6.3c0.6-3.1,0.6-6.4,0.8-9.6c0.2-3.4,1.4-6.8,1.3-10.4
		c0.1-0.3,0.1-0.7,0.2-1c-0.9,0-1.7,0-2.5-0.1c-0.1,0-0.2-0.1-0.2-0.1c-0.2,0.1-0.3,0.2-0.4,0.3c-0.3,1-1.4,1.9-1.8,3.1
		c-0.2,1.4-0.6,2.9-0.9,4.3c-0.2,1.7-0.3,3.4-1,4.8c-0.7,1.7-2,2.8-3.1,4.3c-0.4,0.4-0.7,0.9-1.1,1.4c-0.2,0.8-0.2,1.7-0.4,2.5
		c-0.1,0.4-0.2,0.9-0.3,1.3c-0.2,0.5-0.4,1-0.6,1.4c-0.9-0.5-0.5-2.3-0.4-3.1c0-0.1,0-0.2,0-0.3c0-0.4,0-0.7,0.1-1.1
		c0.3-1,0.7-2,1-3h0.1h0.1c0.2-0.2,0.2-0.5,0.4-0.7c0.1-0.3,0.2-0.6,0.3-0.8c0.1-0.1,0.1-0.1,0.1-0.1s0,0,0.1,0l0,0
		c0.2-0.3,0.4-0.6,0.6-1c1.3-1,2-3.3,2-4.9c0,0,0.1,0,0.2-0.1c0.2-1.6,0.6-3.3,0.9-4.9c0.4-1.2,0.8-2.4,1.2-3.7
		c0.1-0.2,0.2-0.4,0.3-0.6c-0.6-0.2-1.3-0.5-1.9-0.7c-0.6,0.4-2.5,4.2-3.1,5.1c0,0,0,0-0.1,0.1c-0.5,1.2-1.3,2.4-2.1,3.5
		c-0.4,0.6-2.1,2.5-2.1,3.1c-0.2,0.3-0.6,0.7-0.8,1.1c-0.6,0.7-1,1.4-1.6,2.2c-0.7,1.4-1.4,2.8-2.2,4.2c-0.4,0.6-0.8,1.2-1.3,1.8
		c-0.4,0.8-0.9,1.6-1.3,2.4c-0.1,0.2-0.2,0.5-0.2,0.7c-0.3,0.2-0.6,0.4-1,0.6c-0.1,0-0.2,0-0.3,0c-0.2-0.2-0.2-0.5-0.2-0.6
		c0.4-0.6,0.7-1.1,1-1.7c1-1.8,2.1-3.5,3.1-5.3c0.2-0.4,0.4-0.8,0.6-1.3c0,0,0,0,0-0.1c0.1-0.1,0.2-0.2,0.2-0.3
		c0.6-1.1,1.3-2.2,1.9-3.3c1.9-3.3,3.5-6.7,5.2-10c0.5-1,1.7-2.1,1.7-3.2c-0.3-0.2-1.5-0.7-1.5-1.1c-3.1,1.7-4.3,3.4-6.1,6.2
		c-0.4,0.5-0.7,1-1,1.4c-0.7,0.4-1.4,1.2-2.1,1.8c-2.1,1.7-4.5,3-6.3,5.1l-0.1,0.1c-0.2,0.3-0.6,1-1,1.1c-0.3,0.1-0.4-0.6-0.3-0.9
		c0-0.6,2.3-3.9,3.1-3.9c0,0-0.1,0-0.1-0.1c0.1,0,0.2,0,0.2,0c1.1-1.4,2.9-2.3,4-3.7c1.2-1.4,1.8-3.1,2.7-4.6
		c1.5-1.6,3.1-3.2,4.5-4.8c0.1-0.1,0.2-0.2,0.2-0.2v-0.1c-0.5-0.1-0.7-0.9-1.2-0.8c-2.3,1.4-4.6,2.9-6.9,4.3c-0.9,0.6-1.7,1.3-2.6,2
		c-1,1.1-2.5,1.9-3.7,2.8c-2.2,1.8-4.3,3.6-6.7,5.3c0,0-0.1,0.1-0.2,0.1c-0.5,0.7-3.4,2.7-4.3,2.7c0-0.1,0-0.1,0-0.2
		c0.5-0.6,4.4-3.9,4.4-4.4c0,0.1,0.1,0.1,0.1,0.1l0,0c0.6-0.6,1.2-1,1.8-1.6l0,0c3.9-3.5,7.9-6.9,11.9-10.1c0-0.1,0.1-0.2,0.2-0.2
		c1.1-0.7,2.7-1.8,3.5-3c0-0.2,0-0.3,0-0.5c-0.3-0.7-0.7-1.4-1.1-2.2l0,0c-0.1,0-0.1,0.1-0.1,0.1l-0.1,0.1c-0.6,0.6-2.5,0.8-3.4,1.2
		c-3,1.7-5.1,4.4-8.5,5.3c-0.6,0.1-1,0.2-1.5,0.3c-1.1-0.2-7.6,1.8-7.6,3c-0.5,0.3-1,0.6-1.5,1c0-0.1,0-0.1-0.1-0.2h-0.1
		c0.2-1.5,3.5-3.6,4.7-4.3c0.2-0.2,0.6-0.3,0.8-0.4v-0.1c0.2-0.1,0.4-0.1,0.6-0.2h0.1c0,0,0,0,0-0.1c0.2,0,0.3-0.1,0.5-0.2
		c0-0.1,0-0.1,0-0.1c0.1,0,0.1,0,0.2,0l0,0c0.2-0.1,0.4-0.2,0.6-0.2c0-0.1,0-0.1,0-0.1s0,0,0.1,0.1c0-0.1,0-0.1,0-0.1
		c0.2-0.1,0.4-0.1,0.6-0.2c0.6-0.2,1.2-0.4,1.8-0.6c0.1-0.1,0.2-0.2,0.3-0.3c0,0.1,0,0.1,0,0.1c0.1,0,0.1,0,0.1-0.1
		c2.1-1.2,3.9-3,6.2-3.9c0.2-0.1,0.6-0.2,0.8-0.3h0.1c0.6-0.4,1.1-0.7,1.7-1c0,0,0,0,0.1,0.1c0.4-0.3,2.2-1.1,2.3-1.5
		c-0.1-0.2-0.1-0.5-0.2-0.7c-1.4-0.5-2.9,0.2-4.3,0.2c-0.8-0.3-4.5,1-5.5,1.4c-2,0.6-17.1,5.2-17.7,4.9c-0.1,0-0.1-0.1-0.1-0.1
		c-0.1-0.1-0.2-0.2-0.2-0.2c0.4-0.4,1-0.8,1.5-0.8c0.1,0,0.1-0.1,0.2-0.1c1-0.3,1.9-0.6,2.9-0.9c0.2-0.1,0.3-0.2,0.5-0.2
		c0.1,0,0.2,0,0.2,0l0,0c0.2-0.1,0.2-0.1,0.4-0.2l0,0l0,0v-0.1l0.1,0.1l0,0c0.6-0.2,1.3-0.5,1.9-0.6c0.1,0,0.1,0,0.1,0
		c0.4-0.2,0.7-0.2,1.1-0.3c0.1-0.1,0.2-0.1,0.3-0.2c0,0,0,0,0-0.1h0.1c0,0,0,0,0,0.1c0.2-0.1,0.4-0.2,0.6-0.2
		c0.2-0.1,0.2-0.1,0.3-0.2h0.1c0.4-0.2,0.8-0.2,1.2-0.3c0-0.1,0.1-0.1,0.1-0.2c0.2,0,0.3-0.1,0.5-0.1h0.1c0.1-0.1,0.1-0.2,0.2-0.2
		c0,0,0,0,0.1,0c0,0.1,0.1,0.1,0.1,0.2c0.9-0.3,1.7-0.6,2.6-1c0,0,0.1-0.1,0.2-0.1v0.1c0.5-0.2,1-0.5,1.5-0.7
		c0.1-0.1,0.2-0.1,0.3-0.2l0,0c0.4-0.2,0.8-0.3,1.1-0.4h0.1c0.2-0.1,0.3-0.2,0.5-0.2c0,0.1,0,0.1,0,0.1s0.1,0,0.1-0.1
		c0.1,0,0.2,0,0.3,0c0.1-0.1,0.1-0.1,0.2-0.2c0,0.1,0,0.1,0,0.1c0.1,0,0.2,0,0.2-0.1c0.1,0,0.2,0,0.2-0.1c0.1,0,0.2-0.1,0.2-0.1l0,0
		c0.1,0,0.2-0.1,0.4-0.1v-0.1c0.1,0,0.1,0,0.1,0l0,0c0.6-0.2,1.2-0.4,1.8-0.6c0,0,0,0,0-0.1h0.1c0,0,0,0.1,0.1,0.1v-0.1l0,0h0.1
		c0.2-0.1,0.2-0.2,0.4-0.2c0.2-0.1,0.6-0.2,0.8-0.2c0.3,0,0.6-0.1,0.9-0.2v-0.1c0.2,0,0.2,0,0.4,0c0.4-0.2,0.9-0.3,1.3-0.6
		c0,0.1,0.1,0.1,0.2,0.1c0.2-0.1,0.2-0.1,0.4-0.2l0.1-0.1c-0.1-0.9-0.2-1.7-0.2-2.5c0-0.1,0-0.1,0-0.1c-1.6,0.3-3.5-0.5-5.1,0
		c-0.1,0.1-0.1,0.1-0.2,0.1c-1.2-0.2-4.5,1.8-6.1,1.8c-2.9,0.3-5.2-1-8-1c-2,0-3.5,1-5.4,1c0.5-1.1,2.5-1.8,3.5-2.3
		c0.1-0.1,0.2-0.2,0.4-0.2c0.1,0,0.1,0,0.1,0c0.2-0.1,0.3-0.2,0.5-0.2V56c0.2-0.1,0.4-0.2,0.6-0.2l0,0c0.2,0,0.2,0.1,0.4,0.1
		c0-0.1,0-0.1,0-0.2h0.1c0.2,0.1,0.3,0.1,0.5,0.1c1,0,2,0,3,0h0.1l0,0c0.6,0.1,1.2,0.1,1.8,0.2l0,0c0.8,0.1,1.6,0.1,2.3,0.2
		c0.3-0.1,0.6-0.1,0.8-0.2c0.3-0.1,0.6-0.2,0.9-0.2l0,0c0.2,0,0.2,0,0.3,0c0.1,0,0.2-0.1,0.3-0.1c0,0,0,0,0,0.1
		c0.1-0.1,0.1-0.1,0.2-0.2c0,0,0,0.1,0.1,0.1c0.4-0.2,0.8-0.3,1.2-0.6c0,0.1,0,0.1,0,0.1s0.1,0,0.1-0.1c0.2-0.1,0.6-0.2,0.9-0.2
		c0.1,0,0.1,0,0.2-0.1c0.1-0.1,0.2-0.1,0.3-0.2c0.6-0.1,1-0.2,1.6-0.3c0.3-0.1,0.6-0.2,0.9-0.2c0.1,0,0.2-0.1,0.2-0.2
		c0.6,0.1,1,0.2,1.6,0.2c0.1,0,0.2,0,0.2,0c0.4,0.1,0.9,0.1,1.3,0.2c0.6-0.2,1.2-0.6,1.2-1.3c0-0.1,0.1-0.1,0.1-0.2c0,0,0,0-0.1,0
		l0,0l0,0c-0.8-0.1-1.6-0.2-2.4-0.3c-0.2-0.1-0.3-0.1-0.5-0.2c-0.8-0.2-1.6-0.3-2.4-0.5c-1.1-0.4-2.3-0.5-3.6-0.6c0,0.1,0,0.1,0,0.1
		c-1.2-0.2-2.4-0.2-3.6-0.4c-3.6-0.5-7.3-0.8-10.9-1.4c-1.4-0.2-2.8-0.4-4.3-0.6c-0.6-0.2-1.2-0.4-1.8-0.6c0,0-0.1,0-0.1-0.1
		c0.2-0.2,0.2-0.3,0.2-0.3c0.1,0,0.2,0,0.2,0c0.2-0.1,0.3-0.1,0.6-0.2c0.7-0.2,1.3,0.2,1.9,0.2c1.2,0.2,2.3,0.3,3.5,0.5
		c1.3,0.2,2.8,0.2,4.3,0.2c1.4,0.1,2.7,0.2,4.1,0.2c0.9,0.6,6.1,0.6,7.6,0.5l0,0c0-0.1,0.1-0.1,0.1-0.2c0,0.1,0,0.1,0,0.1
		c0.6,0.1,1.3,0.2,1.9,0.2c0.6,0,1.4,0.1,2.1,0.1c0,0,0,0,0-0.1l0.1,0.1c0.2,0.1,0.4,0.1,0.6,0.2l0,0h0.1c0.8,0.2,1.9,0.4,2.9,0.3
		c0.2-0.6,0.3-1.2,0.3-1.9c0.1-0.2,0.2-0.4,0.2-0.6c-1-0.6-1.8-1.4-3.1-1.9c-1.4-0.6-3.1-1-4.8-1.2c-0.9-0.1-1.8-0.2-2.7-0.3
		c-0.8-0.4-1.6-0.7-2.5-1.1c-2-0.9-4-1.9-6.1-2.8c-1-0.5-3.1-1-3.9-1.8c-0.4-0.4,0.2-0.6,0.2-0.9h0.1c0.1-0.1,0.1-0.1,0.1-0.2h0.1
		l0,0c0.7,0.6,2.1,0.2,3,0.3c0.3,0.1,0.6,0.2,0.9,0.2c0.1,0.1,0.2,0.2,0.3,0.2c0.2,0.1,0.5,0.2,0.7,0.3c0.3,0.5,1.8,1.4,2.3,1.4
		c1,1.2,5.4,2.5,7.1,2.7c0.4,0,0.8,0,1.2,0c0.7,0.1,1.4,0.2,2.3,0.2v-0.1h0.1c1,0.3,2.1,0.4,3.1,0.8c0.7,0.4,1.4,0.9,2.1,1.3
		c0.1,0,0.1,0,0.1,0c0.2,0.2,0.5,0.3,0.7,0.5l0,0c0,0,0-0.1,0-0.2c0.4-0.6,0.8-1.4,0.8-2.1c0.1-0.1,0.1-0.1,0.2-0.2l0,0l0,0l0,0
		c-0.7-0.2-1.3-0.7-1.8-1.1c-1.6-1-3.4-2-5.1-2.9c-3.1-1.7-6.2-3.6-9.3-5.4c-2.5-1.4-5.3-2.4-7.6-4.1c-0.5-0.3-0.8-0.7-1-1.2
		c-0.1-0.1-0.1-0.2-0.1-0.2c0,0,0,0,0.1,0c0.1-0.1,0.2-0.2,0.3-0.2l0,0l0,0c1.1,0.6,2.2,1.1,3.2,1.7c1.4,0.8,2.7,1.7,4.2,2.5
		c0.6,0.2,1.3,0.4,1.9,0.6c1.4,0.8,2.7,1.6,4.1,2.4c1.1,0.6,2.2,1,3.3,1.6c0.6,0.3,1.1,0.7,1.7,1c2.3,1.3,4.5,2.2,6.6,3.5
		c0.2,0.2,0.3,0.2,0.5,0.3c0.1,0.1,0.2,0.1,0.3,0.2c0,0,0,0,0-0.1c0.4-0.6,0.9-1.1,1.4-1.8v-0.1c-0.4-0.6-0.8-1-1.2-1.5
		c-0.6-0.9-1.3-1.7-2.2-2.4c-1-0.7-1.9-1.4-3-2.2c-1.9-1.3-3.7-3-4.9-4.8c-0.1-0.1-0.2-0.2-0.2-0.3c-0.4-1.5-3.1-5.1-4.3-6.3
		c-0.1-0.1-0.6-0.7-0.4-0.7c0-0.1,0-0.1,0-0.2c0.1,0.1,0.2,0.1,0.2,0.2c0-0.1,0-0.1,0-0.1c0.3-0.1,0.5,0.2,0.6,0.2v0.1
		c1.2,0.2,4.3,5.6,5.4,6.7c1.2,1.3,2.9,2.2,4.3,3.1c0.6,0.4,1.2,0.8,1.8,1.2c0.2,0.1,0.3,0.2,0.6,0.3c0.6,0.6,1.3,1.1,2,1.6
		c1,1,2,2.1,3,3.1c0.1,0,0.2,0.1,0.2,0.1c0.2-0.3,0.7-1,1.2-1c-0.1-0.2-1-1.5-1-1.5c-0.3-0.6-0.7-1-1-1.5c-0.8-1.2-1.7-2.3-2.2-3.6
		c-0.1-0.2-0.2-0.3-0.2-0.4c-1.3-2.4-3.4-4.4-5-6.6c-0.6-0.9-1.2-1.7-1.8-2.5c0-0.1-0.1-0.2-0.1-0.2c-0.1,0-0.2,0-0.2-0.1
		c-0.1-0.1-0.1-0.2-0.2-0.4c-0.1-0.2-0.2-0.5-0.4-0.6c-0.8-0.8-3.9-4.8-4.2-5.8c0.1-0.2,0.1-0.4,0.1-0.6c0.4,0,9.2,10.8,10.5,12.1
		c0.2,0.1,0.3,0.2,0.5,0.3c0.2,0.8,5.8,8.4,6.3,8.4c0.2,0.8,1.4,1.4,1.5,2.3h0.1c0.2-0.2,0.4-0.3,0.6-0.5c0-0.1,0-0.1,0-0.1
		c0.4-0.2,0.9-0.2,1.4-0.4c0-0.2,0-0.3,0-0.5l0.1-0.1c-0.3-1-0.3-2.1-0.8-3c-1.9-4.1-5.1-7.4-6.2-12c-0.6-2.5,0.2-5.1,0.2-7.5
		c0.2-0.1,0.3-0.2,0.5-0.2c0.5,0.2,0.6,1.4,0.8,1.9c0.1,1,0.2,1.9,0.2,2.9c0.2,2,0.5,3.7,1.3,5.4c0.5,1,1.1,2,1.9,2.7
		c0.5,0.5,1,1,1.4,1.4c1.6,1.9,2.2,4.3,2.6,6.8c0.1,0.5,0.3,1.1,0.3,1.5c0.5-0.2,1-0.3,1.4-0.6l0,0l0,0v-0.1c0.2,0,0.3,0,0.5,0l0,0
		c-0.5-1.6-0.3-3.5-0.7-5.1c-0.8-3.9-1.8-7.8-2.9-11.6c-0.5-1.9-0.7-3.9-1.2-5.7c-0.2-0.9-0.4-1.8-0.6-2.7c-0.1,0-0.1,0-0.2,0V8.4
		c-0.2-0.8-0.2-1.6-0.4-2.4c0-0.2,0.3-0.5,0.3-0.6c0.2,0.1,2,5.3,2.1,5.6c-0.4,1.1,0.6,2.7,0.9,3.6c0.2,1.4,0.5,2.7,0.7,3.9
		c0.6,2.3,1.3,4.7,1.9,7.1c0.7,2.4,1.4,4.8,2.2,7.2c0.2,0,0.2,0,0.3,0.1c0.1-0.1,0.2-0.2,0.3-0.2v0.1c0.2-0.1,0.3-0.2,0.5-0.2
		c0,0,0,0,0.1,0c0,0,0.1,0,0.2,0c0.9-1.5,1.2-3.4,1.2-5.3c0.6-2.8-1-5.5-1.1-8.1c0.1-1.3,0.2-2.7,0.2-3.9c0.1-0.6,0.2-1.3,0.4-1.9
		c0.9-1.5,0.6-4,0.1-5.7c0-0.2,0-0.5,0-0.7V6.7c0.2,0.1,0.6,0.2,0.8,0.2c0.1,0.3,0.2,0.6,0.3,0.9c0.2,1.4,0.6,2.8,0.9,4.2
		c0.2,2.3-0.5,4.4-0.3,6.8c0.2,3.2,1.4,5.7,1.1,8.9c-0.1,0.7-0.2,1.5-0.3,2.3c-0.1,0.4-0.4,2.7,0.1,2.7c0-0.1,0-0.1,0-0.2
		c0.1,0.1,0.1,0.1,0.2,0.1l0.1-0.1c0.6,0,1.2,0,1.8,0l0,0c0.1-0.1,0.3-0.2,0.4-0.3c0.1-0.5,0.2-1,0.2-1.4c0.5-2.2,1-4.4,1.4-6.7
		c0.2-1,0.3-1.8,0.5-2.8c0.9-4.3,1.7-8.4,2.6-12.6C378.4,7.2,378.8,5.8,378.8,4.2C378.8,4.3,378.8,4.3,378.8,4.2z"/>
	<path class="st1" d="M395.1,56.3c0-1.4,0.3-1.8-0.3-2.7c-0.2-0.5-0.4-1.3-0.4-1.8c0.3-0.5-0.5-2.9-0.6-2.9c0-0.4-0.5-1.1-0.3-1.4
		c-0.4-1-1.4-3-1.4-3c-0.4-0.6-0.7-1.1-1-1.8c0.1-0.1-0.8-2.1-1.7-2.6c-0.2-0.2-0.9-0.3-1.4-1c0-0.1-0.4-0.2-0.4-0.2
		c-0.6-0.5-1.9-1.5-2-1.5c-0.6-0.2-1.4-1.3-1.4-1.4c-0.6-0.5-2.8-1.7-3.9-2.1c-1.1-0.3-2.7-0.7-2.7-0.6c-0.2-0.1-1.7-0.4-1.7-0.5
		c-0.9-0.2-1.9,0-2.6-0.2c-0.1,0-0.4,0-0.4,0.1c-0.6-0.1-0.7-0.1-1.4-0.1c0,0-0.4-0.1-0.4,0c-0.1,0-0.1,0.1-0.2,0
		c-0.9-0.2-3.1,0.2-3.1,0.2c-0.1,0-0.2-0.2-0.2-0.2c-0.1,0-0.2,0.1-0.2,0.1c-0.1,0.1-0.2,0.2-0.3,0.2c-0.1,0.1-0.2,0-0.3,0.1
		c-0.1,0-0.2,0.1-0.3,0.1c-0.6,0.4-2.1,0.7-2,0.8h-0.1c-0.2,0-0.2-0.1-0.4-0.1c0.1,0-0.5,0.2-0.5,0.2c-0.5,0.2-0.5,0.2-1,0.4
		c0,0-2.5,0.5-2.5,0.6c-0.5,0.1-1,0.2-1.4,0.4l-0.4,0.2c-0.2,0.2-0.6,0.2-2,0.6c0,0.1-1,0.6-1,0.6l-1.2,0.9c-0.2,0.6-1.4,1.1-1,1.6
		c0,0.1-1,0.6-1,0.6c-0.4,0.6-0.7,1-1.2,1.7l0.1,0.2c-0.1-0.1-1.5,1.3-1.5,1.3c0,0.1-1.1,2.6-1.1,2.6c-0.1,0-0.4,1.3-1,2.1
		c-0.1,0.2-0.2,0.5-0.2,0.7c0,0.7-0.2,1.2-0.3,1.8c-0.1,0-0.5,2.2-0.4,2.2c-0.1,0.1-0.2,0.2-0.3,0.9c-0.2,0.6-0.4,1.8-0.5,2.5v1.4
		c0.1,0.9,0.2,1.4,0.3,2.3l0,0c0.1,1.1,0.9,3.1,0.9,3.1c0,0.2,0.1,0.5,0.1,0.7c0.2,0.7,1,1.9,1.3,2.3h0.1c0.3,0.7,0.7,1.4,1.1,2.2
		c0,0.1,1.6,2,2.2,2.4c0.4,0.3,1.3,1.1,1.3,1.1c-0.1,0.1,1.7,2.2,2.3,2.5c0.4,0.5,1.3,0.9,1.6,1c0.2,0.2,1.9,0.9,2.4,1
		c0.6,0.2,1.3,0.5,1.8,0.6c0,0.1,2.6,0.9,2.7,0.9c0.1,0,1.8,0.2,2.7,0.2c0,0,3.3,0.1,3.6,0c0,0.1,2.7,0.2,3.9,0.1
		c0.8-0.2,1,0,1.3-0.3c1-0.1,3.2-0.8,3.5-0.9c0.3,0,0.6-0.1,0.8-0.1c0.1,0,2.3-1,2.3-1.2l0.6-0.2c2.2-0.3,3.1-1.4,3-1.4
		c0.6-0.4,1.7-1,1.7-1c0.7-0.7,1.8-1.8,2-2.3c0.2-0.5,0.8-1.2,1-1.6c0.5-0.2,1.6-1.4,1.9-2c-0.1-0.7,0.6-1.2,1-1.8
		c1-1.3,1.2-3.7,1.9-4.3c0,0,0.5-2,0.5-3.2C395,57.5,395.1,56.7,395.1,56.3C395.1,56.3,395.1,56.3,395.1,56.3z"/>
	<g>
		<path class="st2" d="M357.4,47.8c0-0.1-0.2,0.2-0.2,0.2l0,0v0.1C357.4,48,357.4,47.8,357.4,47.8z"/>
		<path class="st2" d="M355.5,48.6C355.5,48.6,355.5,48.5,355.5,48.6c0.1-0.1,0.1-0.1,0.2-0.1c0-0.2,0.1-0.6,0-0.7
			C355.5,47.9,355.5,48.3,355.5,48.6C355.5,48.5,355.5,48.5,355.5,48.6L355.5,48.6z"/>
		<path class="st2" d="M365.2,51.6L365.2,51.6c-1-0.2-2.5-0.7-2.7-0.7c-0.8,0.1-2.1,0.6-3.1,0.8c-0.1,0.1-0.2,0.1-0.2,0.2l-1.4,1
			c-0.2-0.1-0.3-0.1-0.4-0.1c-0.2,0.2-0.3,0.2-0.4,0.4c-1,0.9-2.1,1.8-3.1,2.7c-0.2,0.2-0.3,0.5-0.5,0.6c-0.2,0.1-0.4,0.1-0.6,0.2
			c0,0.6,0.6,0.6,1,0.9c0,0,0,0,0.1,0h0.1c0.5,0.2,1.1,0.2,1.7,0.2c1.4,0.4,3,0.6,4.5,0.8c0.2,0,0.3,0,0.5,0c0.2,0,0.5-0.1,0.6-0.2
			c0.2,0.1,0.4,0.1,0.6,0.2c0.2,0,0.5-0.1,0.6-0.1c0.2-0.1,0.4-0.2,0.6-0.2c0.1,0,0.1,0,0.2,0h0.1h0.1l0,0c0.4-0.2,2-1.1,2.2-1.2
			c0,0,0.1-0.1,0.1-0.2v-0.1c0,0-0.1,0-0.2,0c-0.2,0.1-0.4,0.2-0.6,0.3c-0.8,0.2-1.6,0.5-2.4,0.6c-1.3,0.2-2.4,0-3.6,0
			c-0.3-0.3-1.5-0.6-0.9-1.3c0.1-0.1,0.2-0.2,0.3-0.2c0.1,0,0.1,0,0.2,0c-0.1,0-0.1,0-0.1-0.1c0.3-0.1,0.8-0.5,0.8-0.8h0.1
			c0.5,0.2,1.3,0.9,2,0.9l0,0c0.1,0,0.1-0.1,0.1-0.1c-1-0.1-2.1-1.3-1.1-2.2c0.1-0.1,0.2,0.1,0.4,0l0,0c0.2,0,0.3-0.1,0.5-0.1
			c0-0.1,0-0.1,0-0.1h-0.1c-0.1,0-0.3-0.2-0.4-0.1c0-0.2,0.1-0.2,0.1-0.4c0-0.1,0-0.1,0-0.2l0,0c-0.3,0.3-0.6,0.6-1,0.9
			c-0.2,0.4,0,0.7-0.4,1c0,0,0,0-0.1,0c-0.5-0.2-1-0.2-1.5-0.4c0,0.6-0.9,1.1-0.9,1.1c0.3,0.4,0.4,0.9,0.4,1.4
			c-0.7-0.3-1.9-0.6-2.4-1.3c0,0,0-0.1-0.1-0.2c0.2-0.2,0.5-0.3,0.7-0.5c0.6-0.6,1.9-2.5,2.8-2.5c0.3,0,0.6,0,0.8,0
			c0.2-0.1,0.4-0.2,0.6-0.2c0,0,0,0,0-0.1c0,0,0-0.1,0.1-0.1l0,0c0.1,0,0.2,0,0.2,0.1c0.1-0.1,0.2-0.1,0.2-0.2c0,0,0,0,0-0.1
			c0,0,0,0,0.1,0v0.1c0.3-0.2,0.6-0.2,1-0.4c0.2,0,0.3-0.1,0.5-0.1c0.1-0.1,0.2-0.2,0.2-0.2l0,0c0.6,0.1,1.1,0.1,1.6,0.2
			c0.4,0,0.7-0.1,1-0.1c0.1,0,0.2,0,0.2,0v-0.1C365.1,51.7,365.2,51.7,365.2,51.6C365.2,51.6,365.2,51.6,365.2,51.6z"/>
		<path class="st2" d="M366.1,54.9L366.1,54.9c0.2-0.1,0.2-0.2,0.3-0.3l0,0c0.1,0,0.1-0.1,0.1-0.1c0-0.1,0.1-0.2,0.1-0.2l0.1-0.1
			c-0.1,0-0.1,0-0.1,0c-0.5-0.2-1-0.4-1.4-0.6c0,0.1,0,0.2-0.1,0.2l0,0c-0.4-0.2-0.7-0.2-1-0.3c-0.3-0.4-1-0.3-1.4-0.6
			c0.2,0.2,1.6,0.9,1,2.3c-0.1,0.1-0.2,0.2-0.3,0.6c0,0,0,0.2-0.1,0.2c0,0,0,0-0.1,0l0,0c0.1,0,0.2,0,0.2,0c0.2-0.2,0.3-0.4,0.5-0.6
			c0-0.2,0-0.8,0.5-0.7c0.2,0.2,0.3,0.4,0.6,0.6c0.1,0.1,0.2,0.2,0.3,0.2c0,0,0,0,0-0.1h0.1C365.6,55.1,365.8,55.1,366.1,54.9
			L366.1,54.9z"/>
		<path class="st2" d="M375.7,66.7C375.8,66.7,375.8,66.7,375.7,66.7c1.1-0.1,1.7-1.1,0.4-1.4c-1.4,0.5-2.7,1.2-4.3,1.2
			c-0.2,0-0.4,0.1-0.6,0.1c-0.1,0-0.2,0-0.2,0c-0.3,0.1-0.6,0.2-0.9,0.4c-0.3,0.2-0.6,0.4-0.8,0.6c0,0,0.1,0,0.1,0.1l0,0
			c0.6,0,1.4,0.2,1.9,0c0,0,0-0.1,0.1-0.1l0,0c0.2,0,0.5-0.1,0.7-0.1c0,0,0,0,0.1-0.1c0.3,0,0.7-0.1,1-0.2c0.2-0.1,0.6-0.1,0.8-0.2
			c0,0,0,0,0,0.1c0.2-0.1,0.4-0.2,0.6-0.2c0,0,0,0,0-0.1c0.3,0,0.6-0.1,1-0.1C375.6,66.8,375.7,66.7,375.7,66.7z"/>
		<path class="st2" d="M389.2,48.1L389.2,48.1L389.2,48.1L389.2,48.1c0.1-0.1,0-0.2,0-0.2C389.2,47.9,389.1,47.9,389.2,48.1
			C389.1,48,389.1,48,389.2,48.1L389.2,48.1z"/>
		<path class="st2" d="M388.6,46.1c0.1,0.1,0.1,0.1,0.2,0.1c0-0.1,0.1-0.2,0.1-0.2c0,0-0.1,0-0.1-0.1
			C388.7,45.9,388.6,46.1,388.6,46.1C388.5,46.1,388.5,46.1,388.6,46.1L388.6,46.1z"/>
		<path class="st2" d="M389,44.9c-0.1-0.1-0.1-0.2-0.2-0.2C388.9,44.8,389,44.9,389,44.9C389,45,389,45,389,44.9z"/>
		<path class="st2" d="M384.9,43.8c-0.2-0.1-0.2-0.2-0.3-0.2c0,0,0,0-0.1,0c-0.1,0.2-0.2,0.3-0.3,0.5c0.3,0.5,0.6,1,1,1.5
			c0,0,0,0,0.1,0c-0.2-0.3-0.5-0.8-0.4-1.2c0.1-0.2,0.2-0.3,0.3-0.5h0.1c0.2,0.5,0.4,0.9,0.6,1.4c0.2,0.7,0.1,1.9,1.1,1.8
			c0,0.1,0,0.2,0,0.2c0.2,0.2,0.3,0.3,0.5,0.5h0.1c0-0.1,0-0.1,0-0.1l0,0c0.1-0.2,0.2-0.6,0.4-0.6c0,0,0,0,0-0.1
			c0.2,0.2,0.4,0.5,0.7,0.5c0-0.1,0-0.1,0-0.1c-0.2-0.2-0.3-0.4-0.5-0.6c0.1-0.2,0.2-0.5,0.2-0.7c0.1-0.2,0.1-0.3,0.2-0.6v-0.1
			c-0.3-0.3-0.6-0.6-0.9-1c-0.2,0.1-0.4,0.1-0.6,0.2c-0.1-0.2-0.2-0.7,0-0.9c0.2-0.1,0.6,0.2,0.6,0.5c0.1,0,0.1,0,0.1,0
			c0-0.1,0-0.1,0-0.1s0,0,0.1,0c0,0,0-0.1,0.1-0.1c-0.1-0.2-0.2-0.3-0.2-0.5c0.2,0,0.5,0,0.6,0h0.1c-0.2-0.3-0.6-0.6-0.8-1l0,0
			c-0.1,0-0.1,0-0.1,0s0,0-0.1,0c-0.4,0.4-0.3-0.1-0.6-0.1c0.2-0.1,0.3-0.1,0.4-0.1c0-0.1,0-0.1,0-0.1c0.1-0.5-0.4-1-0.7-1.1
			c-0.1,0.5,0,1.9,0.2,1.9c0,0.2,0.1,0.2,0.1,0.4c-0.1,0-0.2,0.1-0.3,0.2c-0.1,0-0.4,0.6-0.4,0.3c0,0-0.1,0-0.1,0.1
			c0-0.5,0.1-1,0.1-1.4c-0.1-0.4-0.4-1-0.4-1.3c-0.1,0-0.1,0-0.2,0C384.9,42.2,384.8,42.9,384.9,43.8z"/>
		<path class="st2" d="M380.6,37c-0.1,0-0.1,0-0.2,0C380.5,37,380.6,37.1,380.6,37C380.6,37.1,380.6,37.1,380.6,37z"/>
		<path class="st2" d="M381.2,37.7c0,0.2,0.1,0.3,0.1,0.4c0,0.1,0,0.1,0,0.1s0,0,0.1,0c0.2,0.1,0.2,0.2,0.2,0.5
			c0.2,0,0.4,0.1,0.6,0.1c-0.1,0.4-0.1,1-0.6,1c0.1,0.2,0.2,0.3,0.3,0.5c0,0,0,0,0.1,0l0,0c0-0.2,0.1-0.5,0.1-0.7
			c0.2-0.2,0.4-0.2,0.6-0.3c0.1,0.2,0.1,0.2,0.1,0.4c0,0.1,0.2,0.2,0.2,0.1c1.1,0-0.3,1.5,0.5,1.5v-0.1l0,0c0-0.2-0.1-0.2-0.2-0.4
			c0.1-0.1,0.2-0.2,0.2-0.2l0,0l0,0c0.1,0.1,0.1,0.1,0.1,0.1c0.1,0,0.2,0,0.2,0c0.1,0,0.1,0,0.1,0c0,0.3-0.3,0.5-0.3,0.7
			c0,0,0,0,0.1,0c0.1,0.1,0.2,0.2,0.4,0.2c0,0.3-0.3,0.3-0.6,0.3c0.1,0,0.1,0.1,0.1,0.1c-0.1,0-0.1,0-0.1,0c0,0.2,0.1,0.8,0.2,0.8
			v-0.1c0.1-0.2,0.1-0.2,0.2-0.4c0.6-0.3,0.4-0.6,0.4-1.1h0.1v-0.1c0.1,0,0.1,0,0.1,0c0.2,0.2,0.3,0.2,0.5,0.4
			c0.7-1.1-0.1-0.8-0.1-1.4c-0.3-0.2-0.6-0.5-1-0.7c-0.6-0.2-1-0.6-1.3-1.2l0,0c-0.1-0.5-1-0.7-1-0.7c-0.1,0-0.1,0.1-0.2,0.1
			c-0.2-0.2-0.6-0.3-0.9-0.5C380.8,37.3,380.9,37.7,381.2,37.7z"/>
		<path class="st2" d="M382.8,41.9L382.8,41.9c-0.1-0.2-0.2-0.3-0.3-0.5c0.1,0.2,0.1,0.4,0.2,0.6L382.8,41.9z"/>
		<path class="st2" d="M382.5,40.9L382.5,40.9c0.1-0.1,0.1-0.2,0.2-0.3c0,0-0.1-0.1-0.1-0.2c0,0.1,0,0.1,0,0.1c-0.1,0-0.2,0-0.3,0
			C382.4,40.7,382.4,40.8,382.5,40.9z"/>
		<path class="st2" d="M381.3,39.1c-0.2-0.2-0.2-0.5-0.3-0.6c-0.1,0-0.2,0-0.2,0c0.1,0.2,0.2,0.4,0.4,0.6
			C381.2,39.1,381.2,39.1,381.3,39.1C381.2,39.1,381.2,39.1,381.3,39.1L381.3,39.1z"/>
		<path class="st2" d="M381.2,40.4C381.2,40.4,381.2,40.4,381.2,40.4c0.1-0.2,0.1-0.3,0-0.5C381.2,40.1,381.2,40.3,381.2,40.4z"/>
		<path class="st2" d="M379.6,38.7c0.2,0.1,0.3,0.1,0.5,0.2v-0.1l0,0c0.1-0.1,0.2-0.1,0.2-0.2l0,0c-0.2-0.1-0.4-0.1-0.6-0.2
			C379.6,38.5,379.6,38.6,379.6,38.7z"/>
		<path class="st2" d="M379.3,40.8c0.1-0.2,0.1-0.3,0.2-0.5c-0.2-0.1-0.3-0.1-0.4-0.1C379.1,40.4,379.1,40.7,379.3,40.8L379.3,40.8z
			"/>
		<path class="st2" d="M378.9,39.9C378.9,39.9,378.9,39.9,378.9,39.9L378.9,39.9C378.9,39.9,378.9,39.9,378.9,39.9
			c0.1,0,0.1-0.1,0.2-0.1c-0.1-0.2-0.1-0.2-0.2-0.3C378.9,39.5,378.7,39.9,378.9,39.9z"/>
		<path class="st2" d="M380,39.6c-0.2-0.1-0.2-0.2-0.4-0.3c0.2,0.4,0.6,0.7,0.6,1.1c0,0,0,0,0.1,0v0.1c0,0,0,0,0.1,0
			c0-0.1,0-0.1,0-0.1c0-0.1,0-0.1,0-0.1C380.3,40.1,380.1,39.9,380,39.6z"/>
		<path class="st2" d="M379.3,39.1C379.3,39.1,379.3,39.1,379.3,39.1c0-0.1,0-0.2-0.1-0.2C379.2,39,379.2,39,379.3,39.1
			C379.2,39.1,379.2,39.1,379.3,39.1C379.3,39.1,379.3,39.1,379.3,39.1z"/>
		<path class="st2" d="M355,47.3L355,47.3L355,47.3C355,47.3,355,47.3,355,47.3z"/>
		<path class="st2" d="M372.8,68.6c-0.3,0-0.6-0.1-0.9-0.1c0-0.1,0-0.1,0-0.2c-0.2,0-0.2,0-0.4,0c0,0.1,0,0.1,0,0.1
			c-0.2,0.2-0.4,0.2-0.6,0.4c-0.5,0.2-0.5,1-0.6,1.5c0,0.1-0.1,0.2-0.1,0.3c-0.2,0.1-0.3,0.2-0.5,0.4h-0.1c-0.2-0.2-0.5-0.2-0.7-0.4
			c-0.1,0-0.1,0-0.2,0c-1.2-0.6-2.4,0.9-3.2,0.5c-0.3-0.2-0.2-1.8-0.3-2.3c-0.1-0.6-1.1-2-1.1-2c-0.7-0.6-1.9-0.9-1.9-2
			c0,0,0-0.1,0.1-0.1c0,0,0,0,0.1,0c0.1,0.1,0.1,0.2,0.2,0.2c0.7,0.2,1.4,0.5,2,0.7l0,0c0.2-0.1,0.3-0.2,0.5-0.2c0,0,0,0,0.1,0
			c0.2-0.1,0.6-0.2,0.6-0.6c0.1-0.4-1.5-2.3-1.8-2.9c0-0.1-0.1-0.1-0.1-0.1c0-0.1,0-0.2,0-0.2c-0.2-0.4-0.1-0.7-0.2-1.1l0,0v-0.1
			c-0.5,0-1,0-1.4,0c-0.6,0.1-1.1,0.2-1.7,0.3c0.2,1,2.3,2.2,0.3,2.4c-0.2,0-0.3,0-0.5,0c-1.2-0.6-2.1-1.5-3.2-2.3
			c-0.6-0.4-2.4-1.3-2.7-1.8c-0.1-0.2-0.2-0.2-0.2-0.4l0,0c-0.2,0-1.1-0.1-1.1-0.1c-0.1,0.4,0.5,2-0.2,2c-0.2-0.1-0.6-0.2-0.6-0.5
			c-0.3-0.2-0.6-0.5-0.6-0.8c0.1-0.2,0.2-0.3,0.3-0.5c0.2,0,0.3,0,0.4,0.1c0-0.1,0-0.1,0-0.1c-0.1-0.1-0.1-0.2-0.2-0.2
			c-0.7-0.3-0.6-0.8-0.6-1.5c0,0,0.1-0.1,0.1-0.2c0.1,0,0.2-0.1,0.2-0.1v-0.1V57l0,0c0-0.2,0.1-0.2,0.1-0.4c0.1,0,0.1,0,0.1,0
			c0.2-0.2,0.2-0.4,0.4-0.6c0-0.1,0-0.2,0-0.2l0,0c0.1,0,0.2-0.1,0.2-0.1c0.2-1-0.4-1.9-0.3-2.8c0-0.4,0.6-0.7,0.6-1
			c0.4,0.4,0.3,0.9,0.4,1.4l0,0l0,0h0.1c0.1-0.5,0.2-1,0.2-1.5c0-0.2,0-0.3,0-0.5l0,0c-0.2,0.2-0.2,0.3-0.3,0.6c-0.1,0-0.2,0-0.2,0
			c0-0.1-0.2-0.6,0-0.6c0-0.6,0.5-1,0.4-1.4c0.1,0,0.1,0.1,0.1,0.1c0.2,0,0.3,0,0.5,0.1l0,0c0.1,0,0.2,0,0.2,0h0.1
			c0.1-0.1,0.1-0.2,0.2-0.2l0,0c0-0.1,0-0.1,0-0.1c-0.1,0-0.2,0.1-0.2,0.1c-0.1-0.2-0.1-0.4-0.1-0.6c0.2-0.2,0.3-0.2,0.6-0.3
			c-0.1,0-0.1,0-0.1,0c-0.2-0.2-0.4-0.4-0.6-0.6c-0.3-0.2,0.1-0.2,0.1-0.5c0,0,0,0,0-0.1h0.1c0,0,0.1,0.1,0.1,0.2c0-0.1,0-0.1,0-0.2
			c0-0.1,0.1-0.2,0.1-0.3v-0.1c0,0,0.1,0,0.2,0V47c0.1,0,0.1,0,0.1,0l0,0c0.1,0,0.1,0,0.1,0c0.1,0,0.2,0,0.2,0.1c0,0,0,0.1-0.1,0.2
			c0.2-0.2,0.5-0.3,0.6-0.5c0.2,0,0.4,0.6,0.5,0.6c0.1-0.1,0.1-0.1,0.1-0.1c0.1-0.4,0.2-0.7,0.2-1.1c0.1,0,0.1,0,0.1-0.1
			c0.2,0.1,0.7,1.1,1,1.1c0,0,0,0,0,0.1c0,0,0,0,0-0.1c0.1-0.2,0.1-0.4,0.1-0.6c0.1-0.1,0.2,0,0.2,0c0.1,0.2,0.2,0.3,0.2,0.6
			c0.1,0,0.2,0,0.2,0c0.2-0.1,0.3-0.2,0.5-0.2c0-0.1,0.1-0.1,0.1-0.1c0.1,0,0.1,0,0.1,0c0-0.1,0-0.2,0-0.2c0.2-0.4,0.5,0.1,0.6,0.1
			c0.1,0,0.2,0.1,0.2,0.1v-0.1c0-0.2,0-0.4,0-0.6l0.1-0.1c0,0,0,0,0.1,0.1c0.3,0.2,0.7,0.5,1.1,0.7h0.1c0-0.1,0-0.7,0.2-0.6
			c0.1,0.2,0.2,0.3,0.2,0.5l0,0h0.1c0,0,0,0,0-0.1c0.1-0.3,0.2-0.6,0.3-0.9c0.3,0.2,0.8,0.3,1,0.5c0-0.3,0.1-0.6,0.1-0.7
			c0,0,0.2,0,0.2,0c0.1,0.1,0.1,0.2,0.2,0.2c0,0,0,0-0.1,0.1c0,0,0,0.2-0.1,0.2c0,0.2,0.1,0.2,0.1,0.4c0.2,0,0.3-0.1,0.5-0.1l0,0
			l0,0c-0.2-0.6-0.6-1.1-0.4-1.8c0.3,0.4,0.6,0.8,0.9,1.1c0.1-0.1,0.2-0.2,0.2-0.2h0.1c0-0.1,0-0.1,0-0.1c-0.1,0-0.2-0.1-0.2-0.1
			c0-0.2-0.1-0.7,0.1-0.7l0,0c0.1,0.1,0.2,0.1,0.2,0.2c0.1,0.2,0.2,0.5,0.2,0.7c0.1,0,0.1,0.1,0.1,0.1c0.3,0.2,0.6,0.4,1,0.6
			c0.2-0.1,0.2-1.1,0.6-0.7c0.2,0.1,0.2,0.6,0.5,0.6v-0.1l0,0c-0.1-0.2-0.2-0.2-0.2-0.3c0-0.1,0-0.1,0-0.2c0.1,0,0.1,0,0.2-0.1
			c0-0.2,0.1-0.4,0.1-0.6c0.1,0,0.2,0,0.2,0V45c0.2,0.2,0.2,0.4,0.3,0.6c0,0.5,0.7,0.7,0.7,0.7c0.1,0.2,0.2,0.5,0.2,0.7
			c0,0.1,0,0.1,0,0.1c0.1,0,0.1,0,0.1,0c0.1-0.2,0.2-0.3,0.2-0.5l0,0c0.1,0.1,0.1,0.1,0.2,0.1c0.1,0.2,0.2,0.5,0.3,0.7
			c0,0,0,0-0.1-0.1c0.1,0,0.1,0,0.1,0c0-0.2,0-0.4-0.1-0.6c0-0.1,0-0.1,0-0.1c0-0.3-0.1-0.6-0.1-0.9c0.1-0.1,0.2-0.2,0.4-0.3
			l0.1-0.1c0,0,0,0,0,0.1l0,0c0,0.6,0.5,1.1,0.6,1.7c0.1,0,0.2,0,0.2,0c0,0,0.1,0,0.1-0.1c-0.1,0.5-0.2,1-0.3,1.4
			c-0.2,0.7-0.2,1.7-1.1,0.9c-0.2-0.2-0.2-0.2-0.3-0.4c-1.5-0.9-3-1.4-4.8-1.8c-0.2-0.1-0.4-0.2-0.6-0.2c-0.1,0-0.1,0-0.1,0
			c-0.2,0-0.2-0.1-0.3-0.2c0,0-1.6,0.7-2.2,0.7c-0.1,0.1-0.2,0.1-0.3,0.2c-0.2-0.1-1.3,0.2-1.3-0.2c-0.2,0-0.6,0-0.8,0
			c0,0-0.1,0,0,0c0,0.3,0,0.6,0,0.9c-0.2-0.1-0.9,0.2-1.3,0.2c-0.2,0.3-1.4,1.7-1.4,1.8c0-0.1,0-0.1,0.1-0.1c1-0.5,1.8-0.9,2.8-1.4
			c0.2,0,0.3-0.1,0.5-0.2c0.1,0,0.1,0,0.1,0c0.1,0,0.2,0.1,0.2,0.1c0.2-0.1,0.4-0.1,0.6-0.2l0,0c0.1-0.1,0.2-0.2,0.4-0.2
			c0.1,0,0.1,0,0.1,0c0.1-0.1,0.2-0.1,0.2-0.2c0.5,0,1-0.1,1.4-0.2c0.1,0,0.2,0,0.4,0v-0.1l0,0v0.1c0.4-0.1,0.8-0.1,1.2-0.2
			c0.5-0.1,1,0.2,1.4,0.3c2.2,0.9,3.9,2.7,4.3,4.9c0.1,0.4,0.2,0.7,0.2,1c0.1,0.1,0.8,1,0.6,1c-0.2,0.3-0.2,0.8-0.6,0.8v0.1l0,0
			c0,0.2-0.2,0.5-0.2,0.4c-0.1-0.1-0.2-0.2-0.3-0.4c0,0,0,0-0.1,0c0,0,0,0,0,0.1c-0.6,0.8,0.2,2-0.2,3c0,0.1-0.1,0.1-0.1,0.1
			c-0.2,0.4-0.4,0.8-0.6,1.3c-0.7,0.3-0.6,1.5,0.4,1.4c0.1,0,0.1,0,0.2,0h0.1c0.2-0.2,0.5-0.3,0.7-0.5c0.1-0.2,0.7-0.7,0.7-0.8
			c0.3,0,0.6,0.1,1,0.2v0.1c0.2,0.3,1,1,0.5,1.4c-0.5,0.5-1.6,0-2.3,0.5c-0.2,0.4-0.3,0.8-0.6,1.2c-0.2,0.3-0.3,0.7-0.5,1
			c0.3,0,0.6,0.1,0.8,0.1c0.3-0.1,0.6-0.2,0.9-0.2c0.1,0,0.7,0.2,0.7,0l0,0c0.1,0,0.2-0.1,0.2-0.1c0.6,0,2.9-0.1,2.9-0.9h0.1
			c0.2,0,0.3,0,0.5,0c0.1-0.1,0.2-0.1,0.2-0.1c0,0,0,0,0,0.1c0.2-0.1,0.5-0.2,0.8-0.2c0.1,0,0.2-0.1,0.4-0.1c0-0.1,0.1-0.1,0.1-0.2
			l0,0c0.1,0,0.2,0,0.2,0c0.2,0,0.9-0.2,0.9-0.3l0,0c0-0.1,0-0.1,0-0.1c-0.3-0.1-0.7-0.2-1.1-0.3c0,0,0,0.1-0.1,0.1
			c-0.2-0.2-0.6-0.5-0.9-0.6c-0.2,0-0.3,0.1-0.5,0.2c-0.1-0.1-0.2-0.1-0.2-0.1c-0.2,0.6-0.2,1.8-1.3,1.6c0,0-0.1,0-0.2,0
			c-0.6-0.6-1.1-1.4-0.2-1.9c0.2-0.2,0.3-0.2,0.5-0.3c-0.1-1.9,2.1-1.8,2.1-1.3c0.1,0,0.2,0,0.4,0c0-0.1,0-0.1,0-0.1
			c0.3-0.1,0.7,0,1-0.2c0.4-0.4-0.1-1.2-0.6-1.2c0,0,0-0.1,0-0.2c-0.2-0.1-0.3-0.2-0.5-0.2c-0.7-0.1-2.9-0.6-3-1.4
			c-0.1,0-0.2-0.1-0.2-0.1c-0.3-0.8-0.6-1.6-1-2.4c-0.2-0.8-0.2-1.7-0.4-2.5c-0.1-0.9,0.2-1.7,0.2-2.4c0.1-0.2,0.2-0.3,0.3-0.5
			c0.1-0.4,1.7-3.1,2.2-3.1h0.1c0.3-0.1,0.6-0.2,0.8-0.3c0.2-0.2,0.6-0.3,0.9-0.6c0,0,0-0.1,0-0.2c0.2,0,0.2,0,0.4,0
			c0.1,0,0.2-0.1,0.2-0.2c0.2,0.1,0.2,0.1,0.4,0.1c0,0,0,0,0,0.1c0.2-0.1,0.3-0.2,0.5-0.2c0-0.1,0-0.1,0.1-0.1c0,0,0.1,0,0.1-0.1
			c0,0,0-0.1-0.1-0.1c0.1,0.1,0.2,0.1,0.2,0.2c0.1-0.1,0.2-0.1,0.3-0.2l0,0c0.1,0,0.2-0.1,0.2-0.1c0.1,0,0.2-0.1,0.2-0.2h0.1
			c0,0.1,0,0.1,0,0.1s0.1,0,0.2,0l0,0l0,0h0.1c0.2,0,0.3,0,0.4,0c0-0.1,0-0.1,0-0.1c0.1,0,0.1,0,0.1,0s0,0,0,0.1
			c0.2-0.1,1.2,0,1.2-0.2c0.6,0.1,1.3,0.2,1.9,0.2c0-0.1,0-0.1,0.1-0.1c0,0,0.1,0,0.1,0.1c0.2,0,0.4,0,0.6,0c-0.2-0.8-2.7-1.1-3.5-1
			c-0.6,0.1-0.7,0.5-1.3,0.3c-0.2,0-0.3-0.1-0.5-0.1c-0.6-0.2-1.3,0-1.8,0.1c-0.1,0-0.2,0-0.2,0c0,0,0,0-0.1,0c0-0.1,0-0.2,0-0.3
			v-0.1c-0.2,0-0.4,0-0.6,0c-0.1,0.2-0.1,0.2-0.2,0.3c-0.1,0.2-0.2,0.4-0.2,0.6c-0.1,0-0.1,0-0.1,0l-0.1-0.1
			c-0.1-0.2-0.2-0.3-0.2-0.5c0.3-0.4,0.9-1.8,1.6-1.8l0,0c0.1,0.1,0.2,0.1,0.2,0.2c0.2,0,0.2-0.1,0.3-0.2l0,0c-0.4-0.4,0-0.5,0-0.9
			c0.1,0.1,0.2,0.2,0.3,0.2c0,0,0,0,0.1,0c-0.1-0.2-0.5-1.2,0.1-1.2c0.4,0.4,0.8,0.8,1.2,1.3c0,0,0,0,0,0.1c0.1,0,0.1,0,0.1,0
			c0-0.2,0.1-0.6-0.1-0.6c0-0.1,0-0.1,0-0.2c-0.2-0.4-0.4-0.7-0.4-1.2c0,0,0,0,0-0.1c0.1,0.1,0.1,0.1,0.2,0.1c0,0,0.1,0,0.2,0
			c0.3,0,1.1,0.1,1.1,0.5c0,0,0,0,0.1,0c-0.5-0.9-0.5-0.7-1.5-0.6c0-0.2,0-0.4,0-0.6h-0.1c-0.1,0.2-0.6,1-0.8,0.4
			c-0.1-0.3,0.2-0.6,0.3-0.9c-0.1-0.2-0.1-0.6-0.1-0.9c0,0,0.1-0.1,0.1-0.2c0.4-0.2,0.6,0.7,0.8,0.7c0-0.1,0-0.1,0-0.1s0,0,0,0.1
			c0.1,0,0.1,0,0.1,0c0-0.1,0.1-0.1,0.1-0.1c-0.1-0.2-0.1-0.3-0.2-0.4c0.1-0.1,0.2-0.1,0.2-0.1h0.1c-0.1-0.2-0.8-1-0.5-1.1
			c0.4-0.2,0.6,0.5,0.8,0.5c0,0,0,0,0,0.1c0.1,0,0.1,0,0.1,0c0.1-0.4,0.4-0.6,0.8-0.6h0.1h0.1c-0.3-0.4-1-0.9-1.5-1
			c-0.1,0-0.2,0-0.2,0c0,0-0.1,0-0.1,0.1c0,0-0.1,0-0.1-0.1c-1.7-1-3.4-0.7-5.5-0.8c-0.3,0-0.7-0.1-1.1-0.2
			c-0.2-0.1-0.3-0.2-0.5-0.2l-0.1,0.1c0,0.1,0,0.2-0.1,0.2c-0.8,0.2-1.7,0.2-2.5,0.4c-0.1,0-1-0.2-1.6-0.1V35l-3.2,1
			c-0.2,0-0.3-0.1-0.4-0.1c-0.5,0.3-1.4,0.8-1.8,0.8c-0.2,0-0.4,0-0.6,0.1c0,0,0,0-0.1,0c-0.1,0.2-0.5,0.6-0.8,0.6
			c0-0.1-0.1-0.1-0.1-0.1c0-0.1,0-0.2,0-0.2c-0.1,0-0.1,0-0.1,0c-0.2,0.3-0.3,0.7-0.6,1c0,0,0,0.2-0.2,0.2c-0.1,0-0.1-0.1-0.1-0.2
			c-1.9,0.1-7.2,5.8-7.1,7.5c-0.4,0.4-1.3,2.3-1.4,2.9c0,0.2,0,0.3,0,0.5c0.1,0,0.2,0.1,0.2,0.1s0.1,0,0.1,0c0,0.1,0,0.1-0.1,0.1
			c-0.6,0.6-1.4,1.4-1.3,2.4c0,0.1,0,0.1,0,0.2c0.2,1.1-0.3,2.4-0.3,3.5c0,1.6,0.2,3.1,0.7,4.5c0.2,0.3,0.3,0.6,0.5,0.9
			c0.6,1.6,1,3,2.7,3.7c0.2,0.1,0.5,0.2,0.6,0.2c0.2,0,0.2,0,0.3,0c0.2,0.2,0.4,0.3,0.6,0.5c-0.1,0.4,0.3,1,0.7,1c0,0,0,0,0-0.1
			c0.1,0,0.1-0.1,0.2-0.2c0.3,0.4,0.6,0.7,1,1.1v-0.1c0.1,0,0.2,0,0.2,0l-0.1,0.1c0.1,0.2,0.2,0.3,0.2,0.6c0,0,0,0-0.1,0h-0.1
			c-0.6,0.2-1-0.4-1.6-0.3c-0.8,0.2-0.5,1-0.2,1.3c0.3,0.4,0.6,0.7,1,1c0.6,0.9,1.7,1.5,2.6,2c0.1,0.1,0.2,0.1,0.2,0.1
			c0.5,0.3,1.2,1.2,1.8,1.2c0.6,0.6,2.1,1.2,3.1,1.2c0.5,0.2,0.9,0.2,1.3,0.4c1.4,0.6,2.8,1.3,4.5,1.2c0.1-0.1,0.1-0.1,0.2-0.1
			c-0.3-0.2-0.6-0.6-1-0.8h-0.1c0.1-0.1,0.2-0.1,0.3-0.2c0.1,0.1,0.2,0.2,0.2,0.2c0.2,0.1,0-0.1,0-0.1c-0.1-0.1-0.2-0.1-0.3-0.2
			c-0.1,0-0.2,0-0.2-0.1c0,0-0.1,0-0.1,0.1c0-0.1,0-0.1,0-0.1c0.4,0,0.9-0.1,1.3-0.1c0.3,0.1,0.7,0.2,1,0.3c0,0,0.1,0,0.2,0
			c0,0,0,0,0.1,0l0.1-0.1c0.1,0.1,0.1,0.1,0.2,0.2c0.9,0.1,1.9,0.2,2.7,0.2c0.2,0,0.2,0,0.4-0.1c0.1,0,0.2,0,0.3,0
			c0.2-0.1,0.3-0.2,0.5-0.2c0.4-0.1,2.7-1.4,2.7-1.4c0.1,0,0.1,0,0.1,0c0.1,0,0.1,0.1,0.1,0.1v-0.1c0.3-0.2,1.2-0.9,1.2-1.3
			c0-0.1,0-0.1,0-0.2c0.3-0.5,0.4-0.9,0.4-1.5C378.2,67.8,374.3,68.5,372.8,68.6z"/>
		<path class="st2" d="M352.8,65.7L352.8,65.7c-0.1,0-0.2,0-0.2,0c0,0.1,0,0.1-0.1,0.1c0,0,0,0,0,0.1c0.1,0,0.2,0,0.2,0
			C352.8,65.8,352.8,65.8,352.8,65.7L352.8,65.7z"/>
		<path class="st2" d="M378.5,41.6L378.5,41.6C378.6,41.6,378.6,41.6,378.5,41.6c0.1-0.1,0.1-0.2,0.1-0.2c-0.1,0-0.2,0-0.3-0.1
			C378.3,41.4,378.4,41.5,378.5,41.6z"/>
		<path class="st2" d="M377.9,41.2C378,41.2,378,41.2,377.9,41.2c0.1-0.2,0-0.3,0-0.5C377.9,40.8,377.9,40.9,377.9,41.2L377.9,41.2z
			"/>
		<path class="st2" d="M378.7,38.6c0-0.1-0.1-0.1-0.2-0.1c0,0,0,0.1,0,0.2v0.1c0,0,0.1,0,0.2,0V38.6L378.7,38.6
			C378.7,38.6,378.7,38.6,378.7,38.6z"/>
		<path class="st2" d="M377.1,38.7c0.1,0.1,0.2,0.1,0.2,0.2c0.1,0,0.1,0,0.1,0l0,0c0-0.2-0.1-0.3-0.2-0.4
			C377.2,38.5,377.2,38.6,377.1,38.7z"/>
		<path class="st2" d="M378,38.7L378,38.7C378,38.7,378,38.7,378,38.7c0-0.2,0-0.3,0-0.4c0,0-0.1,0-0.1,0.1
			C377.9,38.5,377.9,38.6,378,38.7z"/>
		<path class="st2" d="M378,38.3C378,38.3,378,38.3,378,38.3L378,38.3C378,38.3,378,38.3,378,38.3z"/>
		<path class="st2" d="M379.3,37.4C379.4,37.4,379.4,37.4,379.3,37.4L379.3,37.4c0.2-0.2,0.2-0.5,0.3-0.7c0.1,0,0.2,0,0.2-0.1
			c0-0.1-0.1-0.2-0.2-0.2c0,0.2-0.2,0.2-0.3,0.2c0,0.1,0,0.1,0,0.2c0,0.1-0.1,0.2-0.1,0.2C379.3,37.1,379.3,37.2,379.3,37.4z"/>
		<path class="st2" d="M387.6,62.8c0.2,0.2,0.2,0.6,0.4,0.6C388.3,63.1,387.7,62.9,387.6,62.8z"/>
		<path class="st2" d="M378.2,47.6c0.2-0.1,0.2-0.2,0.4-0.2c-0.2-0.1-0.3-0.2-0.4-0.2c-0.5,0.2-3.3,1.4-3.3,1.9h0.1c0,0,0,0,0,0.1
			c0.2-0.1,0.3-0.2,0.5-0.2c0,0,0,0,0.1,0l0,0c0.4-0.2,0.8-0.4,1.2-0.6c0.3,0,0.7,0,1.1-0.1c0.1,0,0.2,0,0.2-0.1l0,0
			c0-0.2-0.1-0.2-0.1-0.3C378,47.7,378.1,47.7,378.2,47.6L378.2,47.6z"/>
		<path class="st2" d="M383.2,48.7c-0.2-0.1-0.5-0.2-0.6-0.3c0-0.1,0-0.1,0-0.2c-0.4-0.1-0.9-0.2-1.4-0.2c0.1,0.1,0.6,0.3,0.6,0.2
			c0.1,0,0.2,0,0.2,0c0.2,0.1,0.2,0.2,0.3,0.2h0.1v-0.1c0.1,0.1,0.2,0.2,0.2,0.2C382.8,48.6,383,48.7,383.2,48.7z"/>
		<path class="st2" d="M379.8,48.1L379.8,48.1c0.2-0.1,0.4-0.1,0.6-0.1l0,0v-0.1c-0.2,0-0.3,0-0.6-0.1
			C379.8,47.9,379.8,48,379.8,48.1z"/>
		<path class="st2" d="M383.8,67.7L383.8,67.7c-0.1,0.1-0.5,0.6-0.3,0.6c0.2-0.2,0.3-0.3,0.5-0.6C383.9,67.7,383.9,67.8,383.8,67.7
			C383.8,67.8,383.8,67.8,383.8,67.7z"/>
		<path class="st2" d="M382.7,68c0,0,0.1,0,0.2,0c0,0,0.2,0.1,0.2,0.2c-0.1-0.2-0.2-0.5-0.2-0.7C382.8,67.7,382.8,67.8,382.7,68z"/>
		<polygon class="st2" points="383.1,68.2 383.2,68.2 383.1,68.2 		"/>
		<path class="st2" d="M383.3,68.2c-0.1,0-0.2,0-0.2,0C383.2,68.3,383.3,68.4,383.3,68.2L383.3,68.2L383.3,68.2z"/>
		<path class="st2" d="M388.4,59.6c0,0,0.1,0,0.2,0c-0.2-0.1-0.2-0.2-0.3-0.2C388.2,59.5,388.3,59.6,388.4,59.6z"/>
		<path class="st2" d="M387.1,59.2c0.2,0,0.2,0.1,0.3,0.1c0.1,0,0.1,0,0.1,0c-0.1-0.2-0.2-0.2-0.2-0.3
			C387.3,58.9,387.2,59,387.1,59.2C387.1,59.2,387.1,59.2,387.1,59.2z"/>
		<path class="st2" d="M388,58.8C388,58.9,388,58.9,388,58.8c0.2,0,0.3-0.1,0.5-0.2c-0.2-0.1-0.4-0.2-0.6-0.3
			C388,58.5,388,58.7,388,58.8z"/>
		<path class="st2" d="M387.5,48.1c0.2,1,0.5,1.1,1.4,1.4c0.1,0,0.2,0.1,0.2,0.2l0.1-0.1c0.1,0,0.1-0.1,0.2-0.1c0-0.2,0-0.4,0-0.6
			c0,0,0,0-0.1,0c0,0.1,0,0.2,0,0.2c-0.6,0.1-0.6-0.6-1.2-0.5C387.8,48.5,387.7,48.4,387.5,48.1z"/>
		<path class="st2" d="M391,54.1c-0.2-0.2-0.6-3-0.6-3.3h-0.1c-0.1-0.1-0.2-0.1-0.3-0.1v4.1c0.2-0.1,0.2-0.1,0.3-0.2l0,0
			c0,0,0,0,0.1,0c-0.1,0.2-0.1,0.3-0.2,0.4v0.1c-0.1,0-0.1,0.2-0.2,0.2c-0.1,0-0.1-0.1-0.1-0.1v0.9c0.3-0.4,0.7-0.8,0.7-1.2
			c-0.2-0.2-0.3-0.4-0.5-0.6c0.2,0.1,0.5,0.2,0.7,0.2C391,54.3,391,54.3,391,54.1z M390,50.7c-0.2-0.1-0.6-0.1-0.9-0.2v5.7
			c0,0,0-0.1,0.1-0.1c0.4,0.5-0.1,1.1-0.1,1l0,0V57v1l0.6-1.5c0.1-0.1,0.2-0.2,0.2-0.3v-0.9c-0.1-0.1-0.2-0.2-0.3-0.3
			c0.1,0,0.2-0.1,0.3-0.1V50.7z M389.1,50.5c-0.3-0.1-0.6-0.2-0.6-0.4c-0.1-0.1-0.2-0.1-0.3-0.1c-0.1,0.2-0.2,0.3-0.2,0.5
			c-0.2,0.2-0.2,0.6-0.2,0.9l0,0c-0.1,0-0.2,0.2-0.2,0.2v5.7v-0.1c0.1,0,0.2,0.1,0.2,0.1v0.1l0,0l0,0l-0.2,0.2v0.5
			c0.1,0.1,0.2,0.2,0.3,0.2c0.1-0.3,0.2-1.2,0.6-1.2V57c-0.1,0-0.1,0-0.2,0c-0.1-0.1-0.2-0.2-0.2-0.3l0,0c0,0,0.1,0,0.2,0
			c0.3,0.2,0.8,0.6,0.8,1c-0.3,0-0.5-0.2-0.7-0.1l0,0l0,0v0.1c0,0.1,0.1,0.2,0.2,0.4c0.1,0,0.2,0.1,0.2,0.1l0,0l0,0
			c0.1-0.1,0.2-0.1,0.2-0.2l0.1-0.1v-1l0,0c-0.1,0-0.2-0.1-0.2-0.1c0-0.2,0-0.4,0-0.6c0.1,0,0.2-0.1,0.2-0.1V50.5L389.1,50.5z
			 M387.6,62.8L387.6,62.8c0-0.1,0-0.1,0-0.2l0,0c0-0.1,0-0.2,0-0.2c0.1-0.1,0.2-0.2,0.2-0.2c0.2-0.2,0.2-0.5,0.2-0.8
			c0.1,0,0.1,0,0.1,0s0,0,0-0.1c0.1,0,0.1-0.1,0.2-0.1c0.2,0-0.4-1.2-0.7-1.6V62.8z M387.6,51.6c-0.2,0.4-0.2,1-0.3,1.4
			c0,0.1,0,0.1,0,0.2c0,0.2-0.1,0.6,0.2,0.6v0.1c-0.1,0-0.1,0-0.1,0c-0.1,0.1-0.3,0.9-0.3,0.9c-0.2,0.1-0.6,0.2-0.7,0v3.8
			c0.1,0.1,0.2,0.1,0.2,0.1c0,0.2-0.2,0.3-0.2,0.5l0,0l0,0v4h0.2l0,0c0.3-0.4,0.5-1,0.4-1.4c0.1,0,0.1,0,0.1,0l0,0
			c0.2,0.3,0.4,0.7,0.6,1v0.1h0.1v-3.2c-0.1-0.1-0.2-0.1-0.2-0.1l0,0c0,0.1,0,0.2,0,0.2c0,0.1,0,0.1,0,0.1s-0.5-0.4-0.2-0.4
			c0,0.1,0,0.1,0,0.2h0.1c-0.2-0.2-0.5-0.4-0.5-0.7c0.1-0.1,0.2-0.2,0.3-0.2c-0.1-0.2-0.1-0.5-0.1-0.6c0.2-0.1,0.4,0,0.6,0.2v-0.5
			l-0.2,0.1l-0.2-0.1c0.1-0.1,0.2-0.2,0.3-0.3V51.6L387.6,51.6z M386.3,54.6L386.3,54.6L386.3,54.6L386.3,54.6L386.3,54.6
			L386.3,54.6z M386.3,53.2v-0.4c0.1-0.1,0.2-0.2,0.2-0.2c0,0,0.1-0.1,0.2-0.1C386.7,52.9,386.5,53.1,386.3,53.2L386.3,53.2z
			 M386.3,51.4c0.3-0.5,0.6-0.9,0.7-1.1c0-0.2,0-0.2,0-0.3c0.4-0.6-0.1-0.9-0.6-0.9h-0.1v0.2h0.1c0,0.1,0,0.1,0,0.1
			c0.1,0.1,0,0.3-0.1,0.6V51.4L386.3,51.4z M386.3,64.5c0-0.1,0-0.1,0-0.2l0,0V64.5z M386.3,54.7L386.3,54.7v-0.2v-0.1
			c-0.2-0.1-0.8-0.4-0.9-0.6c0.2-0.2,0.4-0.4,0.6-0.6c0.1,0,0.2,0,0.2-0.1v-0.4c-0.1,0-0.2,0.1-0.2-0.1c-0.2-0.3,0-0.8,0.2-1.3V50
			c-0.3,1-1.4,2.8-1.9,2.8c-0.1,0.1-0.2,0.2-0.3,0.4v1c0.6-0.3,1.2-0.9,1.2-1.4l0,0c0.1,0.1,0.2,0.1,0.2,0.1c0,0,0-0.1,0-0.2
			c0.1,0.2,0.2,0.3,0.2,0.6c-0.2,0.2-0.5,0.6-0.7,0.9l0,0h-0.1l0,0c0,0.1,0,0.2,0,0.3l0,0v-0.1c-0.3,0-0.6,0.2-0.8,0.5v11.4
			c0.1-0.1,0.2-0.2,0.3-0.2c0.2-0.2,0.4-0.8,0.4-0.8c0.3,0.2,0.6,0.4,0.6,0.9c0.1-0.1,0.2-0.1,0.2-0.1c0.1,0,0.2,0,0.2,0
			c-0.4-0.8,0.4-1,0.5-1.7v-0.2l-0.6,0.1c-0.1-0.2-0.3-0.9,0.1-0.9c0-0.2,0-0.4,0.1-0.6c0,0,0,0,0-0.1l0.5,0.3v-4h-0.2l0,0
			c0,0,0,0,0-0.1c0-0.2,0-0.3,0-0.5c0,0,0.1,0,0.2,0V54.7L386.3,54.7z M386.3,49.1h-0.6l0,0c0,0.1,0,0.1,0,0.1
			c0,0.1,0.6,0.4,0.6,0.2l0,0V49.1L386.3,49.1z M384,51.9v-2.8l1.2,0.6c0.1,0,0.1,0,0.2,0c-0.1,0.3-0.1,0.6-0.2,0.9
			C385.3,50.6,384.4,51.8,384,51.9z M384,53.2c-0.5,0.5-1.3,1-1.6,1.1c-0.2,0-0.2,0-0.3,0c0-0.2,0-0.3,0-0.5c0-0.2,0.1-0.2,0.2-0.4
			c0,0.1,0,0.1,0,0.1c0.1,0,0.2-0.1,0.4-0.1c0,0,0,0,0.1,0c0-0.1,0-0.1,0-0.1c0.2-0.1,0.3-0.2,0.5-0.3c0-0.2,0.8-1,0.8-1
			c0-0.1,0-0.1,0-0.1l0,0v-2.8l-0.6-0.3c0.2,0.2,0.3,0.5,0.6,0.6c0.2,0.6-0.7,1-0.7,1.7h-0.1c-0.2,0.1-0.5,0.2-0.7,0.4
			c-0.2-0.1-0.3-0.2-0.5-0.2l0.1-0.1c0-0.2,0-0.4,0-0.6c-0.2-0.5-1.1-1.4-1.7-1.1c-0.2,0.2-0.3,0.4-0.4,0.6
			c-0.2,0.1-0.2,0.2-0.3,0.2c-0.2-0.2-0.4-0.4-0.6-0.6l-0.2-0.1v0.2c0.2,0,0.3,0.2,0.4,0.2c0.3,0.6,0.2,1.4-0.4,2.1v0.2
			c0.4-0.5,0.6-1,1-1.6c0.3,0.2,0.6,0.5,0.8,0.6c0.4,0.1,0.7-0.3,1.1-0.1c0,0.1,0.1,0.1,0.1,0.2c0.2,0.4-0.4,0.7-0.7,0.9l0,0
			c-0.5,0.4-1,0.7-1.5,1.1c-0.2,0.1-0.5,0.2-0.7,0.2v1.1c0.4,0.1,0.5,0.2,0.5,0.6c-0.2,0-0.3,0-0.5,0.1v0.4c0.2,0,0.5,0,0.7-0.1
			c0.1,0,0.2,0.1,0.2,0.1c0-0.1,0-0.1,0-0.1c0.2,0,0.4,0,0.6-0.1c0.2-0.1,0.4-0.2,0.6-0.2c0,0.1,0.1,0.2,0.2,0.3
			c-0.5,0.2-0.9,0.5-1.4,0.6l0,0c-0.1,0-0.1,0-0.2,0c0-0.1-0.1-0.1-0.1-0.2c-0.1,0-0.1,0-0.1,0c0,0.1,0,0.2,0,0.2
			c-0.1,0-0.1,0-0.1,0c-0.1,0-0.2,0-0.5,0v2.7c0.2,0.3,0.5,0.6,0.6,1c0.1,0.4-0.2,0.6-0.2,1c-0.1,0.6,0.2,1.2,0.3,1.8
			c0.1,0.2,0.2,0.5,0.5,0.5c0.2,0.7,0.2,1.6,0.5,2.5c0.2,0.2,0.3,0.5,0.5,0.7c-0.1,0.2-0.1,0.5-0.1,0.7c0.2,0.1,0.4,0.2,0.6,0.3l0,0
			c0.2,0.1,0.4,0.1,0.6,0.1l0,0c0-0.1,0-0.1,0-0.1c0-0.2,0-0.2,0-0.4c0.1,0,0.2-0.1,0.3-0.2c0.1-0.3,1,0,1,0.2h0.1
			c0.1-0.2,0.2-0.6,0.5-1V55c-0.2,0.2-0.5,0.4-0.7,0.4c-0.1-0.2-0.2-0.2-0.2-0.4c0,0,0,0-0.1,0c0,0.2-0.2,0.9-0.6,0.9
			c0.1-0.2,0.1-0.3,0.2-0.5c0-0.1,0-0.2,0-0.4c0,0,0,0,0-0.1c0.1,0,0.1,0,0.2,0c0,0.1,0,0.1,0,0.2c0.1,0,0.1,0,0.1,0
			c0.2-0.2,0.4-0.5,0.8-0.5v-0.1c0.1-0.1,0.2-0.2,0.4-0.2V53.2z M378.8,49.6l-0.6-0.3v0.1c-0.1,0-0.1,0-0.1,0v0.1
			c0.2,0.2,0.5,0.2,0.6,0.3V49.6L378.8,49.6z M378.8,52.1c-0.4,0.4-0.9,0.7-1.5,0.6c-0.6-0.1-1-0.3-1.3-0.6v0.6l1.2,0.3
			c0.1,0,0.1,0,0.1,0s0,0,0-0.1h0.1c0.3-0.1,0.6-0.2,0.9-0.2h0.1c0.2-0.2,0.3-0.3,0.5-0.5V52.1L378.8,52.1z M376,50.4
			c0.2-0.1,0.4-0.1,0.6-0.1c0.3,0.1-0.4-0.4-0.1-0.6l0.6-0.2c0.1-0.1,0.2-0.1,0.2-0.2c0,0.1,0.1,0.1,0.1,0.1c0.1,0,0.2-0.1,0.2-0.1
			l0,0c0.2,0,0.3,0,0.5,0l0,0c-0.1-0.1-0.1-0.1-0.2-0.1c-0.3-0.2-1.7,0.2-1.7,0.6l-0.1-0.1c-0.1,0-0.1,0-0.2,0V50.4L376,50.4z
			 M376,55.8h0.2C376.1,55.9,376.1,55.9,376,55.8V57c0.2,0.1,0.5,0.2,0.7,0.2c0.1,0.1,0.2,0.2,0.2,0.2c0.2,0.2,0.6,0.3,0.8,0.4
			c0.2,0.6,0.6,1,1,1.5v-2.7c-0.8,0-2.3,0.2-2.3-0.4c0.2,0,0.4-0.1,0.6-0.2l0,0c0.2-0.1,0.2-0.1,0.3-0.1c0.6,0.1,1,0.1,1.4,0v-0.4
			c-0.5,0-1.1,0.2-1.3-0.2c0-0.1,0-0.2,0-0.2c0-0.1,0-0.1,0-0.1l0,0c0.2,0,0.4,0,0.6,0l0,0c0.2,0,0.3-0.1,0.5-0.1v-0.1
			c0.1,0,0.2,0,0.2,0v-1.1c-0.9,0.3-1.8,0.3-2.8,0.3v0.8c0.2,0.1,0.5,0.1,0.7,0.2c-0.1,0.3-0.4,0.5-0.7,0.5V55.8z M376,52
			c-0.6-0.6-0.6-1.4,0-1.6v-0.6c-0.2,0-0.4,0.2-0.7,0.2c0,0.2-0.2,0.6,0.1,1.3c0.2,0.8-1.1-0.6-1.4-0.5c-0.7,0.2-0.3,1.1-0.3,1.6
			c0,0.2,0,0.3,0,0.5c-0.2,0-0.5,0.1-0.7,0.1c0,0,0,0.1,0.1,0.1c0.2,0.2,0.4,0.4,0.6,0.6c0.2,0.2,0.4,0.3,0.6,0.4
			c0.2,0.2,0.3,0.2,0.6,0.3c0,0.2-0.1,0.6-0.2,0.6v0.1l0,0c0.2,0.1,1.2,0.6,1.5,0.7v-0.4c-0.3-0.1-0.7-0.4-0.6-0.9l0,0
			c0.2,0.1,0.3,0.2,0.6,0.2h0.1v-0.8c-0.3,0-0.6,0-1,0c-0.3-0.2-1-0.2-1-0.7c0-0.2,0.1-0.2,0.2-0.4h0.1c0.2-0.1,0.5-0.2,0.7-0.3
			c0-0.1,0-0.1,0-0.1c0.1,0,0.2,0,0.2,0l0.8,0.2V52L376,52z M376,55.9c-0.6,0.4-1-0.1-1.6-0.1h-0.1c-0.1,0.1-0.2,0.2-0.2,0.2
			c-0.1,0-0.1,0-0.1,0c0,0.1,0,0.1,0,0.1h0.1c0.6,0.2,1,0.6,1.5,0.9L376,57V55.9z"/>
		<path class="st2" d="M361.4,53.1c0,0,0.3-0.2,0.2-0.3c0,0-0.1,0-0.2,0C361.4,53,361.4,53,361.4,53.1z"/>
	</g>
</g>
<g>
	<g>
		<path class="st0" d="M14.4,119.3c-0.4-0.2-0.8-0.3-1.5-0.3c-1.3,0-2.2,1.1-2.2,2.6c0,1.5,0.7,2.7,2.3,2.7c0.6,0,1.3-0.2,1.7-0.4
			l0.1,1.8c-0.6,0.2-1.3,0.3-2.2,0.3c-2.7,0-4.1-1.9-4.1-4.4c0-2.4,1.4-4.3,4-4.3c0.9,0,1.5,0.1,2.1,0.3L14.4,119.3z"/>
		<path class="st0" d="M22.9,125.3c-0.8,0.4-1.7,0.7-2.9,0.7c-2.8,0-4.4-1.6-4.4-4.3c0-2.4,1.3-4.4,3.9-4.4c3.1,0,4,2.1,4,5.1h-5.8
			c0.1,1.4,1,2.1,2.4,2.1c1.1,0,2-0.4,2.8-0.8V125.3z M21.4,120.8c-0.1-1.1-0.6-2-1.8-2c-1.2,0-1.8,0.8-1.9,2H21.4z"/>
		<path class="st0" d="M25.2,117.4h2.1v1.1h0c0.7-1,1.6-1.3,2.7-1.3c2,0,2.8,1.4,2.8,3.3v5.3h-2.2v-4.5c0-1,0-2.4-1.4-2.4
			c-1.6,0-1.9,1.7-1.9,2.8v4.1h-2.2V117.4z"/>
		<path class="st0" d="M35.9,119h-1.6v-1.6h1.6v-1.7l2.2-0.7v2.4H40v1.6h-1.9v3.9c0,0.7,0.2,1.4,1,1.4c0.4,0,0.8-0.1,1-0.2l0.1,1.7
			c-0.5,0.1-1,0.2-1.6,0.2c-1.7,0-2.6-1.1-2.6-2.7V119z"/>
		<path class="st0" d="M41.5,117.4h1.9v1.9h0c0.1-0.8,1-2.1,2.3-2.1c0.2,0,0.4,0,0.7,0.1v2.2c-0.2-0.1-0.6-0.2-1-0.2
			c-1.8,0-1.8,2.2-1.8,3.4v3.1h-2.2V117.4z"/>
		<path class="st0" d="M48.2,117.9c0.8-0.4,2-0.6,2.9-0.6c2.6,0,3.6,1.1,3.6,3.5v1.1c0,0.8,0,1.5,0,2.1c0,0.6,0,1.2,0.1,1.9h-1.9
			c-0.1-0.4-0.1-1-0.1-1.3h0c-0.5,0.9-1.6,1.4-2.6,1.4c-1.5,0-2.9-0.9-2.9-2.5c0-1.3,0.6-2,1.4-2.4c0.8-0.4,1.9-0.5,2.8-0.5h1.2
			c0-1.3-0.6-1.8-1.9-1.8c-0.9,0-1.9,0.4-2.6,0.9L48.2,117.9z M50.7,124.4c0.7,0,1.2-0.3,1.5-0.7c0.4-0.5,0.5-1.1,0.5-1.7h-0.9
			c-1,0-2.4,0.2-2.4,1.4C49.3,124.1,50,124.4,50.7,124.4z"/>
		<path class="st0" d="M56.9,113.6h2.2v12.2h-2.2V113.6z"/>
		<path class="st0" d="M71.5,124.9L71.5,124.9c-0.7,0.8-1.6,1.1-2.6,1.1c-2.6,0-3.5-2.1-3.5-4.4c0-2.3,0.9-4.4,3.5-4.4
			c1.1,0,1.9,0.4,2.5,1.2h0v-4.8h2.2v12.2h-2.1V124.9z M69.5,124.3c1.4,0,1.9-1.5,1.9-2.7c0-1.2-0.6-2.7-1.9-2.7
			c-1.4,0-1.8,1.5-1.8,2.7C67.6,122.8,68,124.3,69.5,124.3z"/>
		<path class="st0" d="M82.5,125.3c-0.8,0.4-1.7,0.7-2.9,0.7c-2.8,0-4.4-1.6-4.4-4.3c0-2.4,1.3-4.4,3.9-4.4c3.1,0,4,2.1,4,5.1h-5.8
			c0.1,1.4,1,2.1,2.4,2.1c1.1,0,2-0.4,2.8-0.8V125.3z M81.1,120.8c-0.1-1.1-0.6-2-1.8-2c-1.2,0-1.8,0.8-1.9,2H81.1z"/>
		<path class="st0" d="M90.1,119h-1.6v-1.6h1.6v-1.7l2.2-0.7v2.4h1.9v1.6h-1.9v3.9c0,0.7,0.2,1.4,1,1.4c0.4,0,0.8-0.1,1-0.2l0.1,1.7
			c-0.5,0.1-1,0.2-1.6,0.2c-1.7,0-2.6-1.1-2.6-2.7V119z"/>
		<path class="st0" d="M95.7,117.4h1.9v1.9h0c0.1-0.8,1-2.1,2.3-2.1c0.2,0,0.4,0,0.7,0.1v2.2c-0.2-0.1-0.6-0.2-1-0.2
			c-1.8,0-1.8,2.2-1.8,3.4v3.1h-2.2V117.4z"/>
		<path class="st0" d="M102.4,117.9c0.8-0.4,2-0.6,2.9-0.6c2.6,0,3.6,1.1,3.6,3.5v1.1c0,0.8,0,1.5,0,2.1c0,0.6,0,1.2,0.1,1.9h-1.9
			c-0.1-0.4-0.1-1-0.1-1.3h0c-0.5,0.9-1.6,1.4-2.6,1.4c-1.5,0-2.9-0.9-2.9-2.5c0-1.3,0.6-2,1.4-2.4c0.8-0.4,1.9-0.5,2.8-0.5h1.2
			c0-1.3-0.6-1.8-1.9-1.8c-0.9,0-1.9,0.4-2.6,0.9L102.4,117.9z M104.9,124.4c0.7,0,1.2-0.3,1.5-0.7c0.4-0.5,0.5-1.1,0.5-1.7H106
			c-1,0-2.4,0.2-2.4,1.4C103.5,124.1,104.2,124.4,104.9,124.4z"/>
		<path class="st0" d="M111,113.6h2.2v4.9h0c0.6-0.8,1.4-1.3,2.5-1.3c2.6,0,3.5,2,3.5,4.4c0,2.3-0.9,4.4-3.5,4.4
			c-0.9,0-1.9-0.3-2.6-1.2h0v1H111V113.6z M115.2,124.3c1.4,0,1.8-1.6,1.8-2.7c0-1.1-0.4-2.7-1.8-2.7c-1.4,0-2,1.5-2,2.7
			C113.2,122.8,113.7,124.3,115.2,124.3z"/>
		<path class="st0" d="M121.3,117.9c0.8-0.4,2-0.6,2.9-0.6c2.6,0,3.6,1.1,3.6,3.5v1.1c0,0.8,0,1.5,0,2.1c0,0.6,0,1.2,0.1,1.9h-1.9
			c-0.1-0.4-0.1-1-0.1-1.3h0c-0.5,0.9-1.6,1.4-2.6,1.4c-1.5,0-2.9-0.9-2.9-2.5c0-1.3,0.6-2,1.4-2.4c0.8-0.4,1.9-0.5,2.8-0.5h1.2
			c0-1.3-0.6-1.8-1.9-1.8c-0.9,0-1.9,0.4-2.6,0.9L121.3,117.9z M123.9,124.4c0.7,0,1.2-0.3,1.5-0.7c0.4-0.5,0.5-1.1,0.5-1.7h-0.9
			c-1,0-2.4,0.2-2.4,1.4C122.5,124.1,123.1,124.4,123.9,124.4z"/>
		<path class="st0" d="M128.7,127.7c1.2-0.1,1.3-0.3,1.3-1.6v-8.7h2.2v9c0,1.2-0.3,3-2.5,3c-0.4,0-0.8,0-1.1-0.1L128.7,127.7z
			 M130.1,113.8h2.2v2.1h-2.2V113.8z"/>
		<path class="st0" d="M134.9,117.9c0.8-0.4,2-0.6,2.9-0.6c2.6,0,3.6,1.1,3.6,3.5v1.1c0,0.8,0,1.5,0,2.1c0,0.6,0,1.2,0.1,1.9h-1.9
			c-0.1-0.4-0.1-1-0.1-1.3h0c-0.5,0.9-1.6,1.4-2.6,1.4c-1.5,0-2.9-0.9-2.9-2.5c0-1.3,0.6-2,1.4-2.4c0.8-0.4,1.9-0.5,2.8-0.5h1.2
			c0-1.3-0.6-1.8-1.9-1.8c-0.9,0-1.9,0.4-2.6,0.9L134.9,117.9z M137.4,124.4c0.7,0,1.2-0.3,1.5-0.7c0.4-0.5,0.5-1.1,0.5-1.7h-0.9
			c-1,0-2.4,0.2-2.4,1.4C136.1,124.1,136.7,124.4,137.4,124.4z"/>
		<path class="st0" d="M149.1,124.9L149.1,124.9c-0.7,0.8-1.6,1.1-2.6,1.1c-2.6,0-3.5-2.1-3.5-4.4c0-2.3,0.9-4.4,3.5-4.4
			c1.1,0,1.9,0.4,2.5,1.2h0v-4.8h2.2v12.2h-2.1V124.9z M147.1,124.3c1.4,0,1.9-1.5,1.9-2.7c0-1.2-0.6-2.7-2-2.7
			c-1.4,0-1.8,1.5-1.8,2.7C145.3,122.8,145.7,124.3,147.1,124.3z"/>
		<path class="st0" d="M157.3,117.3c2.5,0,4.4,1.7,4.4,4.4c0,2.4-1.6,4.3-4.4,4.3c-2.8,0-4.4-1.9-4.4-4.3
			C153,118.9,154.9,117.3,157.3,117.3z M157.3,124.3c1.7,0,2.1-1.5,2.1-2.9c0-1.3-0.7-2.5-2.1-2.5c-1.4,0-2.1,1.2-2.1,2.5
			C155.2,122.8,155.7,124.3,157.3,124.3z"/>
		<path class="st0" d="M163.5,117.4h1.9v1.9h0c0.1-0.8,1-2.1,2.3-2.1c0.2,0,0.4,0,0.7,0.1v2.2c-0.2-0.1-0.6-0.2-1-0.2
			c-1.8,0-1.8,2.2-1.8,3.4v3.1h-2.2V117.4z"/>
		<path class="st0" d="M176.2,125.3c-0.8,0.4-1.7,0.7-2.9,0.7c-2.8,0-4.4-1.6-4.4-4.3c0-2.4,1.3-4.4,3.9-4.4c3.1,0,4,2.1,4,5.1H171
			c0.1,1.4,1,2.1,2.4,2.1c1.1,0,2-0.4,2.8-0.8V125.3z M174.7,120.8c-0.1-1.1-0.6-2-1.8-2c-1.2,0-1.8,0.8-1.9,2H174.7z"/>
		<path class="st0" d="M183.5,119.2c-0.7-0.2-1.2-0.4-2-0.4c-0.6,0-1.3,0.2-1.3,0.9c0,1.3,3.8,0.5,3.8,3.5c0,2-1.7,2.7-3.5,2.7
			c-0.8,0-1.7-0.1-2.5-0.4l0.1-1.8c0.7,0.3,1.4,0.6,2.1,0.6c0.6,0,1.4-0.2,1.4-1c0-1.6-3.8-0.5-3.8-3.5c0-1.8,1.6-2.6,3.3-2.6
			c1,0,1.7,0.2,2.4,0.3L183.5,119.2z"/>
		<path class="st0" d="M75.7,139.6L75.7,139.6c-0.7,0.8-1.6,1.1-2.6,1.1c-2.6,0-3.5-2.1-3.5-4.4c0-2.3,0.9-4.4,3.5-4.4
			c1.1,0,1.9,0.4,2.5,1.2h0v-4.8h2.2v12.2h-2.1V139.6z M73.7,139c1.4,0,1.9-1.5,1.9-2.7c0-1.2-0.6-2.7-2-2.7c-1.4,0-1.8,1.5-1.8,2.7
			C71.8,137.5,72.2,139,73.7,139z"/>
		<path class="st0" d="M86.7,140.1c-0.8,0.4-1.7,0.7-2.9,0.7c-2.8,0-4.4-1.6-4.4-4.3c0-2.4,1.3-4.4,3.9-4.4c3.1,0,4,2.1,4,5.1h-5.8
			c0.1,1.4,1,2.1,2.4,2.1c1.1,0,2-0.4,2.8-0.8V140.1z M85.3,135.5c-0.1-1.1-0.6-2-1.8-2c-1.2,0-1.8,0.8-1.9,2H85.3z"/>
		<path class="st0" d="M93.6,128.3h2.2v12.2h-2.2V128.3z"/>
		<path class="st0" d="M98.5,132.6c0.8-0.4,2-0.6,2.9-0.6c2.6,0,3.6,1.1,3.6,3.5v1.1c0,0.8,0,1.5,0,2.1c0,0.6,0,1.2,0.1,1.9h-1.9
			c-0.1-0.4-0.1-1-0.1-1.3h0c-0.5,0.9-1.6,1.4-2.6,1.4c-1.5,0-2.9-0.9-2.9-2.5c0-1.3,0.6-2,1.4-2.4c0.8-0.4,1.9-0.5,2.8-0.5h1.2
			c0-1.3-0.6-1.8-1.9-1.8c-0.9,0-1.9,0.4-2.6,0.9L98.5,132.6z M101,139.1c0.7,0,1.2-0.3,1.5-0.7c0.4-0.5,0.5-1.1,0.5-1.7h-0.9
			c-1,0-2.4,0.2-2.4,1.4C99.6,138.8,100.2,139.1,101,139.1z"/>
		<path class="st0" d="M112,132.6c0.8-0.4,2-0.6,2.9-0.6c2.6,0,3.6,1.1,3.6,3.5v1.1c0,0.8,0,1.5,0,2.1c0,0.6,0,1.2,0.1,1.9h-1.9
			c-0.1-0.4-0.1-1-0.1-1.3h0c-0.5,0.9-1.6,1.4-2.6,1.4c-1.5,0-2.9-0.9-2.9-2.5c0-1.3,0.6-2,1.4-2.4c0.8-0.4,1.9-0.5,2.8-0.5h1.2
			c0-1.3-0.6-1.8-1.9-1.8c-0.9,0-1.9,0.4-2.6,0.9L112,132.6z M114.6,139.1c0.7,0,1.2-0.3,1.5-0.7c0.4-0.5,0.5-1.1,0.5-1.7h-0.9
			c-1,0-2.4,0.2-2.4,1.4C113.2,138.8,113.8,139.1,114.6,139.1z"/>
		<path class="st0" d="M120.7,132.2h1.9v1.9h0c0.1-0.8,1-2.1,2.3-2.1c0.2,0,0.4,0,0.7,0.1v2.2c-0.2-0.1-0.6-0.2-1-0.2
			c-1.8,0-1.8,2.2-1.8,3.4v3.1h-2.2V132.2z"/>
		<path class="st0" d="M134.7,132.2v7.6c0,2.3-0.9,4.4-4.4,4.4c-0.9,0-1.9-0.1-2.9-0.6l0.2-1.9c0.7,0.4,1.8,0.7,2.4,0.7
			c2.4,0,2.5-1.8,2.5-3.3h0c-0.4,0.7-1.4,1.3-2.6,1.3c-2.5,0-3.4-2-3.4-4.2c0-2,1-4.3,3.5-4.3c1.1,0,2,0.4,2.6,1.3h0v-1.1H134.7z
			 M132.5,136.3c0-1.4-0.6-2.6-1.8-2.6c-1.5,0-2,1.4-2,2.6c0,1.1,0.6,2.5,1.9,2.5C132,138.8,132.5,137.7,132.5,136.3z"/>
		<path class="st0" d="M143.6,140.1c-0.8,0.4-1.7,0.7-2.9,0.7c-2.8,0-4.4-1.6-4.4-4.3c0-2.4,1.3-4.4,3.9-4.4c3.1,0,4,2.1,4,5.1h-5.8
			c0.1,1.4,1,2.1,2.4,2.1c1.1,0,2-0.4,2.8-0.8V140.1z M142.2,135.5c-0.1-1.1-0.6-2-1.8-2c-1.2,0-1.8,0.8-1.9,2H142.2z"/>
		<path class="st0" d="M146,132.2h2.1v1.1h0c0.7-1,1.6-1.3,2.7-1.3c2,0,2.8,1.4,2.8,3.3v5.3h-2.2v-4.5c0-1,0-2.4-1.4-2.4
			c-1.6,0-1.9,1.7-1.9,2.8v4.1H146V132.2z"/>
		<path class="st0" d="M156.6,133.8H155v-1.6h1.6v-1.7l2.2-0.7v2.4h1.9v1.6h-1.9v3.9c0,0.7,0.2,1.4,1,1.4c0.4,0,0.8-0.1,1-0.2
			l0.1,1.7c-0.5,0.1-1,0.2-1.6,0.2c-1.7,0-2.6-1.1-2.6-2.7V133.8z"/>
		<path class="st0" d="M162.3,128.6h2.2v2.1h-2.2V128.6z M162.3,132.2h2.2v8.4h-2.2V132.2z"/>
		<path class="st0" d="M166.7,132.2h2.1v1.1h0c0.7-1,1.6-1.3,2.7-1.3c2,0,2.8,1.4,2.8,3.3v5.3h-2.2v-4.5c0-1,0-2.4-1.4-2.4
			c-1.6,0-1.9,1.7-1.9,2.8v4.1h-2.2V132.2z"/>
		<path class="st0" d="M177,132.6c0.8-0.4,2-0.6,2.9-0.6c2.6,0,3.6,1.1,3.6,3.5v1.1c0,0.8,0,1.5,0,2.1c0,0.6,0,1.2,0.1,1.9h-1.9
			c-0.1-0.4-0.1-1-0.1-1.3h0c-0.5,0.9-1.6,1.4-2.6,1.4c-1.5,0-2.9-0.9-2.9-2.5c0-1.3,0.6-2,1.4-2.4c0.8-0.4,1.9-0.5,2.8-0.5h1.2
			c0-1.3-0.6-1.8-1.9-1.8c-0.9,0-1.9,0.4-2.6,0.9L177,132.6z M179.6,139.1c0.7,0,1.2-0.3,1.5-0.7c0.4-0.5,0.5-1.1,0.5-1.7h-0.9
			c-1,0-2.4,0.2-2.4,1.4C178.2,138.8,178.8,139.1,179.6,139.1z"/>
	</g>
	<g>
		<g>
			<path class="st0" d="M198.5,122.7h-6.1c0.7-4.5,3.9-6.7,9.4-6.7c6.7,0,10,2.2,10.2,6.7v8.2c0,6.7-4,9.6-10.5,10.1
				c-5.8,0.5-9.8-2.2-9.8-7.6c0.1-5.8,4.3-7.3,10.4-7.9c2.6-0.3,3.9-1.1,3.9-2.4c-0.1-1.4-1.4-2.1-3.9-2.1
				C200,121,198.8,121.6,198.5,122.7z M206.1,130.7v-2.2c-1.4,0.6-3.1,1.1-4.8,1.5c-2.4,0.5-3.6,1.6-3.6,3.4
				c0.1,1.9,1.1,2.8,3.1,2.8C204.1,136.1,206.1,134.1,206.1,130.7z"/>
			<path class="st0" d="M233.9,130.9c0,4.2-1,6.9-3.2,8.2c-2.1,1.2-4.5,1.9-7.1,1.9c-2.5,0-4.7-0.7-6.8-2.1c-2.1-1.3-3.1-4-3.1-8
				v-14.5h6.1v15.7c0,2.7,1.4,4,4.1,4c2.7,0,4.1-1.3,4.1-4v-12.7c0-2,0.9-3,2.9-3h3.1V130.9z"/>
			<path class="st0" d="M241.8,120.8h-0.6v13.4c0,1,0.6,1.6,1.8,1.6h1.9v4.6c-2,0.2-4.1,0.2-6.4,0c-2.3-0.2-3.4-1.6-3.3-4.3v-26.4
				h3.1c1.6,0,2.9,1.5,2.9,3.1v3.8h3.6v1.3C244.9,119.5,243.5,120.8,241.8,120.8z"/>
			<path class="st0" d="M267.8,128.6c0,8.3-3.7,12.5-11,12.5c-7.3,0-10.9-4.2-10.9-12.5c0-8.4,3.6-12.5,10.9-12.5
				C264.1,116.1,267.8,120.2,267.8,128.6z M252,128.6c0,4.7,1.6,7.1,4.7,7.1c3.1,0,4.7-2.5,4.7-7.3c0-4.7-1.6-7-4.7-7
				C253.6,121.4,252,123.8,252,128.6z"/>
			<path class="st0" d="M286.8,140.6c-2-0.1-3-1.1-3-3v-12.4c-0.1-2.5-1.5-3.7-4.2-3.7c-2.7,0-4.1,1.2-4.1,3.7v15.4h-6.2v-14.2
				c0-6.9,3.5-10.3,10.4-10.3c6.9,0,10.3,3.4,10.2,10.3v14.2H286.8z"/>
			<path class="st0" d="M313,128.6c0,8.3-3.7,12.5-11,12.5c-7.3,0-10.9-4.2-10.9-12.5c0-8.4,3.6-12.5,10.9-12.5
				C309.3,116.1,313,120.2,313,128.6z M297.3,128.6c0,4.7,1.6,7.1,4.7,7.1c3.1,0,4.7-2.5,4.7-7.3c0-4.7-1.6-7-4.7-7
				C298.9,121.4,297.3,123.8,297.3,128.6z"/>
			<path class="st0" d="M320.8,125.1v15.4h-6.2v-14.2c0-6.9,3.5-10.3,10.4-10.3c3.1,0,5.5,0.7,7.2,2.1c1.7-1.3,4.1-2,7.2-2
				c6.9,0,10.3,3.4,10.3,10.3v14.2h-3.1c-2-0.1-3-1.1-3-3v-12.4c-0.1-2.5-1.5-3.7-4.2-3.7c-2.7,0-4.1,1.2-4.1,3.7v15.3h-6.1v-15.4
				c-0.1-2.5-1.5-3.7-4.2-3.7C322.2,121.4,320.8,122.6,320.8,125.1z"/>
			<path class="st0" d="M358,122.7H352c0.7-4.5,3.9-6.7,9.4-6.7c6.7,0,10,2.2,10.2,6.7v8.2c0,6.7-4,9.6-10.5,10.1
				c-5.8,0.5-9.8-2.2-9.8-7.6c0.1-5.8,4.3-7.3,10.4-7.9c2.6-0.3,3.9-1.1,3.9-2.4c-0.1-1.4-1.4-2.1-3.9-2.1
				C359.5,121,358.3,121.6,358,122.7z M365.7,130.7v-2.2c-1.4,0.6-3.1,1.1-4.8,1.5c-2.4,0.5-3.6,1.6-3.6,3.4
				c0.1,1.9,1.1,2.8,3.1,2.8C363.6,136.1,365.7,134.1,365.7,130.7z"/>
		</g>
		<path class="st0" d="M253.6,113.2l6.1-5.1l3.3,4.5c0,0-3,1.1-4.3,1.4C257.5,114.3,255,114.1,253.6,113.2z"/>
	</g>
</g>
<g>
</g>
<g>
</g>
<g>
</g>
<g>
</g>
<g>
</g>
<g>
</g>
</svg>
